TW-Sung-98_1.sfdir
StartChar: exclam
Encoding: 33 33 4
Width: 512
Flags: W
LayerCount: 2
Back
Fore
SplineSet
268 142 m 1,0,-1
 248 142 l 1,1,-1
 200 621 l 2,2,3
 198 640 198 640 206 653 c 256,4,5
 214 666 214 666 224 672 c 256,6,7
 234 678 234 678 256 679 c 0,8,9
 278 679 278 679 287 673 c 0,10,11
 298 667 298 667 306 653 c 0,12,13
 314 640 314 640 312 621 c 2,14,-1
 268 142 l 1,0,-1
240 66 m 1,15,16
 272 66 272 66 287 58 c 256,17,18
 302 50 302 50 311 34 c 256,19,20
 320 18 320 18 320 1 c 0,21,22
 320 -15 320 -15 311 -31 c 0,23,24
 303 -46 303 -46 288 -54 c 0,25,26
 274 -62 274 -62 256 -62 c 256,27,28
 238 -62 238 -62 224 -54 c 0,29,30
 208 -46 208 -46 200 -31 c 256,31,32
 192 -16 192 -16 192 1 c 256,33,34
 192 18 192 18 200 34 c 256,35,36
 208 50 208 50 224 57 c 2,37,-1
 240 66 l 1,15,16
268 142 m 1,38,-1
 248 142 l 1,39,-1
 200 621 l 2,40,41
 198 640 198 640 206 653 c 256,42,43
 214 666 214 666 224 672 c 0,44,45
 236 678 236 678 256 679 c 0,46,47
 278 679 278 679 288 672 c 0,48,49
 298 666 298 666 306 653 c 256,50,51
 314 640 314 640 312 621 c 2,52,-1
 268 142 l 1,38,-1
240 66 m 1,53,54
 272 66 272 66 287 58 c 256,55,56
 302 50 302 50 311 34 c 256,57,58
 320 18 320 18 320 1 c 0,59,60
 320 -15 320 -15 311 -30 c 0,61,62
 302 -46 302 -46 288 -54 c 256,63,64
 274 -62 274 -62 256 -62 c 256,65,66
 238 -62 238 -62 224 -54 c 0,67,68
 209 -46 209 -46 200 -31 c 0,69,70
 192 -16 192 -16 192 1 c 256,71,72
 192 18 192 18 200 34 c 0,73,74
 209 49 209 49 240 66 c 1,53,54
EndSplineSet
EndChar
StartChar: quotedbl
Encoding: 34 34 5
Width: 512
Flags: W
LayerCount: 2
Back
Fore
SplineSet
234 752 m 2,0,-1
 201 498 l 2,1,2
 199 486 199 486 189 486 c 256,3,4
 179 486 179 486 178 498 c 2,5,-1
 145 752 l 2,6,7
 142 778 142 778 153 796 c 0,8,9
 165 814 165 814 189 814 c 256,10,11
 213 814 213 814 225 796 c 256,12,13
 237 778 237 778 234 752 c 2,0,-1
373 752 m 2,14,-1
 341 498 l 2,15,16
 339 486 339 486 328 486 c 0,17,18
 318 486 318 486 317 498 c 2,19,-1
 283 752 l 2,20,21
 279 778 279 778 292 796 c 0,22,23
 303 814 303 814 327 814 c 256,24,25
 351 814 351 814 363 796 c 256,26,27
 375 778 375 778 373 752 c 2,14,-1
234 752 m 2,28,-1
 201 498 l 2,29,30
 199 486 199 486 189 486 c 256,31,32
 179 486 179 486 178 498 c 2,33,-1
 145 752 l 2,34,35
 142 778 142 778 153 796 c 0,36,37
 165 814 165 814 189 814 c 256,38,39
 213 814 213 814 225 796 c 256,40,41
 237 778 237 778 234 752 c 2,28,-1
373 752 m 2,42,-1
 341 498 l 2,43,44
 339 486 339 486 329 486 c 0,45,46
 318 486 318 486 317 498 c 2,47,-1
 283 752 l 2,48,49
 279 778 279 778 291 796 c 256,50,51
 303 814 303 814 327 814 c 256,52,53
 351 814 351 814 363 796 c 0,54,55
 376 778 376 778 373 752 c 2,42,-1
EndSplineSet
EndChar
StartChar: numbersign
Encoding: 35 35 6
Width: 512
Flags: W
LayerCount: 2
Back
Fore
SplineSet
172 124 m 1,0,-1
 146 -44 l 1,1,-1
 108 -44 l 1,2,-1
 135 124 l 1,3,-1
 36 124 l 1,4,-1
 47 192 l 1,5,-1
 146 192 l 1,6,-1
 182 422 l 1,7,-1
 75 422 l 1,8,-1
 86 489 l 1,9,-1
 192 489 l 1,10,-1
 220 662 l 1,11,-1
 258 662 l 1,12,-1
 230 489 l 1,13,-1
 338 489 l 1,14,-1
 365 662 l 1,15,-1
 403 662 l 1,16,-1
 376 489 l 1,17,-1
 476 489 l 1,18,-1
 464 422 l 1,19,-1
 365 422 l 1,20,-1
 328 192 l 1,21,-1
 446 192 l 1,22,-1
 434 124 l 1,23,-1
 318 124 l 1,24,-1
 292 -44 l 1,25,-1
 254 -44 l 1,26,-1
 280 124 l 1,27,-1
 172 124 l 1,0,-1
184 192 m 1,28,-1
 291 192 l 1,29,-1
 327 422 l 1,30,-1
 220 422 l 1,31,-1
 184 192 l 1,28,-1
172 124 m 1,32,-1
 146 -44 l 1,33,-1
 108 -44 l 1,34,-1
 135 124 l 1,35,-1
 36 124 l 1,36,-1
 47 192 l 1,37,-1
 146 192 l 1,38,-1
 182 422 l 1,39,-1
 75 422 l 1,40,-1
 86 489 l 1,41,-1
 192 489 l 1,42,-1
 220 662 l 1,43,-1
 258 662 l 1,44,-1
 230 489 l 1,45,-1
 338 489 l 1,46,-1
 365 662 l 1,47,-1
 403 662 l 1,48,-1
 376 489 l 1,49,-1
 476 489 l 1,50,-1
 464 422 l 1,51,-1
 365 422 l 1,52,-1
 328 192 l 1,53,-1
 446 192 l 1,54,-1
 434 124 l 1,55,-1
 318 124 l 1,56,-1
 292 -44 l 1,57,-1
 254 -44 l 1,58,-1
 280 124 l 1,59,-1
 172 124 l 1,32,-1
184 192 m 1,60,-1
 291 192 l 1,61,-1
 327 422 l 1,62,-1
 220 422 l 1,63,-1
 184 192 l 1,60,-1
EndSplineSet
EndChar
StartChar: dollar
Encoding: 36 36 7
Width: 512
Flags: W
LayerCount: 2
Back
Fore
SplineSet
272 346 m 1,0,-1
 303 334 l 2,1,2
 318 328 318 328 338 319 c 256,3,4
 358 310 358 310 376 300 c 256,5,6
 394 290 394 290 415 271 c 0,7,8
 437 251 437 251 448 226 c 256,9,10
 459 201 459 201 462 183 c 0,11,12
 466 165 466 165 466 145 c 256,13,14
 466 125 466 125 464 106 c 0,15,16
 460 80 460 80 448 50 c 0,17,18
 436 21 436 21 415 1 c 0,19,20
 395 -19 395 -19 379 -28 c 0,21,22
 364 -37 364 -37 348 -43 c 256,23,24
 332 -49 332 -49 316 -53 c 0,25,26
 300 -58 300 -58 291 -58 c 2,27,-1
 273 -60 l 1,28,-1
 273 -142 l 1,29,-1
 238 -142 l 1,30,-1
 238 -60 l 1,31,32
 228 -60 228 -60 221 -60 c 0,33,34
 213 -60 213 -60 201 -57 c 256,35,36
 189 -54 189 -54 173 -50 c 0,37,38
 158 -46 158 -46 143 -40 c 0,39,40
 127 -34 127 -34 113 -24 c 0,41,42
 98 -14 98 -14 86 -2 c 256,43,44
 74 10 74 10 66 21 c 0,45,46
 58 33 58 33 54 46 c 0,47,48
 50 58 50 58 48 70 c 256,49,50
 46 82 46 82 46 98 c 256,51,52
 46 114 46 114 50 128 c 0,53,54
 54 139 54 139 61 148 c 0,55,56
 69 158 69 158 78 162 c 0,57,58
 88 166 88 166 97 166 c 0,59,60
 105 166 105 166 116 162 c 0,61,62
 126 158 126 158 132 152 c 256,63,64
 138 146 138 146 142 135 c 256,65,66
 146 124 146 124 147 112 c 0,67,68
 147 100 147 100 136 87 c 0,69,70
 130 81 130 81 119 73 c 256,71,72
 108 65 108 65 103 60 c 0,73,74
 98 54 98 54 96 44 c 0,75,76
 94 32 94 32 104 18 c 0,77,78
 112 5 112 5 124 -3 c 0,79,80
 137 -11 137 -11 150 -17 c 0,81,82
 162 -23 162 -23 174 -27 c 256,83,84
 186 -31 186 -31 201 -33 c 0,85,86
 216 -36 216 -36 224 -36 c 2,87,-1
 238 -36 l 1,88,-1
 238 292 l 1,89,90
 211 302 211 302 167 320 c 0,91,92
 122 338 122 338 92 382 c 256,93,94
 62 426 62 426 60 472 c 256,95,96
 58 518 58 518 71 552 c 256,97,98
 84 586 84 586 108 614 c 0,99,100
 132 640 132 640 156 652 c 256,101,102
 180 664 180 664 196 670 c 0,103,104
 214 674 214 674 224 676 c 2,105,-1
 238 677 l 1,106,-1
 238 758 l 1,107,-1
 273 758 l 1,108,-1
 272 677 l 1,109,-1
 294 674 l 2,110,111
 303 674 303 674 318 670 c 0,112,113
 332 666 332 666 354 658 c 0,114,115
 374 650 374 650 396 632 c 256,116,117
 418 614 418 614 430 589 c 256,118,119
 442 564 442 564 442 538 c 256,120,121
 442 512 442 512 437 498 c 0,122,123
 430 480 430 480 417 471 c 256,124,125
 404 462 404 462 388 462 c 0,126,127
 378 462 378 462 370 465 c 0,128,129
 362 469 362 469 355 475 c 0,130,131
 350 481 350 481 346 490 c 0,132,133
 342 498 342 498 344 509 c 0,134,135
 344 517 344 517 348 525 c 256,136,137
 352 533 352 533 357 537 c 2,138,-1
 371 549 l 2,139,140
 380 557 380 557 384 563 c 256,141,142
 388 569 388 569 388 579 c 0,143,144
 388 590 388 590 384 600 c 0,145,146
 376 616 376 616 359 625 c 0,147,148
 342 635 342 635 320 642 c 0,149,150
 298 650 298 650 290 650 c 2,151,-1
 272 652 l 1,152,-1
 272 346 l 1,0,-1
272 -36 m 1,153,154
 278 -36 278 -36 285 -35 c 0,155,156
 291 -35 291 -35 305 -32 c 256,157,158
 319 -29 319 -29 336 -22 c 0,159,160
 353 -14 353 -14 372 3 c 0,161,162
 391 21 391 21 402 45 c 0,163,164
 414 70 414 70 415 88 c 256,165,166
 416 106 416 106 416 115 c 0,167,168
 416 147 416 147 408 172 c 0,169,170
 399 198 399 198 386 214 c 0,171,172
 374 230 374 230 350 246 c 256,173,174
 326 262 326 262 291 276 c 2,175,-1
 272 283 l 1,176,-1
 272 -36 l 1,153,154
238 357 m 1,177,-1
 238 652 l 1,178,179
 228 651 228 651 213 649 c 0,180,181
 196 647 196 647 176 636 c 0,182,183
 156 626 156 626 139 606 c 0,184,185
 124 586 124 586 114 561 c 0,186,187
 105 535 105 535 104 505 c 0,188,189
 104 476 104 476 114 452 c 256,190,191
 124 428 124 428 142 413 c 0,192,193
 158 396 158 396 178 384 c 0,194,195
 198 370 198 370 224 362 c 2,196,-1
 238 357 l 1,177,-1
272 346 m 1,197,198
 287 340 287 340 302 334 c 0,199,200
 318 328 318 328 338 319 c 256,201,202
 358 310 358 310 376 300 c 256,203,204
 394 290 394 290 415 271 c 256,205,206
 436 252 436 252 448 226 c 0,207,208
 459 201 459 201 462 182 c 0,209,210
 466 164 466 164 466 144 c 0,211,212
 466 125 466 125 464 106 c 0,213,214
 460 80 460 80 448 50 c 0,215,216
 436 21 436 21 415 2 c 0,217,218
 394 -18 394 -18 378 -28 c 0,219,220
 363 -37 363 -37 348 -43 c 0,221,222
 332 -49 332 -49 316 -53 c 0,223,224
 300 -58 300 -58 291 -58 c 2,225,-1
 273 -60 l 1,226,-1
 273 -142 l 1,227,-1
 238 -142 l 1,228,-1
 238 -60 l 1,229,230
 228 -60 228 -60 221 -60 c 0,231,232
 214 -59 214 -59 201 -56 c 0,233,234
 188 -54 188 -54 173 -50 c 256,235,236
 158 -46 158 -46 143 -40 c 256,237,238
 128 -34 128 -34 113 -24 c 256,239,240
 98 -14 98 -14 86 -2 c 0,241,242
 74 9 74 9 66 22 c 0,243,244
 58 34 58 34 54 46 c 256,245,246
 50 58 50 58 48 70 c 256,247,248
 46 82 46 82 46 98 c 256,249,250
 46 114 46 114 50 128 c 0,251,252
 54 139 54 139 62 148 c 0,253,254
 69 158 69 158 78 162 c 0,255,256
 88 166 88 166 97 166 c 0,257,258
 105 166 105 166 116 162 c 0,259,260
 126 158 126 158 132 152 c 256,261,262
 138 146 138 146 142 135 c 256,263,264
 146 124 146 124 146 112 c 0,265,266
 147 100 147 100 136 87 c 0,267,268
 130 81 130 81 119 74 c 0,269,270
 108 66 108 66 103 60 c 256,271,272
 98 54 98 54 96 44 c 0,273,274
 94 32 94 32 104 18 c 0,275,276
 112 5 112 5 125 -3 c 256,277,278
 138 -11 138 -11 150 -18 c 0,279,280
 162 -24 162 -24 174 -27 c 256,281,282
 186 -30 186 -30 201 -33 c 256,283,284
 216 -36 216 -36 224 -36 c 2,285,-1
 238 -36 l 1,286,-1
 238 292 l 1,287,288
 211 301 211 301 166 320 c 0,289,290
 122 338 122 338 92 382 c 0,291,292
 61 426 61 426 60 472 c 0,293,294
 58 518 58 518 71 552 c 0,295,296
 84 587 84 587 108 614 c 0,297,298
 132 640 132 640 156 652 c 0,299,300
 180 665 180 665 197 670 c 0,301,302
 214 674 214 674 224 676 c 2,303,-1
 238 677 l 1,304,-1
 238 758 l 1,305,-1
 273 758 l 1,306,-1
 272 677 l 1,307,308
 284 675 284 675 294 674 c 0,309,310
 303 673 303 673 318 670 c 0,311,312
 332 666 332 666 353 658 c 256,313,314
 374 650 374 650 396 632 c 256,315,316
 418 614 418 614 430 589 c 256,317,318
 442 564 442 564 442 538 c 256,319,320
 442 512 442 512 437 498 c 0,321,322
 430 480 430 480 417 471 c 256,323,324
 404 462 404 462 388 462 c 0,325,326
 378 462 378 462 370 465 c 0,327,328
 361 468 361 468 355 474 c 0,329,330
 349 481 349 481 346 490 c 0,331,332
 342 498 342 498 344 509 c 0,333,334
 344 517 344 517 348 525 c 256,335,336
 352 533 352 533 357 538 c 0,337,338
 362 542 362 542 371 550 c 0,339,340
 380 557 380 557 384 563 c 256,341,342
 388 569 388 569 388 579 c 0,343,344
 388 590 388 590 384 600 c 0,345,346
 376 616 376 616 359 626 c 0,347,348
 342 635 342 635 320 642 c 0,349,350
 300 650 300 650 290 650 c 2,351,-1
 272 652 l 1,352,-1
 272 346 l 1,197,198
272 -36 m 1,353,354
 278 -36 278 -36 284 -35 c 0,355,356
 291 -34 291 -34 304 -32 c 0,357,358
 318 -29 318 -29 336 -22 c 0,359,360
 353 -14 353 -14 372 3 c 256,361,362
 391 20 391 20 402 45 c 0,363,364
 414 70 414 70 415 88 c 256,365,366
 416 106 416 106 416 115 c 0,367,368
 416 147 416 147 408 172 c 0,369,370
 399 198 399 198 386 214 c 0,371,372
 374 230 374 230 350 246 c 256,373,374
 326 262 326 262 291 276 c 2,375,-1
 272 283 l 1,376,-1
 272 -36 l 1,353,354
238 357 m 1,377,-1
 238 652 l 1,378,379
 228 651 228 651 212 648 c 0,380,381
 197 646 197 646 176 636 c 0,382,383
 156 625 156 625 139 606 c 0,384,385
 122 586 122 586 113 561 c 256,386,387
 104 536 104 536 104 506 c 0,388,389
 104 475 104 475 114 452 c 0,390,391
 125 428 125 428 142 413 c 0,392,393
 158 398 158 398 178 385 c 256,394,395
 198 372 198 372 224 362 c 2,396,-1
 238 357 l 1,377,-1
EndSplineSet
EndChar
StartChar: percent
Encoding: 37 37 8
Width: 512
Flags: W
LayerCount: 2
Back
Fore
SplineSet
126 290 m 0,0,1
 112 290 112 290 99 292 c 0,2,3
 86 296 86 296 75 303 c 0,4,5
 63 312 63 312 54 324 c 256,6,7
 45 336 45 336 39 350 c 256,8,9
 33 364 33 364 29 382 c 256,10,11
 25 400 25 400 23 412 c 256,12,13
 21 424 21 424 20 442 c 0,14,15
 18 460 18 460 18 486 c 0,16,17
 18 510 18 510 20 533 c 0,18,19
 22 557 22 557 28 578 c 0,20,21
 33 600 33 600 42 620 c 0,22,23
 52 640 52 640 65 653 c 0,24,25
 79 666 79 666 94 671 c 0,26,27
 110 677 110 677 126 677 c 0,28,29
 140 677 140 677 156 672 c 0,30,31
 172 668 172 668 184 656 c 0,32,33
 197 644 197 644 207 628 c 256,34,35
 217 612 217 612 223 593 c 0,36,37
 229 573 229 573 231 553 c 0,38,39
 233 532 233 532 234 516 c 256,40,41
 235 500 235 500 235 485 c 0,42,43
 235 471 235 471 233 450 c 0,44,45
 232 429 232 429 230 414 c 0,46,47
 228 400 228 400 223 380 c 0,48,49
 218 361 218 361 210 345 c 256,50,51
 202 329 202 329 193 319 c 256,52,53
 184 309 184 309 172 302 c 256,54,55
 160 295 160 295 148 292 c 0,56,57
 136 290 136 290 126 290 c 0,0,1
127 655 m 0,58,59
 117 654 117 654 108 648 c 0,60,61
 100 642 100 642 93 628 c 0,62,63
 86 615 86 615 82 602 c 0,64,65
 78 588 78 588 76 572 c 0,66,67
 73 556 73 556 71 528 c 256,68,69
 69 500 69 500 69 486 c 0,70,71
 69 474 69 474 71 445 c 0,72,73
 74 417 74 417 74 405 c 0,74,75
 75 393 75 393 77 381 c 256,76,77
 79 369 79 369 83 357 c 256,78,79
 87 345 87 345 91 335 c 0,80,81
 95 326 95 326 105 318 c 0,82,83
 114 310 114 310 127 311 c 0,84,85
 137 311 137 311 144 315 c 256,86,87
 151 319 151 319 156 326 c 256,88,89
 161 333 161 333 166 344 c 0,90,91
 171 356 171 356 174 368 c 0,92,93
 178 380 178 380 180 401 c 256,94,95
 182 422 182 422 183 439 c 0,96,97
 185 455 185 455 185 485 c 0,98,99
 184 514 184 514 184 532 c 0,100,101
 184 549 184 549 182 567 c 256,102,103
 180 585 180 585 175 601 c 0,104,105
 171 617 171 617 164 631 c 0,106,107
 156 645 156 645 146 650 c 256,108,109
 136 655 136 655 127 655 c 0,58,59
452 684 m 1,110,-1
 480 667 l 1,111,-1
 59 -57 l 1,112,-1
 32 -42 l 1,113,-1
 452 684 l 1,110,-1
378 -66 m 0,114,115
 366 -66 366 -66 352 -63 c 256,116,117
 338 -60 338 -60 326 -52 c 256,118,119
 314 -44 314 -44 306 -33 c 0,120,121
 296 -21 296 -21 290 -6 c 0,122,123
 284 8 284 8 280 26 c 256,124,125
 276 44 276 44 274 54 c 256,126,127
 272 64 272 64 271 86 c 0,128,129
 269 110 269 110 269 130 c 0,130,131
 270 150 270 150 272 174 c 0,132,133
 274 200 274 200 278 221 c 0,134,135
 283 243 283 243 294 264 c 0,136,137
 304 284 304 284 317 297 c 0,138,139
 331 310 331 310 346 315 c 0,140,141
 362 321 362 321 378 321 c 0,142,143
 392 321 392 321 408 316 c 0,144,145
 424 312 424 312 436 300 c 256,146,147
 448 288 448 288 458 272 c 256,148,149
 468 256 468 256 474 238 c 0,150,151
 480 219 480 219 482 196 c 0,152,153
 485 174 485 174 486 160 c 0,154,155
 487 144 487 144 487 128 c 0,156,157
 487 110 487 110 485 94 c 0,158,159
 484 77 484 77 482 58 c 0,160,161
 480 40 480 40 475 24 c 0,162,163
 471 8 471 8 462 -10 c 256,164,165
 453 -28 453 -28 445 -37 c 0,166,167
 436 -46 436 -46 424 -54 c 256,168,169
 412 -62 412 -62 400 -64 c 0,170,171
 386 -66 386 -66 378 -66 c 0,114,115
376 296 m 0,172,173
 366 295 366 295 358 290 c 0,174,175
 350 284 350 284 344 271 c 0,176,177
 338 259 338 259 335 243 c 0,178,179
 331 228 331 228 328 214 c 0,180,181
 326 200 326 200 324 172 c 256,182,183
 322 144 322 144 322 128 c 0,184,185
 322 114 322 114 324 90 c 0,186,187
 325 66 325 66 326 52 c 0,188,189
 328 38 328 38 330 24 c 256,190,191
 332 10 332 10 335 0 c 256,192,193
 338 -10 338 -10 343 -20 c 0,194,195
 347 -31 347 -31 355 -38 c 0,196,197
 362 -44 362 -44 376 -44 c 0,198,199
 385 -44 385 -44 393 -40 c 256,200,201
 401 -36 401 -36 406 -30 c 256,202,203
 411 -24 411 -24 416 -12 c 0,204,205
 420 -1 420 -1 424 11 c 0,206,207
 427 23 427 23 429 44 c 0,208,209
 431 66 431 66 433 82 c 0,210,211
 434 98 434 98 434 128 c 256,212,213
 434 158 434 158 434 175 c 0,214,215
 433 191 433 191 431 210 c 0,216,217
 429 228 429 228 425 243 c 256,218,219
 421 258 421 258 414 272 c 0,220,221
 406 286 406 286 396 292 c 0,222,223
 386 296 386 296 376 296 c 0,172,173
126 290 m 0,224,225
 112 290 112 290 99 293 c 256,226,227
 86 296 86 296 75 304 c 0,228,229
 64 311 64 311 54 324 c 0,230,231
 45 336 45 336 38 350 c 0,232,233
 32 365 32 365 28 382 c 0,234,235
 25 400 25 400 24 412 c 0,236,237
 22 424 22 424 20 442 c 256,238,239
 18 460 18 460 18 486 c 0,240,241
 18 510 18 510 20 533 c 256,242,243
 22 556 22 556 27 578 c 256,244,245
 32 600 32 600 42 620 c 256,246,247
 52 640 52 640 65 653 c 256,248,249
 78 666 78 666 94 671 c 256,250,251
 110 676 110 676 126 677 c 0,252,253
 140 677 140 677 156 672 c 0,254,255
 171 668 171 668 184 656 c 256,256,257
 197 644 197 644 207 628 c 256,258,259
 217 612 217 612 222 593 c 0,260,261
 228 574 228 574 231 553 c 256,262,263
 234 532 234 532 234 516 c 0,264,265
 235 500 235 500 235 485 c 0,266,267
 235 471 235 471 234 450 c 0,268,269
 232 429 232 429 230 414 c 0,270,271
 228 400 228 400 223 381 c 256,272,273
 218 362 218 362 210 346 c 0,274,275
 202 329 202 329 193 319 c 256,276,277
 184 309 184 309 172 302 c 0,278,279
 161 295 161 295 148 292 c 0,280,281
 136 290 136 290 126 290 c 0,224,225
127 655 m 0,282,283
 117 654 117 654 108 648 c 0,284,285
 100 642 100 642 93 629 c 256,286,287
 86 616 86 616 82 602 c 256,288,289
 78 588 78 588 76 572 c 0,290,291
 73 556 73 556 70 528 c 0,292,293
 68 502 68 502 69 486 c 0,294,295
 69 474 69 474 70 446 c 0,296,297
 72 417 72 417 73 405 c 256,298,299
 74 393 74 393 76 382 c 0,300,301
 79 370 79 370 82 357 c 0,302,303
 86 344 86 344 91 335 c 256,304,305
 96 326 96 326 105 318 c 0,306,307
 114 311 114 311 127 311 c 0,308,309
 137 311 137 311 144 316 c 0,310,311
 151 320 151 320 156 326 c 0,312,313
 161 333 161 333 166 344 c 0,314,315
 171 356 171 356 174 368 c 256,316,317
 177 380 177 380 180 401 c 0,318,319
 182 422 182 422 183 439 c 256,320,321
 184 456 184 456 184 485 c 256,322,323
 184 514 184 514 184 532 c 0,324,325
 183 549 183 549 182 566 c 0,326,327
 180 584 180 584 176 601 c 0,328,329
 171 618 171 618 164 631 c 256,330,331
 157 644 157 644 146 650 c 0,332,333
 136 655 136 655 127 655 c 0,282,283
452 684 m 1,334,-1
 480 667 l 1,335,-1
 59 -57 l 1,336,-1
 32 -42 l 1,337,-1
 452 684 l 1,334,-1
378 -66 m 0,338,339
 366 -66 366 -66 352 -63 c 256,340,341
 338 -60 338 -60 326 -52 c 0,342,343
 314 -45 314 -45 306 -32 c 0,344,345
 297 -20 297 -20 290 -6 c 0,346,347
 284 9 284 9 280 26 c 0,348,349
 276 44 276 44 274 54 c 0,350,351
 273 64 273 64 272 86 c 0,352,353
 270 109 270 109 270 130 c 0,354,355
 270 150 270 150 272 174 c 0,356,357
 274 200 274 200 279 221 c 256,358,359
 284 242 284 242 294 263 c 256,360,361
 304 284 304 284 317 297 c 256,362,363
 330 310 330 310 346 315 c 256,364,365
 362 320 362 320 378 321 c 0,366,367
 392 321 392 321 407 316 c 0,368,369
 422 312 422 312 435 300 c 256,370,371
 448 288 448 288 458 272 c 256,372,373
 468 256 468 256 474 237 c 256,374,375
 480 218 480 218 483 196 c 256,376,377
 486 174 486 174 486 160 c 0,378,379
 487 144 487 144 487 128 c 0,380,381
 487 110 487 110 486 94 c 0,382,383
 484 77 484 77 482 58 c 256,384,385
 480 39 480 39 475 24 c 0,386,387
 470 8 470 8 462 -10 c 0,388,389
 453 -28 453 -28 444 -37 c 0,390,391
 436 -46 436 -46 424 -54 c 0,392,393
 412 -61 412 -61 399 -64 c 0,394,395
 386 -66 386 -66 378 -66 c 0,338,339
376 296 m 0,396,397
 366 295 366 295 358 290 c 0,398,399
 350 284 350 284 344 271 c 0,400,401
 339 258 339 258 334 243 c 0,402,403
 330 228 330 228 328 214 c 0,404,405
 326 199 326 199 324 172 c 0,406,407
 322 144 322 144 322 128 c 0,408,409
 322 113 322 113 324 90 c 0,410,411
 325 66 325 66 326 52 c 0,412,413
 328 38 328 38 330 24 c 256,414,415
 332 10 332 10 335 0 c 256,416,417
 338 -10 338 -10 343 -20 c 0,418,419
 348 -31 348 -31 356 -38 c 0,420,421
 362 -44 362 -44 376 -44 c 0,422,423
 385 -44 385 -44 393 -40 c 256,424,425
 401 -36 401 -36 406 -30 c 256,426,427
 411 -24 411 -24 416 -12 c 0,428,429
 420 -1 420 -1 423 10 c 0,430,431
 426 22 426 22 429 44 c 256,432,433
 432 66 432 66 433 82 c 256,434,435
 434 98 434 98 434 128 c 0,436,437
 434 157 434 157 434 175 c 0,438,439
 433 191 433 191 431 210 c 0,440,441
 429 228 429 228 425 243 c 256,442,443
 421 258 421 258 414 272 c 0,444,445
 406 286 406 286 396 291 c 256,446,447
 386 296 386 296 376 296 c 0,396,397
EndSplineSet
EndChar
StartChar: ampersand
Encoding: 38 38 9
Width: 512
Flags: W
LayerCount: 2
Back
Fore
SplineSet
489 96 m 1,0,1
 485 70 485 70 482 52 c 256,2,3
 479 34 479 34 471 10 c 256,4,5
 463 -14 463 -14 452 -27 c 0,6,7
 442 -41 442 -41 424 -50 c 256,8,9
 406 -59 406 -59 390 -59 c 0,10,11
 372 -59 372 -59 354 -50 c 0,12,13
 338 -41 338 -41 326 -28 c 0,14,15
 314 -16 314 -16 308 -6 c 2,16,-1
 298 8 l 1,17,18
 290 -2 290 -2 282 -10 c 0,19,20
 276 -17 276 -17 260 -29 c 256,21,22
 244 -41 244 -41 223 -52 c 0,23,24
 202 -62 202 -62 170 -62 c 0,25,26
 152 -62 152 -62 135 -58 c 0,27,28
 118 -52 118 -52 99 -42 c 0,29,30
 79 -32 79 -32 61 -4 c 256,31,32
 43 24 43 24 37 44 c 0,33,34
 31 66 31 66 28 90 c 0,35,36
 26 114 26 114 26 136 c 0,37,38
 26 172 26 172 35 202 c 0,39,40
 43 232 43 232 54 251 c 0,41,42
 64 270 64 270 77 286 c 256,43,44
 90 302 90 302 106 318 c 256,45,46
 122 334 122 334 132 342 c 2,47,-1
 146 353 l 1,48,49
 141 367 141 367 137 379 c 0,50,51
 132 391 132 391 126 418 c 0,52,53
 120 444 120 444 116 464 c 256,54,55
 112 484 112 484 112 500 c 256,56,57
 112 516 112 516 114 536 c 0,58,59
 116 554 116 554 120 576 c 0,60,61
 125 598 125 598 137 618 c 0,62,63
 148 638 148 638 165 652 c 0,64,65
 182 668 182 668 196 673 c 0,66,67
 210 676 210 676 224 678 c 0,68,69
 252 679 252 679 274 670 c 0,70,71
 296 660 296 660 312 644 c 256,72,73
 328 628 328 628 336 609 c 0,74,75
 344 589 344 589 344 562 c 0,76,77
 344 534 344 534 338 508 c 0,78,79
 330 480 330 480 313 454 c 0,80,81
 297 428 297 428 272 408 c 0,82,83
 248 388 248 388 234 378 c 2,84,-1
 205 358 l 1,85,86
 213 336 213 336 224 304 c 0,87,88
 236 272 236 272 261 214 c 256,89,90
 286 156 286 156 306 120 c 2,91,-1
 324 86 l 1,92,93
 332 102 332 102 336 114 c 0,94,95
 341 125 341 125 348 141 c 0,96,97
 354 157 354 157 364 186 c 0,98,99
 373 214 373 214 375 227 c 0,100,101
 378 240 378 240 380 260 c 256,102,103
 382 280 382 280 378 291 c 0,104,105
 374 300 374 300 368 306 c 256,106,107
 362 312 362 312 350 316 c 0,108,109
 340 320 340 320 324 320 c 2,110,-1
 311 320 l 1,111,-1
 311 342 l 1,112,-1
 478 342 l 1,113,-1
 478 320 l 1,114,-1
 468 320 l 2,115,116
 450 320 450 320 440 311 c 256,117,118
 430 302 430 302 424 290 c 256,119,120
 418 278 418 278 412 258 c 2,121,-1
 396 210 l 2,122,123
 390 192 390 192 383 171 c 0,124,125
 375 151 375 151 367 129 c 0,126,127
 358 106 358 106 351 92 c 2,128,-1
 336 61 l 1,129,130
 342 51 342 51 348 42 c 256,131,132
 354 33 354 33 365 20 c 0,133,134
 377 8 377 8 387 2 c 0,135,136
 397 -3 397 -3 406 -3 c 0,137,138
 414 -3 414 -3 423 1 c 0,139,140
 431 5 431 5 439 15 c 0,141,142
 447 26 447 26 452 43 c 0,143,144
 458 60 458 60 462 78 c 2,145,-1
 468 98 l 1,146,-1
 489 96 l 1,0,1
285 29 m 1,147,-1
 258 82 l 2,148,149
 248 103 248 103 230 141 c 2,150,-1
 199 214 l 2,151,152
 185 250 185 250 174 278 c 2,153,-1
 156 326 l 1,154,155
 144 316 144 316 130 300 c 0,156,157
 116 286 116 286 104 259 c 0,158,159
 93 232 93 232 88 203 c 256,160,161
 83 174 83 174 83 150 c 256,162,163
 83 126 83 126 86 102 c 0,164,165
 89 76 89 76 96 55 c 0,166,167
 102 34 102 34 118 15 c 0,168,169
 133 -4 133 -4 153 -14 c 0,170,171
 172 -24 172 -24 198 -22 c 0,172,173
 218 -22 218 -22 229 -16 c 256,174,175
 240 -10 240 -10 255 0 c 0,176,177
 270 12 270 12 274 17 c 2,178,-1
 285 29 l 1,147,-1
196 387 m 1,179,-1
 217 403 l 2,180,181
 229 412 229 412 242 424 c 0,182,183
 254 435 254 435 267 454 c 0,184,185
 281 474 281 474 287 494 c 0,186,187
 293 515 293 515 295 547 c 0,188,189
 296 580 296 580 292 600 c 0,190,191
 286 626 286 626 269 640 c 0,192,193
 254 654 254 654 230 653 c 0,194,195
 200 651 200 651 185 628 c 0,196,197
 170 606 170 606 166 582 c 0,198,199
 162 560 162 560 164 540 c 0,200,201
 164 528 164 528 166 506 c 0,202,203
 169 486 169 486 173 467 c 256,204,205
 177 448 177 448 186 417 c 2,206,-1
 196 387 l 1,179,-1
489 96 m 1,207,208
 485 70 485 70 482 52 c 256,209,210
 479 34 479 34 470 10 c 0,211,212
 462 -14 462 -14 452 -27 c 256,213,214
 442 -40 442 -40 424 -50 c 0,215,216
 406 -59 406 -59 390 -59 c 0,217,218
 372 -59 372 -59 355 -50 c 256,219,220
 338 -41 338 -41 326 -28 c 0,221,222
 314 -16 314 -16 308 -6 c 2,223,-1
 298 8 l 1,224,225
 290 -2 290 -2 283 -9 c 256,226,227
 276 -16 276 -16 260 -29 c 256,228,229
 244 -42 244 -42 223 -52 c 256,230,231
 202 -62 202 -62 170 -62 c 0,232,233
 152 -62 152 -62 135 -58 c 0,234,235
 118 -53 118 -53 99 -42 c 0,236,237
 80 -32 80 -32 62 -4 c 0,238,239
 43 23 43 23 36 44 c 0,240,241
 30 66 30 66 28 90 c 0,242,243
 26 115 26 115 26 136 c 0,244,245
 26 172 26 172 35 202 c 256,246,247
 44 232 44 232 54 251 c 256,248,249
 64 270 64 270 77 286 c 256,250,251
 90 302 90 302 106 318 c 256,252,253
 122 334 122 334 132 342 c 2,254,-1
 146 353 l 1,255,256
 141 367 141 367 137 379 c 256,257,258
 133 391 133 391 126 418 c 0,259,260
 120 444 120 444 116 464 c 0,261,262
 113 484 113 484 112 500 c 0,263,264
 112 516 112 516 114 536 c 0,265,266
 116 554 116 554 121 576 c 256,267,268
 126 598 126 598 137 618 c 0,269,270
 148 637 148 637 165 652 c 0,271,272
 182 668 182 668 196 673 c 256,273,274
 210 678 210 678 224 678 c 0,275,276
 252 679 252 679 274 670 c 0,277,278
 297 660 297 660 312 644 c 0,279,280
 328 628 328 628 336 609 c 0,281,282
 343 590 343 590 344 562 c 0,283,284
 344 534 344 534 338 508 c 0,285,286
 330 480 330 480 313 454 c 0,287,288
 296 429 296 429 272 408 c 0,289,290
 248 388 248 388 234 378 c 2,291,-1
 205 358 l 1,292,293
 213 336 213 336 224 304 c 0,294,295
 236 272 236 272 261 214 c 256,296,297
 286 156 286 156 306 120 c 2,298,-1
 324 86 l 1,299,300
 332 102 332 102 337 113 c 256,301,302
 342 124 342 124 348 141 c 256,303,304
 354 158 354 158 364 186 c 0,305,306
 373 214 373 214 376 227 c 0,307,308
 378 240 378 240 380 260 c 0,309,310
 382 281 382 281 378 291 c 0,311,312
 374 300 374 300 368 306 c 256,313,314
 362 312 362 312 351 316 c 256,315,316
 340 320 340 320 324 320 c 2,317,-1
 311 320 l 1,318,-1
 311 342 l 1,319,-1
 478 342 l 1,320,-1
 478 320 l 1,321,-1
 468 320 l 2,322,323
 450 320 450 320 440 311 c 256,324,325
 430 302 430 302 424 290 c 256,326,327
 418 278 418 278 412 258 c 2,328,-1
 396 210 l 2,329,330
 390 192 390 192 383 171 c 256,331,332
 376 150 376 150 367 129 c 256,333,334
 358 108 358 108 351 92 c 2,335,-1
 336 61 l 1,336,337
 342 51 342 51 348 42 c 256,338,339
 354 33 354 33 365 20 c 0,340,341
 376 8 376 8 387 2 c 0,342,343
 398 -3 398 -3 406 -2 c 0,344,345
 414 -2 414 -2 423 1 c 256,346,347
 432 4 432 4 440 15 c 0,348,349
 447 26 447 26 452 43 c 0,350,351
 458 60 458 60 462 78 c 2,352,-1
 468 98 l 1,353,-1
 489 96 l 1,207,208
285 29 m 1,354,355
 268 61 268 61 258 82 c 0,356,357
 247 102 247 102 230 140 c 0,358,359
 213 179 213 179 198 214 c 0,360,361
 184 250 184 250 174 278 c 2,362,-1
 156 326 l 1,363,364
 144 316 144 316 130 301 c 256,365,366
 116 286 116 286 104 259 c 0,367,368
 93 232 93 232 88 203 c 256,369,370
 83 174 83 174 82 150 c 0,371,372
 82 126 82 126 86 102 c 0,373,374
 89 76 89 76 96 55 c 0,375,376
 102 34 102 34 117 15 c 256,377,378
 132 -4 132 -4 153 -14 c 256,379,380
 174 -24 174 -24 198 -22 c 0,381,382
 218 -22 218 -22 229 -16 c 0,383,384
 240 -11 240 -11 255 0 c 0,385,386
 270 12 270 12 274 17 c 2,387,-1
 285 29 l 1,354,355
196 387 m 1,388,389
 206 395 206 395 217 404 c 0,390,391
 228 412 228 412 241 424 c 0,392,393
 254 435 254 435 267 454 c 0,394,395
 280 474 280 474 287 494 c 0,396,397
 294 515 294 515 295 548 c 0,398,399
 296 580 296 580 292 600 c 0,400,401
 286 626 286 626 269 640 c 256,402,403
 252 654 252 654 230 653 c 0,404,405
 200 651 200 651 185 628 c 0,406,407
 170 606 170 606 166 582 c 0,408,409
 162 560 162 560 164 540 c 0,410,411
 164 528 164 528 166 507 c 0,412,413
 169 486 169 486 173 467 c 256,414,415
 177 448 177 448 182 432 c 2,416,-1
 196 387 l 1,388,389
EndSplineSet
EndChar
StartChar: quotesingle
Encoding: 39 39 10
Width: 512
Flags: W
LayerCount: 2
Back
Fore
SplineSet
220 717 m 2,0,-1
 41 534 l 2,1,2
 33 526 33 526 25 532 c 0,3,4
 16 538 16 538 22 548 c 2,5,-1
 148 770 l 2,6,7
 161 793 161 793 182 801 c 0,8,9
 202 808 202 808 222 794 c 0,10,11
 241 780 241 780 239 758 c 0,12,13
 238 735 238 735 220 717 c 2,0,-1
220 717 m 2,14,-1
 41 534 l 2,15,16
 33 526 33 526 26 532 c 0,17,18
 18 538 18 538 22 548 c 2,19,-1
 148 770 l 2,20,21
 161 793 161 793 182 801 c 0,22,23
 202 809 202 809 221 794 c 0,24,25
 240 780 240 780 239 758 c 0,26,27
 238 735 238 735 220 717 c 2,14,-1
EndSplineSet
EndChar
StartChar: parenleft
Encoding: 40 40 11
Width: 512
Flags: W
LayerCount: 2
Back
Fore
SplineSet
478 780 m 1,0,-1
 482 768 l 1,1,-1
 452 745 l 2,2,3
 438 734 438 734 420 718 c 0,4,5
 401 702 401 702 375 676 c 256,6,7
 349 650 349 650 330 625 c 0,8,9
 312 601 312 601 298 578 c 0,10,11
 284 556 284 556 274 532 c 256,12,13
 264 508 264 508 254 480 c 0,14,15
 245 452 245 452 239 423 c 0,16,17
 233 393 233 393 230 367 c 0,18,19
 228 341 228 341 228 304 c 256,20,21
 228 267 228 267 232 228 c 0,22,23
 236 188 236 188 246 152 c 0,24,25
 255 116 255 116 272 80 c 0,26,27
 290 44 290 44 308 17 c 256,28,29
 326 -10 326 -10 352 -38 c 0,30,31
 377 -66 377 -66 397 -84 c 0,32,33
 416 -103 416 -103 436 -121 c 0,34,35
 456 -138 456 -138 469 -147 c 2,36,-1
 483 -158 l 1,37,-1
 477 -168 l 1,38,39
 461 -160 461 -160 447 -153 c 0,40,41
 434 -145 434 -145 410 -130 c 0,42,43
 386 -114 386 -114 359 -93 c 0,44,45
 332 -71 332 -71 307 -44 c 0,46,47
 282 -16 282 -16 262 12 c 0,48,49
 242 42 242 42 225 74 c 256,50,51
 208 106 208 106 199 133 c 0,52,53
 191 161 191 161 186 184 c 0,54,55
 181 208 181 208 178 239 c 0,56,57
 174 270 174 270 174 302 c 256,58,59
 174 334 174 334 176 363 c 256,60,61
 178 392 178 392 184 422 c 256,62,63
 190 452 190 452 202 486 c 256,64,65
 214 520 214 520 233 554 c 0,66,67
 250 588 250 588 270 613 c 0,68,69
 290 637 290 637 308 656 c 0,70,71
 326 674 326 674 346 691 c 256,72,73
 366 708 366 708 380 719 c 2,74,-1
 424 748 l 2,75,76
 452 768 452 768 465 774 c 2,77,-1
 478 780 l 1,0,-1
478 780 m 1,78,-1
 482 768 l 1,79,80
 466 756 466 756 452 745 c 256,81,82
 438 734 438 734 420 718 c 0,83,84
 401 702 401 702 374 676 c 0,85,86
 348 650 348 650 330 626 c 0,87,88
 312 601 312 601 298 578 c 0,89,90
 284 556 284 556 274 532 c 256,91,92
 264 508 264 508 254 480 c 0,93,94
 245 452 245 452 238 423 c 0,95,96
 232 394 232 394 230 368 c 0,97,98
 228 341 228 341 228 304 c 256,99,100
 228 267 228 267 232 228 c 0,101,102
 236 188 236 188 246 152 c 0,103,104
 255 116 255 116 272 80 c 0,105,106
 290 44 290 44 309 17 c 256,107,108
 328 -10 328 -10 353 -38 c 256,109,110
 378 -66 378 -66 397 -85 c 256,111,112
 416 -104 416 -104 436 -121 c 256,113,114
 456 -138 456 -138 469 -147 c 2,115,-1
 483 -158 l 1,116,-1
 477 -168 l 1,117,118
 461 -160 461 -160 448 -153 c 0,119,120
 434 -146 434 -146 410 -130 c 256,121,122
 386 -114 386 -114 359 -93 c 256,123,124
 332 -72 332 -72 307 -44 c 256,125,126
 282 -16 282 -16 262 12 c 0,127,128
 242 41 242 41 225 74 c 0,129,130
 208 106 208 106 199 133 c 256,131,132
 190 160 190 160 186 184 c 0,133,134
 181 208 181 208 178 239 c 0,135,136
 174 270 174 270 174 302 c 256,137,138
 174 334 174 334 176 363 c 256,139,140
 178 392 178 392 184 422 c 256,141,142
 190 452 190 452 202 486 c 0,143,144
 214 521 214 521 232 554 c 0,145,146
 251 588 251 588 270 613 c 0,147,148
 290 638 290 638 308 656 c 256,149,150
 326 674 326 674 346 691 c 0,151,152
 365 708 365 708 380 719 c 0,153,154
 396 730 396 730 424 748 c 0,155,156
 452 768 452 768 465 774 c 2,157,-1
 478 780 l 1,78,-1
EndSplineSet
EndChar
StartChar: parenright
Encoding: 41 41 12
Width: 512
Flags: W
LayerCount: 2
Back
Fore
SplineSet
34 778 m 1,0,-1
 52 768 l 2,1,2
 62 763 62 763 89 745 c 2,3,-1
 131 717 l 2,4,5
 147 706 147 706 166 689 c 0,6,7
 186 673 186 673 204 654 c 0,8,9
 222 636 222 636 241 611 c 0,10,11
 261 586 261 586 279 552 c 256,12,13
 297 518 297 518 309 484 c 256,14,15
 321 450 321 450 327 420 c 256,16,17
 333 390 333 390 335 361 c 0,18,19
 337 333 337 333 337 303 c 0,20,21
 338 274 338 274 334 238 c 0,22,23
 331 212 331 212 326 188 c 0,24,25
 320 164 320 164 312 138 c 256,26,27
 304 112 304 112 286 78 c 256,28,29
 268 44 268 44 250 17 c 0,30,31
 231 -12 231 -12 204 -40 c 0,32,33
 178 -69 178 -69 152 -89 c 0,34,35
 126 -110 126 -110 100 -128 c 256,36,37
 74 -146 74 -146 60 -152 c 2,38,-1
 35 -164 l 1,39,-1
 29 -154 l 1,40,-1
 48 -139 l 2,41,42
 58 -131 58 -131 76 -116 c 0,43,44
 93 -102 93 -102 115 -80 c 256,45,46
 137 -58 137 -58 160 -33 c 0,47,48
 182 -7 182 -7 202 22 c 0,49,50
 222 50 222 50 239 84 c 0,51,52
 256 119 256 119 266 156 c 256,53,54
 276 193 276 193 279 232 c 0,55,56
 283 272 283 272 283 306 c 256,57,58
 283 340 283 340 281 366 c 256,59,60
 279 392 279 392 273 421 c 256,61,62
 267 450 267 450 257 478 c 0,63,64
 248 506 248 506 238 530 c 256,65,66
 228 554 228 554 214 576 c 0,67,68
 200 599 200 599 182 623 c 256,69,70
 164 647 164 647 137 674 c 0,71,72
 111 700 111 700 90 717 c 2,73,-1
 54 748 l 1,74,-1
 30 766 l 1,75,-1
 34 778 l 1,0,-1
34 778 m 1,76,77
 43 773 43 773 52 768 c 0,78,79
 62 763 62 763 89 746 c 0,80,81
 116 728 116 728 131 717 c 256,82,83
 146 706 146 706 166 689 c 256,84,85
 186 672 186 672 204 654 c 256,86,87
 222 636 222 636 241 611 c 256,88,89
 260 586 260 586 278 552 c 0,90,91
 297 519 297 519 310 484 c 0,92,93
 322 450 322 450 328 420 c 0,94,95
 333 390 333 390 335 361 c 256,96,97
 337 332 337 332 338 303 c 0,98,99
 338 274 338 274 334 238 c 0,100,101
 331 212 331 212 326 188 c 256,102,103
 321 164 321 164 312 138 c 0,104,105
 304 112 304 112 286 78 c 256,106,107
 268 44 268 44 249 17 c 256,108,109
 230 -10 230 -10 204 -39 c 256,110,111
 178 -68 178 -68 152 -89 c 256,112,113
 126 -110 126 -110 100 -128 c 256,114,115
 74 -146 74 -146 60 -152 c 2,116,-1
 35 -164 l 1,117,-1
 29 -154 l 1,118,119
 38 -148 38 -148 48 -140 c 0,120,121
 59 -131 59 -131 76 -116 c 0,122,123
 93 -102 93 -102 115 -80 c 256,124,125
 137 -58 137 -58 160 -33 c 0,126,127
 182 -8 182 -8 202 21 c 256,128,129
 222 50 222 50 239 85 c 256,130,131
 256 120 256 120 266 156 c 0,132,133
 275 193 275 193 279 232 c 256,134,135
 283 271 283 271 284 306 c 0,136,137
 284 340 284 340 282 366 c 0,138,139
 279 392 279 392 272 421 c 0,140,141
 266 450 266 450 257 478 c 256,142,143
 248 506 248 506 238 530 c 0,144,145
 227 554 227 554 214 576 c 0,146,147
 200 599 200 599 182 624 c 0,148,149
 163 648 163 648 136 674 c 0,150,151
 110 700 110 700 90 717 c 256,152,153
 70 734 70 734 54 748 c 2,154,-1
 30 766 l 1,155,-1
 34 778 l 1,76,77
EndSplineSet
EndChar
StartChar: asterisk
Encoding: 42 42 13
Width: 512
Flags: W
LayerCount: 2
Back
Fore
SplineSet
244 329 m 1,0,-1
 214 579 l 2,1,2
 210 605 210 605 220 620 c 0,3,4
 230 636 230 636 254 636 c 256,5,6
 278 636 278 636 290 620 c 256,7,8
 302 604 302 604 298 579 c 2,9,-1
 267 329 l 1,10,-1
 402 471 l 2,11,12
 416 485 416 485 430 487 c 0,13,14
 444 488 444 488 456 481 c 256,15,16
 468 474 468 474 471 464 c 256,17,18
 474 454 474 454 474 445 c 0,19,20
 474 431 474 431 468 421 c 256,21,22
 462 411 462 411 448 403 c 2,23,-1
 278 304 l 1,24,-1
 434 218 l 2,25,26
 456 206 456 206 465 194 c 256,27,28
 474 182 474 182 473 165 c 0,29,30
 471 148 471 148 459 138 c 0,31,32
 446 128 446 128 431 131 c 0,33,34
 416 132 416 132 392 158 c 2,35,-1
 267 284 l 1,36,-1
 298 32 l 2,37,38
 301 8 301 8 290 -7 c 0,39,40
 279 -21 279 -21 255 -21 c 256,41,42
 231 -21 231 -21 221 -7 c 0,43,44
 212 8 212 8 214 32 c 2,45,-1
 244 284 l 1,46,-1
 120 158 l 2,47,48
 96 133 96 133 81 131 c 0,49,50
 65 128 65 128 53 138 c 0,51,52
 40 148 40 148 39 165 c 0,53,54
 36 183 36 183 46 194 c 0,55,56
 55 206 55 206 78 218 c 2,57,-1
 234 304 l 1,58,-1
 64 403 l 2,59,60
 48 411 48 411 43 421 c 256,61,62
 38 431 38 431 38 445 c 0,63,64
 38 453 38 453 41 464 c 0,65,66
 45 474 45 474 56 481 c 0,67,68
 68 488 68 488 82 487 c 0,69,70
 96 485 96 485 110 471 c 2,71,-1
 244 329 l 1,0,-1
244 329 m 1,72,-1
 214 579 l 2,73,74
 210 605 210 605 220 620 c 0,75,76
 230 636 230 636 254 636 c 256,77,78
 278 636 278 636 290 620 c 256,79,80
 302 604 302 604 298 579 c 2,81,-1
 267 329 l 1,82,-1
 402 471 l 2,83,84
 416 485 416 485 430 486 c 0,85,86
 444 488 444 488 456 481 c 0,87,88
 467 474 467 474 470 464 c 0,89,90
 474 453 474 453 474 445 c 0,91,92
 474 431 474 431 468 421 c 256,93,94
 462 411 462 411 448 403 c 2,95,-1
 278 304 l 1,96,-1
 434 218 l 2,97,98
 456 206 456 206 465 194 c 256,99,100
 474 182 474 182 473 165 c 256,101,102
 472 148 472 148 459 138 c 0,103,104
 446 129 446 129 431 132 c 0,105,106
 416 134 416 134 392 158 c 2,107,-1
 267 284 l 1,108,-1
 298 32 l 2,109,110
 301 8 301 8 290 -6 c 0,111,112
 279 -21 279 -21 256 -20 c 0,113,114
 232 -20 232 -20 221 -6 c 256,115,116
 210 8 210 8 214 32 c 2,117,-1
 244 284 l 1,118,-1
 120 158 l 2,119,120
 96 133 96 133 81 131 c 256,121,122
 66 129 66 129 53 138 c 0,123,124
 40 148 40 148 39 165 c 256,125,126
 38 182 38 182 47 194 c 256,127,128
 56 206 56 206 78 218 c 2,129,-1
 234 304 l 1,130,-1
 64 403 l 2,131,132
 48 411 48 411 43 420 c 0,133,134
 38 430 38 430 38 445 c 0,135,136
 38 453 38 453 41 464 c 0,137,138
 44 474 44 474 56 481 c 256,139,140
 68 488 68 488 82 487 c 256,141,142
 96 486 96 486 110 471 c 2,143,-1
 244 329 l 1,72,-1
EndSplineSet
EndChar
StartChar: plus
Encoding: 43 43 14
Width: 512
Flags: W
LayerCount: 2
Back
Fore
SplineSet
237 648 m 1,0,-1
 276 648 l 1,1,-1
 276 323 l 1,2,-1
 466 323 l 1,3,-1
 466 285 l 1,4,-1
 276 285 l 1,5,-1
 276 -36 l 1,6,-1
 237 -36 l 1,7,-1
 237 285 l 1,8,-1
 45 285 l 1,9,-1
 45 323 l 1,10,-1
 237 323 l 1,11,-1
 237 648 l 1,0,-1
237 648 m 1,12,-1
 276 648 l 1,13,-1
 276 323 l 1,14,-1
 466 323 l 1,15,-1
 466 285 l 1,16,-1
 276 285 l 1,17,-1
 276 -36 l 1,18,-1
 237 -36 l 1,19,-1
 237 285 l 1,20,-1
 45 285 l 1,21,-1
 45 323 l 1,22,-1
 237 323 l 1,23,-1
 237 648 l 1,12,-1
EndSplineSet
EndChar
StartChar: comma
Encoding: 44 44 15
Width: 512
Flags: W
LayerCount: 2
Back
Fore
SplineSet
68 -196 m 1,0,-1
 54 -180 l 1,1,-1
 75 -156 l 2,2,3
 85 -146 85 -146 95 -130 c 0,4,5
 105 -115 105 -115 111 -102 c 0,6,7
 117 -88 117 -88 117 -76 c 0,8,9
 117 -67 117 -67 113 -62 c 0,10,11
 110 -57 110 -57 100 -53 c 2,12,-1
 76 -47 l 2,13,14
 58 -41 58 -41 50 -30 c 0,15,16
 42 -18 42 -18 42 0 c 256,17,18
 42 18 42 18 49 32 c 0,19,20
 57 48 57 48 71 55 c 0,21,22
 84 62 84 62 98 63 c 0,23,24
 114 64 114 64 128 58 c 256,25,26
 142 52 142 52 154 40 c 0,27,28
 165 28 165 28 171 13 c 0,29,30
 176 -2 176 -2 176 -26 c 0,31,32
 176 -39 176 -39 173 -56 c 0,33,34
 169 -74 169 -74 163 -90 c 0,35,36
 156 -106 156 -106 143 -124 c 256,37,38
 130 -142 130 -142 114 -158 c 256,39,40
 98 -174 98 -174 92 -179 c 2,41,-1
 68 -196 l 1,0,-1
68 -196 m 1,42,-1
 54 -180 l 1,43,44
 66 -168 66 -168 75 -157 c 256,45,46
 84 -146 84 -146 95 -131 c 256,47,48
 106 -116 106 -116 112 -102 c 0,49,50
 117 -88 117 -88 117 -76 c 0,51,52
 117 -67 117 -67 114 -62 c 0,53,54
 110 -57 110 -57 100 -53 c 2,55,-1
 76 -47 l 2,56,57
 58 -41 58 -41 50 -30 c 0,58,59
 42 -18 42 -18 42 0 c 256,60,61
 42 18 42 18 49 32 c 0,62,63
 57 48 57 48 70 55 c 0,64,65
 84 62 84 62 98 63 c 0,66,67
 114 64 114 64 128 58 c 256,68,69
 142 52 142 52 154 40 c 0,70,71
 165 28 165 28 171 13 c 0,72,73
 176 -2 176 -2 176 -26 c 0,74,75
 176 -39 176 -39 173 -56 c 0,76,77
 170 -74 170 -74 163 -90 c 256,78,79
 156 -106 156 -106 143 -124 c 256,80,81
 130 -142 130 -142 114 -158 c 256,82,83
 98 -174 98 -174 92 -179 c 2,84,-1
 68 -196 l 1,42,-1
EndSplineSet
EndChar
StartChar: hyphen
Encoding: 45 45 16
Width: 512
Flags: W
LayerCount: 2
Back
Fore
SplineSet
47 322 m 1,0,-1
 466 322 l 1,1,-1
 466 287 l 1,2,-1
 47 287 l 1,3,-1
 47 322 l 1,0,-1
47 322 m 1,4,-1
 466 322 l 1,5,-1
 466 287 l 1,6,-1
 47 287 l 1,7,-1
 47 322 l 1,4,-1
EndSplineSet
EndChar
StartChar: period
Encoding: 46 46 17
Width: 512
Flags: W
LayerCount: 2
Back
Fore
SplineSet
107 69 m 0,0,1
 123 69 123 69 140 60 c 0,2,3
 156 52 156 52 175 1 c 1,4,5
 175 -17 175 -17 166 -33 c 0,6,7
 156 -50 156 -50 141 -58 c 0,8,9
 125 -66 125 -66 107 -66 c 256,10,11
 89 -66 89 -66 73 -57 c 256,12,13
 57 -48 57 -48 48 -32 c 0,14,15
 39 -17 39 -17 39 1 c 256,16,17
 39 19 39 19 48 35 c 0,18,19
 58 51 58 51 74 60 c 256,20,21
 90 69 90 69 107 69 c 0,0,1
107 69 m 0,22,23
 123 69 123 69 140 60 c 0,24,25
 156 52 156 52 175 1 c 1,26,27
 175 -17 175 -17 166 -32 c 0,28,29
 156 -48 156 -48 140 -57 c 0,30,31
 125 -66 125 -66 107 -66 c 256,32,33
 89 -66 89 -66 73 -57 c 256,34,35
 57 -48 57 -48 48 -32 c 0,36,37
 39 -17 39 -17 39 1 c 256,38,39
 39 19 39 19 48 35 c 0,40,41
 58 51 58 51 74 60 c 256,42,43
 90 69 90 69 107 69 c 0,22,23
EndSplineSet
EndChar
StartChar: zero
Encoding: 48 48 19
Width: 512
Flags: W
LayerCount: 2
Back
Fore
SplineSet
255 -65 m 0,0,1
 245 -65 245 -65 232 -62 c 0,2,3
 218 -60 218 -60 198 -52 c 256,4,5
 178 -44 178 -44 160 -26 c 0,6,7
 142 -9 142 -9 126 22 c 0,8,9
 110 52 110 52 101 82 c 0,10,11
 91 112 91 112 86 150 c 256,12,13
 81 188 81 188 78 224 c 0,14,15
 76 260 76 260 76 304 c 0,16,17
 76 347 76 347 79 391 c 0,18,19
 81 434 81 434 86 468 c 0,20,21
 91 503 91 503 101 537 c 0,22,23
 111 572 111 572 127 598 c 0,24,25
 142 624 142 624 163 644 c 256,26,27
 184 664 184 664 207 672 c 0,28,29
 230 681 230 681 254 682 c 0,30,31
 282 682 282 682 303 672 c 0,32,33
 323 662 323 662 343 647 c 0,34,35
 363 631 363 631 378 607 c 0,36,37
 394 584 394 584 403 560 c 256,38,39
 412 536 412 536 420 507 c 0,40,41
 428 477 428 477 431 447 c 0,42,43
 435 417 435 417 438 377 c 0,44,45
 440 336 440 336 440 302 c 256,46,47
 440 268 440 268 438 239 c 0,48,49
 436 209 436 209 430 163 c 256,50,51
 424 117 424 117 412 75 c 0,52,53
 398 33 398 33 380 8 c 256,54,55
 362 -17 362 -17 345 -32 c 0,56,57
 327 -47 327 -47 311 -54 c 0,58,59
 296 -61 296 -61 280 -63 c 256,60,61
 264 -65 264 -65 255 -65 c 0,0,1
254 648 m 0,62,63
 226 646 226 646 207 632 c 0,64,65
 186 618 186 618 174 588 c 256,66,67
 162 558 162 558 156 521 c 0,68,69
 150 485 150 485 147 454 c 0,70,71
 145 424 145 424 143 372 c 0,72,73
 142 321 142 321 142 305 c 0,74,75
 142 300 142 300 143 258 c 2,76,-1
 145 196 l 2,77,78
 147 162 147 162 153 115 c 0,79,80
 159 69 159 69 173 35 c 0,81,82
 187 2 187 2 203 -10 c 256,83,84
 219 -22 219 -22 230 -27 c 0,85,86
 242 -31 242 -31 256 -31 c 0,87,88
 268 -31 268 -31 281 -27 c 256,89,90
 294 -23 294 -23 311 -10 c 0,91,92
 327 2 327 2 339 32 c 0,93,94
 350 61 350 61 358 110 c 0,95,96
 366 160 366 160 368 183 c 0,97,98
 369 206 369 206 371 250 c 256,99,100
 373 294 373 294 373 312 c 256,101,102
 373 330 373 330 372 371 c 0,103,104
 370 423 370 423 367 457 c 0,105,106
 363 490 363 490 357 523 c 256,107,108
 351 556 351 556 339 582 c 256,109,110
 327 608 327 608 314 622 c 0,111,112
 300 636 300 636 284 643 c 0,113,114
 268 648 268 648 254 648 c 0,62,63
255 -65 m 0,115,116
 245 -65 245 -65 232 -62 c 0,117,118
 218 -60 218 -60 198 -52 c 256,119,120
 178 -44 178 -44 160 -26 c 0,121,122
 142 -9 142 -9 126 22 c 256,123,124
 110 53 110 53 101 82 c 0,125,126
 92 112 92 112 86 150 c 0,127,128
 81 188 81 188 78 224 c 0,129,130
 76 260 76 260 76 303 c 256,131,132
 76 346 76 346 79 391 c 0,133,134
 81 433 81 433 86 468 c 0,135,136
 91 502 91 502 102 537 c 0,137,138
 112 572 112 572 127 598 c 256,139,140
 142 624 142 624 163 644 c 256,141,142
 184 664 184 664 207 673 c 256,143,144
 230 682 230 682 254 682 c 0,145,146
 282 682 282 682 303 672 c 0,147,148
 324 663 324 663 343 646 c 0,149,150
 362 630 362 630 378 607 c 256,151,152
 394 584 394 584 403 560 c 256,153,154
 412 536 412 536 420 507 c 0,155,156
 427 478 427 478 432 448 c 0,157,158
 436 417 436 417 438 376 c 0,159,160
 440 336 440 336 440 302 c 256,161,162
 440 268 440 268 438 238 c 0,163,164
 436 209 436 209 430 163 c 0,165,166
 425 117 425 117 412 75 c 0,167,168
 398 33 398 33 380 8 c 0,169,170
 363 -17 363 -17 345 -32 c 256,171,172
 327 -47 327 -47 311 -54 c 256,173,174
 295 -61 295 -61 280 -63 c 0,175,176
 264 -65 264 -65 255 -65 c 0,115,116
254 648 m 0,177,178
 226 646 226 646 206 632 c 0,179,180
 187 618 187 618 174 588 c 0,181,182
 162 557 162 557 156 520 c 0,183,184
 149 484 149 484 147 454 c 256,185,186
 145 424 145 424 143 373 c 0,187,188
 142 322 142 322 142 305 c 0,189,190
 142 300 142 300 143 258 c 2,191,-1
 145 196 l 2,192,193
 147 162 147 162 154 115 c 0,194,195
 160 68 160 68 174 35 c 0,196,197
 187 2 187 2 202 -10 c 0,198,199
 218 -23 218 -23 230 -28 c 0,200,201
 242 -32 242 -32 256 -31 c 0,202,203
 268 -31 268 -31 281 -27 c 256,204,205
 294 -23 294 -23 311 -10 c 0,206,207
 328 2 328 2 340 31 c 0,208,209
 351 60 351 60 358 110 c 0,210,211
 366 160 366 160 368 183 c 0,212,213
 369 206 369 206 370 250 c 0,214,215
 372 294 372 294 372 312 c 0,216,217
 373 330 373 330 372 371 c 0,218,219
 370 423 370 423 367 456 c 0,220,221
 364 490 364 490 357 523 c 256,222,223
 350 556 350 556 339 582 c 0,224,225
 328 607 328 607 314 622 c 0,226,227
 300 636 300 636 284 642 c 256,228,229
 268 648 268 648 254 648 c 0,177,178
EndSplineSet
EndChar
StartChar: one
Encoding: 49 49 20
Width: 512
Flags: W
LayerCount: 2
Back
Fore
SplineSet
264 680 m 1,0,-1
 288 680 l 1,1,-1
 288 46 l 2,2,3
 288 22 288 22 293 10 c 0,4,5
 299 -2 299 -2 311 -9 c 0,6,7
 322 -16 322 -16 346 -16 c 2,8,-1
 388 -16 l 1,9,-1
 388 -46 l 1,10,-1
 124 -46 l 1,11,-1
 124 -16 l 1,12,-1
 174 -16 l 2,13,14
 194 -16 194 -16 208 -9 c 256,15,16
 222 -2 222 -2 227 10 c 0,17,18
 234 22 234 22 234 46 c 2,19,-1
 234 552 l 2,20,21
 234 572 234 572 225 582 c 0,22,23
 217 591 217 591 193 592 c 2,24,-1
 122 592 l 1,25,-1
 122 624 l 1,26,-1
 142 624 l 2,27,28
 160 624 160 624 183 630 c 0,29,30
 204 636 204 636 220 646 c 256,31,32
 236 656 236 656 246 666 c 2,33,-1
 264 680 l 1,0,-1
264 680 m 1,34,-1
 288 680 l 1,35,-1
 288 46 l 2,36,37
 288 22 288 22 294 10 c 0,38,39
 299 -2 299 -2 311 -9 c 0,40,41
 322 -16 322 -16 346 -16 c 2,42,-1
 388 -16 l 1,43,-1
 388 -46 l 1,44,-1
 124 -46 l 1,45,-1
 124 -16 l 1,46,-1
 174 -16 l 2,47,48
 194 -16 194 -16 208 -9 c 0,49,50
 221 -2 221 -2 228 10 c 0,51,52
 234 22 234 22 234 46 c 2,53,-1
 234 552 l 2,54,55
 234 573 234 573 225 582 c 0,56,57
 216 592 216 592 193 592 c 2,58,-1
 122 592 l 1,59,-1
 122 624 l 1,60,-1
 142 624 l 2,61,62
 160 624 160 624 182 630 c 0,63,64
 205 636 205 636 220 646 c 0,65,66
 236 656 236 656 246 666 c 2,67,-1
 264 680 l 1,34,-1
EndSplineSet
EndChar
StartChar: two
Encoding: 50 50 21
Width: 512
Flags: W
LayerCount: 2
Back
Fore
SplineSet
453 119 m 1,0,-1
 441 -46 l 1,1,-1
 61 -46 l 1,2,-1
 62 -32 l 2,3,4
 62 -24 62 -24 64 -14 c 0,5,6
 65 -4 65 -4 72 28 c 256,7,8
 79 60 79 60 89 85 c 0,9,10
 99 112 99 112 108 126 c 0,11,12
 117 141 117 141 134 163 c 0,13,14
 152 185 152 185 169 205 c 0,15,16
 187 224 187 224 206 241 c 2,17,-1
 254 283 l 1,18,-1
 301 322 l 2,19,20
 319 338 319 338 341 360 c 256,21,22
 363 382 363 382 378 418 c 0,23,24
 395 454 395 454 391 506 c 0,25,26
 389 534 389 534 379 562 c 0,27,28
 371 590 371 590 353 608 c 0,29,30
 335 627 335 627 309 637 c 0,31,32
 284 646 284 646 262 648 c 0,33,34
 236 650 236 650 214 644 c 256,35,36
 192 638 192 638 175 630 c 0,37,38
 157 622 157 622 146 614 c 0,39,40
 136 606 136 606 122 588 c 256,41,42
 108 570 108 570 102 548 c 0,43,44
 97 527 97 527 97 515 c 0,45,46
 97 501 97 501 101 494 c 0,47,48
 105 486 105 486 110 484 c 256,49,50
 115 482 115 482 123 479 c 0,51,52
 131 477 131 477 135 473 c 256,53,54
 139 469 139 469 143 462 c 0,55,56
 147 454 147 454 147 444 c 0,57,58
 146 430 146 430 138 420 c 0,59,60
 131 410 131 410 113 410 c 0,61,62
 101 410 101 410 91 415 c 0,63,64
 81 421 81 421 74 432 c 0,65,66
 66 444 66 444 63 456 c 256,67,68
 60 468 60 468 60 490 c 0,69,70
 59 512 59 512 67 542 c 0,71,72
 73 566 73 566 87 590 c 256,73,74
 101 614 101 614 118 629 c 0,75,76
 135 643 135 643 149 652 c 0,77,78
 163 660 163 660 179 666 c 0,79,80
 194 672 194 672 214 676 c 256,81,82
 234 680 234 680 257 680 c 0,83,84
 283 680 283 680 308 675 c 0,85,86
 333 669 333 669 364 652 c 0,87,88
 395 636 395 636 422 600 c 256,89,90
 449 564 449 564 451 516 c 256,91,92
 453 468 453 468 442 433 c 0,93,94
 427 386 427 386 402 358 c 256,95,96
 377 330 377 330 352 310 c 0,97,98
 328 290 328 290 307 274 c 2,99,-1
 277 252 l 1,100,-1
 238 223 l 2,101,102
 215 205 215 205 199 188 c 0,103,104
 183 172 183 172 169 155 c 256,105,106
 155 138 155 138 146 124 c 256,107,108
 137 110 137 110 129 94 c 256,109,110
 121 78 121 78 117 68 c 0,111,112
 115 58 115 58 107 22 c 2,113,-1
 105 7 l 1,114,-1
 346 7 l 2,115,116
 362 7 362 7 375 10 c 0,117,118
 387 13 387 13 398 25 c 0,119,120
 408 37 408 37 414 62 c 2,121,-1
 427 119 l 1,122,-1
 453 119 l 1,0,-1
453 119 m 1,123,-1
 441 -46 l 1,124,-1
 61 -46 l 1,125,-1
 62 -32 l 2,126,127
 62 -24 62 -24 63 -14 c 0,128,129
 65 -4 65 -4 72 28 c 256,130,131
 79 60 79 60 89 85 c 256,132,133
 99 110 99 110 108 125 c 256,134,135
 117 140 117 140 134 163 c 256,136,137
 151 186 151 186 169 205 c 256,138,139
 187 224 187 224 206 241 c 256,140,141
 225 258 225 258 254 282 c 0,142,143
 283 307 283 307 301 322 c 256,144,145
 319 337 319 337 341 360 c 0,146,147
 363 382 363 382 378 418 c 256,148,149
 393 454 393 454 391 506 c 0,150,151
 389 534 389 534 380 562 c 256,152,153
 371 590 371 590 353 609 c 256,154,155
 335 628 335 628 310 637 c 256,156,157
 285 646 285 646 262 648 c 0,158,159
 236 650 236 650 215 644 c 0,160,161
 193 639 193 639 175 630 c 0,162,163
 157 622 157 622 146 614 c 256,164,165
 135 606 135 606 121 588 c 0,166,167
 108 569 108 569 102 548 c 0,168,169
 97 527 97 527 97 515 c 0,170,171
 97 501 97 501 101 494 c 256,172,173
 105 487 105 487 110 484 c 0,174,175
 115 482 115 482 123 479 c 256,176,177
 131 476 131 476 135 472 c 0,178,179
 139 469 139 469 143 462 c 0,180,181
 147 454 147 454 147 444 c 0,182,183
 146 430 146 430 137 420 c 0,184,185
 129 410 129 410 113 410 c 0,186,187
 102 410 102 410 91 415 c 0,188,189
 81 420 81 420 74 432 c 256,190,191
 67 444 67 444 63 456 c 0,192,193
 60 467 60 467 60 490 c 0,194,195
 59 512 59 512 67 542 c 0,196,197
 73 566 73 566 87 590 c 256,198,199
 101 614 101 614 118 629 c 256,200,201
 135 644 135 644 149 652 c 0,202,203
 164 660 164 660 179 666 c 256,204,205
 194 672 194 672 215 676 c 0,206,207
 235 680 235 680 257 680 c 0,208,209
 283 680 283 680 308 675 c 256,210,211
 333 670 333 670 364 653 c 256,212,213
 395 636 395 636 422 600 c 256,214,215
 449 564 449 564 451 516 c 256,216,217
 453 468 453 468 442 433 c 0,218,219
 427 385 427 385 402 358 c 0,220,221
 377 330 377 330 352 310 c 256,222,223
 327 290 327 290 307 274 c 2,224,-1
 277 252 l 2,225,226
 262 241 262 241 239 222 c 0,227,228
 215 204 215 204 199 188 c 0,229,230
 182 172 182 172 169 155 c 0,231,232
 155 138 155 138 146 124 c 0,233,234
 137 111 137 111 129 94 c 0,235,236
 120 78 120 78 117 68 c 0,237,238
 115 58 115 58 107 22 c 2,239,-1
 105 7 l 1,240,-1
 346 7 l 2,241,242
 362 7 362 7 375 10 c 0,243,244
 387 13 387 13 397 26 c 0,245,246
 408 38 408 38 414 62 c 2,247,-1
 427 119 l 1,248,-1
 453 119 l 1,123,-1
EndSplineSet
EndChar
StartChar: three
Encoding: 51 51 22
Width: 512
Flags: W
LayerCount: 2
Back
Fore
SplineSet
232 348 m 1,0,1
 239 347 239 347 244 347 c 256,2,3
 249 347 249 347 261 350 c 0,4,5
 273 352 273 352 292 361 c 0,6,7
 310 370 310 370 327 388 c 256,8,9
 344 406 344 406 351 420 c 0,10,11
 358 433 358 433 362 457 c 256,12,13
 366 481 366 481 368 503 c 0,14,15
 368 525 368 525 364 548 c 0,16,17
 360 564 360 564 353 580 c 0,18,19
 345 597 345 597 332 611 c 0,20,21
 318 625 318 625 302 632 c 0,22,23
 285 640 285 640 269 642 c 0,24,25
 254 645 254 645 238 646 c 0,26,27
 230 646 230 646 218 645 c 256,28,29
 206 644 206 644 192 640 c 256,30,31
 178 636 178 636 168 632 c 0,32,33
 158 627 158 627 148 619 c 0,34,35
 138 612 138 612 131 602 c 0,36,37
 123 592 123 592 120 579 c 0,38,39
 116 567 116 567 118 557 c 0,40,41
 118 551 118 551 120 547 c 256,42,43
 122 543 122 543 125 540 c 0,44,45
 128 536 128 536 134 534 c 256,46,47
 140 532 140 532 147 529 c 256,48,49
 154 526 154 526 160 518 c 256,50,51
 166 510 166 510 166 496 c 256,52,53
 166 482 166 482 156 471 c 0,54,55
 146 459 146 459 132 459 c 0,56,57
 118 458 118 458 104 470 c 0,58,59
 91 480 91 480 86 498 c 0,60,61
 80 515 80 515 82 536 c 0,62,63
 82 548 82 548 84 562 c 0,64,65
 87 576 87 576 93 591 c 0,66,67
 99 607 99 607 111 621 c 0,68,69
 123 636 123 636 140 649 c 0,70,71
 158 661 158 661 179 670 c 0,72,73
 200 678 200 678 218 680 c 0,74,75
 234 682 234 682 250 682 c 0,76,77
 262 682 262 682 276 680 c 0,78,79
 288 678 288 678 308 672 c 0,80,81
 329 667 329 667 350 655 c 256,82,83
 371 643 371 643 390 620 c 0,84,85
 410 596 410 596 419 566 c 0,86,87
 429 536 429 536 427 498 c 0,88,89
 426 480 426 480 422 460 c 0,90,91
 418 439 418 439 406 418 c 0,92,93
 394 396 394 396 379 381 c 0,94,95
 364 365 364 365 348 355 c 0,96,97
 332 346 332 346 324 342 c 2,98,-1
 308 336 l 1,99,100
 315 334 315 334 321 332 c 0,101,102
 326 330 326 330 340 324 c 256,103,104
 354 318 354 318 370 307 c 256,105,106
 386 296 386 296 403 276 c 0,107,108
 421 256 421 256 434 220 c 0,109,110
 448 186 448 186 447 141 c 0,111,112
 446 87 446 87 429 52 c 0,113,114
 412 18 412 18 396 0 c 256,115,116
 380 -18 380 -18 358 -31 c 0,117,118
 337 -45 337 -45 320 -51 c 0,119,120
 302 -57 302 -57 292 -59 c 0,121,122
 281 -60 281 -60 264 -62 c 0,123,124
 246 -64 246 -64 240 -64 c 0,125,126
 230 -64 230 -64 214 -63 c 0,127,128
 198 -61 198 -61 183 -57 c 0,129,130
 169 -53 169 -53 156 -47 c 0,131,132
 144 -41 144 -41 129 -30 c 0,133,134
 115 -20 115 -20 103 -6 c 256,135,136
 91 8 91 8 84 22 c 0,137,138
 76 36 76 36 72 50 c 256,139,140
 68 64 68 64 66 73 c 0,141,142
 66 81 66 81 66 93 c 0,143,144
 66 113 66 113 68 128 c 0,145,146
 71 142 71 142 79 152 c 0,147,148
 86 162 86 162 96 166 c 256,149,150
 106 170 106 170 114 170 c 0,151,152
 121 170 121 170 129 164 c 0,153,154
 137 160 137 160 144 150 c 0,155,156
 150 140 150 140 150 128 c 256,157,158
 150 116 150 116 144 110 c 0,159,160
 139 104 139 104 129 99 c 256,161,162
 119 94 119 94 114 90 c 256,163,164
 109 86 109 86 107 82 c 0,165,166
 104 78 104 78 104 71 c 0,167,168
 104 66 104 66 106 56 c 256,169,170
 108 46 108 46 113 34 c 256,171,172
 118 22 118 22 128 12 c 0,173,174
 138 1 138 1 150 -6 c 0,175,176
 160 -14 160 -14 174 -19 c 0,177,178
 187 -25 187 -25 201 -28 c 0,179,180
 216 -30 216 -30 232 -30 c 0,181,182
 250 -30 250 -30 268 -28 c 0,183,184
 286 -24 286 -24 301 -17 c 0,185,186
 316 -9 316 -9 327 -2 c 0,187,188
 337 6 337 6 350 20 c 0,189,190
 362 34 362 34 371 52 c 0,191,192
 379 71 379 71 383 98 c 0,193,194
 386 124 386 124 386 147 c 256,195,196
 386 170 386 170 383 190 c 256,197,198
 380 210 380 210 376 227 c 0,199,200
 372 245 372 245 361 261 c 0,201,202
 351 277 351 277 333 290 c 0,203,204
 315 302 315 302 303 307 c 0,205,206
 291 310 291 310 274 314 c 0,207,208
 258 318 258 318 252 318 c 2,209,-1
 235 320 l 1,210,-1
 232 320 l 1,211,-1
 232 348 l 1,0,1
232 348 m 1,212,213
 239 347 239 347 244 348 c 0,214,215
 249 348 249 348 261 350 c 256,216,217
 273 352 273 352 292 361 c 0,218,219
 310 370 310 370 327 388 c 256,220,221
 344 406 344 406 351 420 c 0,222,223
 358 433 358 433 362 457 c 0,224,225
 367 481 367 481 368 504 c 0,226,227
 368 526 368 526 364 548 c 0,228,229
 360 564 360 564 353 581 c 256,230,231
 346 598 346 598 332 612 c 0,232,233
 318 625 318 625 301 632 c 0,234,235
 284 640 284 640 268 643 c 0,236,237
 254 646 254 646 238 646 c 0,238,239
 230 646 230 646 218 645 c 256,240,241
 206 644 206 644 192 640 c 0,242,243
 179 636 179 636 168 631 c 0,244,245
 158 626 158 626 148 619 c 256,246,247
 138 612 138 612 131 602 c 256,248,249
 124 592 124 592 120 579 c 256,250,251
 116 566 116 566 118 557 c 0,252,253
 118 551 118 551 120 546 c 0,254,255
 122 542 122 542 125 540 c 0,256,257
 128 537 128 537 134 534 c 0,258,259
 140 532 140 532 147 529 c 256,260,261
 154 526 154 526 160 518 c 256,262,263
 166 510 166 510 166 496 c 256,264,265
 166 482 166 482 156 470 c 0,266,267
 147 459 147 459 132 458 c 0,268,269
 118 458 118 458 104 470 c 0,270,271
 91 481 91 481 86 498 c 0,272,273
 80 516 80 516 82 536 c 0,274,275
 82 548 82 548 84 562 c 0,276,277
 87 576 87 576 94 591 c 0,278,279
 100 606 100 606 111 621 c 256,280,281
 122 636 122 636 140 649 c 256,282,283
 158 662 158 662 179 670 c 256,284,285
 200 678 200 678 218 680 c 0,286,287
 234 682 234 682 250 682 c 0,288,289
 262 682 262 682 275 680 c 0,290,291
 288 679 288 679 308 673 c 0,292,293
 329 667 329 667 350 655 c 256,294,295
 371 643 371 643 390 620 c 0,296,297
 410 596 410 596 419 566 c 256,298,299
 428 536 428 536 427 498 c 0,300,301
 426 481 426 481 422 460 c 0,302,303
 418 440 418 440 406 418 c 256,304,305
 394 396 394 396 379 380 c 0,306,307
 364 365 364 365 348 354 c 0,308,309
 332 344 332 344 324 342 c 2,310,-1
 308 336 l 1,311,312
 315 334 315 334 320 332 c 0,313,314
 326 330 326 330 340 324 c 256,315,316
 354 318 354 318 370 307 c 0,317,318
 385 296 385 296 402 276 c 0,319,320
 420 255 420 255 434 220 c 0,321,322
 448 186 448 186 447 141 c 0,323,324
 446 87 446 87 429 52 c 0,325,326
 412 18 412 18 396 0 c 256,327,328
 380 -18 380 -18 358 -31 c 0,329,330
 337 -44 337 -44 320 -50 c 0,331,332
 302 -57 302 -57 292 -58 c 0,333,334
 281 -60 281 -60 264 -62 c 0,335,336
 246 -64 246 -64 240 -64 c 0,337,338
 230 -64 230 -64 214 -62 c 256,339,340
 198 -60 198 -60 184 -56 c 0,341,342
 169 -53 169 -53 156 -47 c 0,343,344
 144 -41 144 -41 130 -30 c 0,345,346
 115 -20 115 -20 103 -6 c 256,347,348
 91 8 91 8 84 22 c 0,349,350
 76 36 76 36 72 50 c 256,351,352
 68 64 68 64 67 73 c 256,353,354
 66 82 66 82 66 93 c 0,355,356
 66 113 66 113 69 128 c 0,357,358
 72 142 72 142 79 152 c 256,359,360
 86 162 86 162 96 166 c 256,361,362
 106 170 106 170 114 170 c 0,363,364
 121 170 121 170 130 165 c 0,365,366
 138 160 138 160 144 150 c 256,367,368
 150 140 150 140 150 128 c 0,369,370
 149 116 149 116 144 110 c 0,371,372
 138 104 138 104 128 99 c 0,373,374
 119 94 119 94 114 90 c 256,375,376
 109 86 109 86 107 82 c 256,377,378
 105 78 105 78 104 71 c 0,379,380
 104 64 104 64 106 56 c 0,381,382
 108 46 108 46 113 35 c 256,383,384
 118 24 118 24 128 13 c 0,385,386
 139 2 139 2 150 -6 c 0,387,388
 160 -14 160 -14 173 -20 c 0,389,390
 186 -25 186 -25 200 -28 c 0,391,392
 216 -30 216 -30 232 -30 c 0,393,394
 250 -30 250 -30 268 -27 c 256,395,396
 286 -24 286 -24 301 -17 c 256,397,398
 316 -10 316 -10 327 -2 c 256,399,400
 338 6 338 6 350 20 c 256,401,402
 362 34 362 34 370 53 c 0,403,404
 379 72 379 72 382 98 c 0,405,406
 386 124 386 124 386 147 c 0,407,408
 386 169 386 169 383 190 c 0,409,410
 380 210 380 210 376 228 c 0,411,412
 371 245 371 245 360 262 c 0,413,414
 350 278 350 278 333 290 c 256,415,416
 316 302 316 302 303 306 c 0,417,418
 290 311 290 311 274 314 c 0,419,420
 258 318 258 318 252 318 c 2,421,-1
 235 320 l 1,422,-1
 232 320 l 1,423,-1
 232 348 l 1,212,213
EndSplineSet
EndChar
StartChar: four
Encoding: 52 52 23
Width: 512
Flags: W
LayerCount: 2
Back
Fore
SplineSet
376 164 m 1,0,-1
 471 164 l 1,1,-1
 471 133 l 1,2,-1
 376 133 l 1,3,-1
 376 35 l 2,4,5
 376 24 376 24 379 14 c 0,6,7
 383 4 383 4 388 -2 c 0,8,9
 394 -8 394 -8 404 -12 c 0,10,11
 414 -15 414 -15 428 -15 c 2,12,-1
 454 -15 l 1,13,-1
 454 -46 l 1,14,-1
 236 -46 l 1,15,-1
 236 -15 l 1,16,-1
 272 -15 l 2,17,18
 282 -15 282 -15 293 -12 c 0,19,20
 302 -10 302 -10 308 -4 c 0,21,22
 314 1 314 1 318 10 c 0,23,24
 322 20 322 20 323 35 c 2,25,-1
 323 133 l 1,26,-1
 40 133 l 1,27,-1
 40 161 l 1,28,-1
 351 682 l 1,29,-1
 376 682 l 1,30,-1
 376 164 l 1,0,-1
74 164 m 1,31,-1
 323 164 l 1,32,-1
 323 570 l 1,33,-1
 74 164 l 1,31,-1
376 164 m 1,34,-1
 471 164 l 1,35,-1
 471 133 l 1,36,-1
 376 133 l 1,37,-1
 376 35 l 2,38,39
 376 24 376 24 379 14 c 0,40,41
 382 3 382 3 388 -2 c 0,42,43
 394 -8 394 -8 404 -12 c 0,44,45
 414 -15 414 -15 428 -15 c 2,46,-1
 454 -15 l 1,47,-1
 454 -46 l 1,48,-1
 236 -46 l 1,49,-1
 236 -15 l 1,50,-1
 272 -15 l 2,51,52
 282 -15 282 -15 292 -12 c 0,53,54
 303 -10 303 -10 308 -4 c 0,55,56
 314 1 314 1 318 10 c 0,57,58
 323 20 323 20 323 35 c 2,59,-1
 323 133 l 1,60,-1
 40 133 l 1,61,-1
 40 161 l 1,62,-1
 351 682 l 1,63,-1
 376 682 l 1,64,-1
 376 164 l 1,34,-1
74 164 m 1,65,-1
 323 164 l 1,66,-1
 323 570 l 1,67,-1
 74 164 l 1,65,-1
EndSplineSet
EndChar
StartChar: five
Encoding: 53 53 24
Width: 512
Flags: W
LayerCount: 2
Back
Fore
SplineSet
125 328 m 1,0,1
 137 342 137 342 147 353 c 256,2,3
 157 364 157 364 179 376 c 0,4,5
 202 388 202 388 224 392 c 256,6,7
 246 396 246 396 268 396 c 0,8,9
 314 394 314 394 345 376 c 0,10,11
 375 358 375 358 397 332 c 256,12,13
 419 306 419 306 428 281 c 0,14,15
 438 257 438 257 442 236 c 256,16,17
 446 215 446 215 446 172 c 256,18,19
 446 129 446 129 434 86 c 0,20,21
 424 54 424 54 408 30 c 256,22,23
 392 6 392 6 372 -13 c 0,24,25
 352 -31 352 -31 327 -44 c 0,26,27
 302 -56 302 -56 284 -59 c 0,28,29
 266 -61 266 -61 252 -63 c 0,30,31
 238 -64 238 -64 230 -64 c 0,32,33
 218 -64 218 -64 204 -62 c 0,34,35
 192 -60 192 -60 176 -56 c 256,36,37
 160 -52 160 -52 141 -43 c 0,38,39
 122 -33 122 -33 108 -20 c 0,40,41
 94 -6 94 -6 84 10 c 256,42,43
 74 26 74 26 70 42 c 0,44,45
 64 58 64 58 64 75 c 0,46,47
 64 90 64 90 66 102 c 256,48,49
 68 114 68 114 76 122 c 0,50,51
 82 130 82 130 90 132 c 0,52,53
 98 136 98 136 111 136 c 0,54,55
 124 135 124 135 134 124 c 0,56,57
 144 114 144 114 143 100 c 0,58,59
 144 92 144 92 140 87 c 0,60,61
 138 81 138 81 134 78 c 2,62,-1
 124 68 l 2,63,64
 120 63 120 63 117 58 c 0,65,66
 115 53 115 53 115 47 c 0,67,68
 115 40 115 40 117 32 c 0,69,70
 120 22 120 22 124 14 c 256,71,72
 128 6 128 6 136 -2 c 0,73,74
 145 -10 145 -10 154 -14 c 0,75,76
 164 -19 164 -19 174 -23 c 0,77,78
 186 -26 186 -26 202 -28 c 256,79,80
 218 -30 218 -30 229 -30 c 0,81,82
 245 -30 245 -30 264 -28 c 0,83,84
 284 -25 284 -25 300 -16 c 0,85,86
 316 -6 316 -6 328 5 c 256,87,88
 340 16 340 16 353 34 c 0,89,90
 365 52 365 52 372 74 c 256,91,92
 379 96 379 96 382 120 c 0,93,94
 386 144 386 144 386 165 c 0,95,96
 386 185 386 185 384 205 c 2,97,-1
 382 226 l 2,98,99
 380 239 380 239 375 261 c 0,100,101
 369 283 369 283 358 302 c 0,102,103
 346 322 346 322 331 336 c 0,104,105
 315 350 315 350 296 358 c 0,106,107
 276 366 276 366 261 366 c 0,108,109
 251 366 251 366 233 364 c 0,110,111
 215 361 215 361 203 356 c 0,112,113
 191 352 191 352 178 344 c 0,114,115
 166 336 166 336 158 328 c 256,116,117
 150 320 150 320 143 309 c 0,118,119
 138 299 138 299 136 297 c 2,120,-1
 132 288 l 1,121,-1
 95 288 l 1,122,-1
 104 660 l 1,123,-1
 431 660 l 1,124,-1
 418 607 l 1,125,-1
 130 607 l 1,126,-1
 125 328 l 1,0,1
125 328 m 1,127,128
 137 342 137 342 147 352 c 0,129,130
 157 363 157 363 178 376 c 0,131,132
 200 388 200 388 223 392 c 256,133,134
 246 396 246 396 268 396 c 0,135,136
 314 394 314 394 345 376 c 256,137,138
 376 358 376 358 398 332 c 0,139,140
 419 306 419 306 428 281 c 0,141,142
 438 256 438 256 442 236 c 0,143,144
 446 215 446 215 446 172 c 256,145,146
 446 129 446 129 434 86 c 0,147,148
 424 54 424 54 408 30 c 0,149,150
 392 5 392 5 372 -14 c 0,151,152
 352 -32 352 -32 327 -44 c 256,153,154
 302 -56 302 -56 284 -59 c 256,155,156
 266 -62 266 -62 252 -63 c 0,157,158
 240 -64 240 -64 230 -64 c 0,159,160
 218 -64 218 -64 204 -62 c 0,161,162
 191 -60 191 -60 176 -56 c 0,163,164
 160 -53 160 -53 141 -44 c 0,165,166
 122 -34 122 -34 108 -20 c 0,167,168
 94 -7 94 -7 84 10 c 0,169,170
 74 26 74 26 70 42 c 0,171,172
 65 58 65 58 64 75 c 0,173,174
 64 92 64 92 66 102 c 0,175,176
 68 114 68 114 75 122 c 0,177,178
 82 129 82 129 90 132 c 0,179,180
 98 136 98 136 111 136 c 0,181,182
 124 135 124 135 134 124 c 0,183,184
 144 114 144 114 143 100 c 0,185,186
 143 92 143 92 140 87 c 0,187,188
 136 82 136 82 134 78 c 2,189,-1
 124 68 l 2,190,191
 120 63 120 63 118 58 c 0,192,193
 115 53 115 53 114 47 c 0,194,195
 114 40 114 40 117 32 c 0,196,197
 119 22 119 22 124 14 c 0,198,199
 128 6 128 6 136 -2 c 0,200,201
 145 -10 145 -10 154 -15 c 0,202,203
 164 -20 164 -20 174 -23 c 0,204,205
 185 -26 185 -26 202 -28 c 0,206,207
 218 -30 218 -30 229 -30 c 0,208,209
 245 -30 245 -30 264 -28 c 0,210,211
 284 -25 284 -25 300 -16 c 0,212,213
 316 -6 316 -6 328 5 c 0,214,215
 341 16 341 16 353 34 c 0,216,217
 365 53 365 53 372 74 c 0,218,219
 379 96 379 96 382 120 c 0,220,221
 386 144 386 144 386 165 c 256,222,223
 386 186 386 186 384 205 c 0,224,225
 383 213 383 213 382 226 c 0,226,227
 380 240 380 240 374 261 c 0,228,229
 369 282 369 282 358 302 c 0,230,231
 346 322 346 322 331 336 c 256,232,233
 316 350 316 350 296 358 c 256,234,235
 276 366 276 366 261 366 c 0,236,237
 251 366 251 366 234 364 c 0,238,239
 216 361 216 361 204 356 c 0,240,241
 191 352 191 352 178 344 c 0,242,243
 166 336 166 336 158 328 c 256,244,245
 150 320 150 320 143 310 c 0,246,247
 136 299 136 299 136 297 c 2,248,-1
 132 288 l 1,249,-1
 95 288 l 1,250,-1
 104 660 l 1,251,-1
 431 660 l 1,252,-1
 418 607 l 1,253,-1
 130 607 l 1,254,-1
 125 328 l 1,127,128
EndSplineSet
EndChar
StartChar: six
Encoding: 54 54 25
Width: 512
Flags: W
LayerCount: 2
Back
Fore
SplineSet
134 312 m 1,0,-1
 149 328 l 2,1,2
 157 336 157 336 174 349 c 0,3,4
 190 363 190 363 216 372 c 0,5,6
 242 382 242 382 270 382 c 0,7,8
 296 382 296 382 324 372 c 256,9,10
 352 362 352 362 375 340 c 0,11,12
 399 318 399 318 413 291 c 0,13,14
 427 263 427 263 432 234 c 0,15,16
 438 205 438 205 437 167 c 0,17,18
 436 142 436 142 432 116 c 0,19,20
 428 91 428 91 419 63 c 0,21,22
 409 36 409 36 398 18 c 0,23,24
 386 0 386 0 375 -13 c 0,25,26
 363 -25 363 -25 356 -31 c 0,27,28
 348 -37 348 -37 336 -44 c 0,29,30
 324 -52 324 -52 310 -57 c 256,31,32
 296 -62 296 -62 280 -64 c 256,33,34
 264 -66 264 -66 253 -66 c 0,35,36
 240 -66 240 -66 229 -64 c 256,37,38
 218 -62 218 -62 202 -57 c 0,39,40
 186 -53 186 -53 169 -41 c 0,41,42
 153 -30 153 -30 138 -13 c 0,43,44
 124 5 124 5 111 33 c 256,45,46
 98 61 98 61 92 86 c 0,47,48
 86 110 86 110 84 130 c 0,49,50
 81 150 81 150 79 166 c 256,51,52
 77 182 77 182 76 207 c 0,53,54
 75 233 75 233 75 257 c 2,55,-1
 75 302 l 2,56,57
 75 321 75 321 76 341 c 256,58,59
 77 361 77 361 81 395 c 256,60,61
 85 429 85 429 90 456 c 256,62,63
 95 483 95 483 104 511 c 0,64,65
 112 539 112 539 126 569 c 0,66,67
 139 598 139 598 159 623 c 256,68,69
 179 648 179 648 206 664 c 0,70,71
 232 680 232 680 270 681 c 0,72,73
 288 681 288 681 306 678 c 0,74,75
 324 674 324 674 343 666 c 256,76,77
 362 658 362 658 382 639 c 256,78,79
 402 620 402 620 409 596 c 0,80,81
 417 572 417 572 417 548 c 0,82,83
 416 528 416 528 410 516 c 256,84,85
 404 504 404 504 395 496 c 0,86,87
 385 488 385 488 372 490 c 0,88,89
 364 490 364 490 358 495 c 0,90,91
 352 499 352 499 346 506 c 0,92,93
 342 513 342 513 341 522 c 0,94,95
 342 532 342 532 346 543 c 0,96,97
 348 549 348 549 350 554 c 2,98,-1
 358 565 l 2,99,100
 360 570 360 570 362 576 c 256,101,102
 364 582 364 582 364 587 c 0,103,104
 364 593 364 593 362 601 c 0,105,106
 358 611 358 611 346 622 c 0,107,108
 334 634 334 634 322 639 c 256,109,110
 310 644 310 644 298 646 c 256,111,112
 286 648 286 648 278 648 c 256,113,114
 270 648 270 648 256 645 c 0,115,116
 241 643 241 643 232 639 c 0,117,118
 224 635 224 635 212 624 c 256,119,120
 200 613 200 613 189 599 c 0,121,122
 179 585 179 585 169 560 c 0,123,124
 158 535 158 535 152 512 c 0,125,126
 146 488 146 488 143 460 c 0,127,128
 139 431 139 431 137 391 c 0,129,130
 134 352 134 352 134 312 c 1,0,-1
134 272 m 1,131,132
 134 245 134 245 133 229 c 0,133,134
 133 214 133 214 136 177 c 0,135,136
 138 140 138 140 142 110 c 256,137,138
 146 80 146 80 153 60 c 256,139,140
 160 40 160 40 170 22 c 256,141,142
 180 4 180 4 192 -9 c 256,143,144
 204 -22 204 -22 220 -28 c 256,145,146
 236 -34 236 -34 254 -34 c 0,147,148
 264 -34 264 -34 275 -33 c 0,149,150
 285 -31 285 -31 297 -25 c 0,151,152
 308 -19 308 -19 318 -11 c 256,153,154
 328 -3 328 -3 337 7 c 0,155,156
 345 18 345 18 355 39 c 0,157,158
 364 61 364 61 370 92 c 0,159,160
 376 124 376 124 377 162 c 0,161,162
 377 200 377 200 375 226 c 0,163,164
 373 245 373 245 367 265 c 0,165,166
 360 285 360 285 348 304 c 0,167,168
 334 323 334 323 320 332 c 0,169,170
 305 341 305 341 291 344 c 0,171,172
 277 348 277 348 265 348 c 0,173,174
 248 348 248 348 233 344 c 0,175,176
 219 340 219 340 202 331 c 0,177,178
 186 321 186 321 171 308 c 0,179,180
 156 296 156 296 150 290 c 2,181,-1
 134 272 l 1,131,132
134 312 m 1,182,183
 142 321 142 321 149 328 c 0,184,185
 156 336 156 336 174 349 c 0,186,187
 191 362 191 362 216 372 c 0,188,189
 242 382 242 382 270 382 c 0,190,191
 296 382 296 382 324 372 c 256,192,193
 352 362 352 362 376 340 c 0,194,195
 399 318 399 318 412 291 c 0,196,197
 426 264 426 264 432 234 c 0,198,199
 438 205 438 205 437 167 c 0,200,201
 436 141 436 141 432 116 c 0,202,203
 429 90 429 90 420 63 c 0,204,205
 410 36 410 36 398 18 c 256,206,207
 386 0 386 0 374 -12 c 0,208,209
 363 -25 363 -25 356 -30 c 0,210,211
 348 -36 348 -36 336 -44 c 256,212,213
 324 -52 324 -52 310 -57 c 0,214,215
 295 -62 295 -62 280 -64 c 0,216,217
 264 -66 264 -66 253 -66 c 0,218,219
 240 -66 240 -66 229 -64 c 256,220,221
 218 -62 218 -62 202 -57 c 256,222,223
 186 -52 186 -52 169 -41 c 256,224,225
 152 -30 152 -30 138 -13 c 256,226,227
 124 4 124 4 111 33 c 256,228,229
 98 62 98 62 92 86 c 0,230,231
 87 111 87 111 84 130 c 0,232,233
 81 150 81 150 80 166 c 0,234,235
 78 182 78 182 76 208 c 0,236,237
 75 233 75 233 75 257 c 0,238,239
 75 280 75 280 75 302 c 0,240,241
 75 321 75 321 76 341 c 256,242,243
 77 361 77 361 80 394 c 0,244,245
 84 428 84 428 90 456 c 0,246,247
 95 483 95 483 104 512 c 0,248,249
 112 540 112 540 126 569 c 0,250,251
 139 598 139 598 158 623 c 0,252,253
 178 648 178 648 206 664 c 0,254,255
 232 680 232 680 270 681 c 0,256,257
 288 681 288 681 306 678 c 0,258,259
 324 674 324 674 343 666 c 256,260,261
 362 658 362 658 382 639 c 0,262,263
 401 620 401 620 410 596 c 0,264,265
 418 572 418 572 417 548 c 0,266,267
 416 528 416 528 410 516 c 256,268,269
 404 504 404 504 395 496 c 256,270,271
 386 488 386 488 372 490 c 0,272,273
 364 490 364 490 358 494 c 0,274,275
 351 498 351 498 346 506 c 0,276,277
 342 513 342 513 342 522 c 0,278,279
 342 532 342 532 346 543 c 0,280,281
 348 549 348 549 350 554 c 2,282,-1
 358 565 l 2,283,284
 361 570 361 570 362 576 c 0,285,286
 364 581 364 581 364 588 c 0,287,288
 364 594 364 594 362 601 c 0,289,290
 358 611 358 611 346 622 c 0,291,292
 334 634 334 634 322 639 c 256,293,294
 310 644 310 644 298 646 c 256,295,296
 286 648 286 648 278 648 c 256,297,298
 270 648 270 648 256 645 c 0,299,300
 241 642 241 642 232 638 c 0,301,302
 224 635 224 635 212 624 c 256,303,304
 200 613 200 613 189 599 c 256,305,306
 178 585 178 585 168 560 c 0,307,308
 159 535 159 535 152 512 c 0,309,310
 146 488 146 488 143 459 c 256,311,312
 140 430 140 430 137 391 c 256,313,314
 134 352 134 352 134 312 c 1,182,183
134 272 m 1,315,316
 134 245 134 245 134 230 c 0,317,318
 134 214 134 214 136 177 c 256,319,320
 138 140 138 140 142 110 c 256,321,322
 146 80 146 80 153 60 c 256,323,324
 160 40 160 40 170 22 c 256,325,326
 180 4 180 4 192 -9 c 256,327,328
 204 -22 204 -22 220 -28 c 256,329,330
 236 -34 236 -34 254 -34 c 0,331,332
 264 -34 264 -34 275 -32 c 0,333,334
 286 -31 286 -31 297 -25 c 256,335,336
 308 -19 308 -19 318 -12 c 0,337,338
 328 -4 328 -4 336 7 c 0,339,340
 345 18 345 18 354 39 c 0,341,342
 364 60 364 60 370 92 c 0,343,344
 376 123 376 123 377 162 c 0,345,346
 378 200 378 200 375 226 c 0,347,348
 373 245 373 245 368 265 c 0,349,350
 362 285 362 285 349 304 c 256,351,352
 336 323 336 323 321 332 c 256,353,354
 306 341 306 341 292 344 c 0,355,356
 277 348 277 348 265 348 c 0,357,358
 248 348 248 348 233 344 c 256,359,360
 218 340 218 340 202 331 c 256,361,362
 186 322 186 322 171 309 c 256,363,364
 156 296 156 296 150 290 c 2,365,-1
 134 272 l 1,315,316
EndSplineSet
EndChar
StartChar: seven
Encoding: 55 55 26
Width: 512
Flags: W
LayerCount: 2
Back
Fore
SplineSet
460 616 m 1,0,-1
 422 567 l 2,1,2
 404 544 404 544 385 512 c 0,3,4
 367 480 367 480 352 446 c 0,5,6
 336 412 336 412 330 396 c 256,7,8
 324 380 324 380 318 359 c 0,9,10
 311 338 311 338 306 318 c 0,11,12
 300 298 300 298 296 277 c 0,13,14
 292 258 292 258 289 240 c 0,15,16
 288 223 288 223 284 198 c 0,17,18
 281 173 281 173 280 160 c 0,19,20
 279 146 279 146 278 120 c 0,21,22
 278 94 278 94 276 52 c 256,23,24
 274 10 274 10 274 -12 c 0,25,26
 275 -34 275 -34 271 -44 c 0,27,28
 267 -52 267 -52 260 -58 c 256,29,30
 253 -64 253 -64 240 -65 c 0,31,32
 228 -66 228 -66 218 -56 c 0,33,34
 213 -50 213 -50 209 -40 c 0,35,36
 206 -30 206 -30 208 -2 c 2,37,-1
 211 42 l 2,38,39
 212 62 212 62 216 104 c 256,40,41
 220 146 220 146 225 171 c 0,42,43
 229 196 229 196 240 238 c 0,44,45
 250 280 250 280 264 322 c 256,46,47
 278 364 278 364 293 398 c 256,48,49
 308 432 308 432 325 466 c 256,50,51
 342 500 342 500 354 518 c 2,52,-1
 385 567 l 1,53,-1
 409 606 l 1,54,-1
 152 606 l 2,55,56
 128 606 128 606 112 595 c 256,57,58
 96 584 96 584 90 563 c 256,59,60
 84 542 84 542 82 523 c 2,61,-1
 78 482 l 1,62,-1
 51 482 l 1,63,-1
 62 660 l 1,64,-1
 460 660 l 1,65,-1
 460 616 l 1,0,-1
460 616 m 1,66,67
 440 590 440 590 422 567 c 256,68,69
 404 544 404 544 386 512 c 0,70,71
 367 480 367 480 352 446 c 0,72,73
 336 412 336 412 330 396 c 256,74,75
 324 380 324 380 318 358 c 0,76,77
 311 337 311 337 306 318 c 0,78,79
 301 298 301 298 296 277 c 0,80,81
 292 256 292 256 289 239 c 256,82,83
 286 222 286 222 283 198 c 0,84,85
 280 173 280 173 280 160 c 0,86,87
 279 146 279 146 278 120 c 0,88,89
 278 94 278 94 276 52 c 256,90,91
 274 10 274 10 274 -12 c 0,92,93
 275 -34 275 -34 271 -44 c 0,94,95
 267 -52 267 -52 260 -58 c 256,96,97
 253 -64 253 -64 240 -65 c 0,98,99
 228 -66 228 -66 218 -56 c 0,100,101
 213 -51 213 -51 210 -40 c 0,102,103
 206 -30 206 -30 208 -2 c 2,104,-1
 211 42 l 2,105,106
 212 62 212 62 216 104 c 256,107,108
 220 146 220 146 224 171 c 0,109,110
 229 196 229 196 240 238 c 0,111,112
 250 280 250 280 264 322 c 256,113,114
 278 364 278 364 293 398 c 256,115,116
 308 432 308 432 325 466 c 0,117,118
 342 499 342 499 354 518 c 2,119,-1
 385 567 l 1,120,-1
 409 606 l 1,121,-1
 152 606 l 2,122,123
 128 606 128 606 112 595 c 256,124,125
 96 584 96 584 89 563 c 256,126,127
 82 542 82 542 82 523 c 2,128,-1
 78 482 l 1,129,-1
 51 482 l 1,130,-1
 62 660 l 1,131,-1
 460 660 l 1,132,-1
 460 616 l 1,66,67
EndSplineSet
EndChar
StartChar: eight
Encoding: 56 56 27
Width: 512
Flags: W
LayerCount: 2
Back
Fore
SplineSet
309 343 m 1,0,-1
 334 327 l 2,1,2
 346 319 346 319 358 310 c 0,3,4
 370 302 370 302 383 290 c 0,5,6
 397 278 397 278 410 262 c 0,7,8
 424 246 424 246 434 223 c 0,9,10
 444 201 444 201 448 177 c 0,11,12
 451 153 451 153 451 138 c 0,13,14
 450 116 450 116 446 96 c 0,15,16
 442 75 442 75 437 60 c 0,17,18
 432 46 432 46 424 32 c 256,19,20
 416 18 416 18 404 5 c 256,21,22
 392 -8 392 -8 379 -20 c 0,23,24
 365 -32 365 -32 354 -37 c 0,25,26
 343 -43 343 -43 330 -48 c 0,27,28
 318 -53 318 -53 304 -56 c 0,29,30
 291 -60 291 -60 276 -61 c 0,31,32
 262 -62 262 -62 252 -62 c 0,33,34
 240 -62 240 -62 226 -61 c 256,35,36
 212 -60 212 -60 199 -57 c 0,37,38
 187 -55 187 -55 173 -49 c 256,39,40
 159 -43 159 -43 146 -34 c 0,41,42
 132 -26 132 -26 122 -16 c 256,43,44
 112 -6 112 -6 102 6 c 256,45,46
 92 18 92 18 83 35 c 0,47,48
 76 52 76 52 70 68 c 0,49,50
 65 84 65 84 62 102 c 0,51,52
 60 120 60 120 60 142 c 0,53,54
 60 166 60 166 65 192 c 0,55,56
 71 218 71 218 85 242 c 0,57,58
 100 268 100 268 118 284 c 256,59,60
 136 300 136 300 154 310 c 256,61,62
 172 320 172 320 183 327 c 2,63,-1
 206 338 l 1,64,65
 188 349 188 349 176 357 c 0,66,67
 164 366 164 366 146 380 c 0,68,69
 128 395 128 395 115 410 c 0,70,71
 104 426 104 426 96 442 c 256,72,73
 88 458 88 458 84 473 c 256,74,75
 80 488 80 488 81 508 c 0,76,77
 80 526 80 526 84 545 c 0,78,79
 88 563 88 563 96 582 c 0,80,81
 104 600 104 600 116 617 c 256,82,83
 128 634 128 634 143 646 c 0,84,85
 157 658 157 658 177 666 c 256,86,87
 197 674 197 674 217 678 c 0,88,89
 236 682 236 682 256 682 c 0,90,91
 272 682 272 682 293 678 c 0,92,93
 313 674 313 674 333 665 c 0,94,95
 354 656 354 656 370 643 c 0,96,97
 386 632 386 632 402 608 c 0,98,99
 418 585 418 585 423 558 c 0,100,101
 428 532 428 532 428 512 c 0,102,103
 428 486 428 486 423 468 c 0,104,105
 419 450 419 450 412 433 c 0,106,107
 405 417 405 417 395 404 c 256,108,109
 385 391 385 391 372 380 c 256,110,111
 359 369 359 369 351 364 c 0,112,113
 343 360 343 360 326 352 c 2,114,-1
 309 343 l 1,0,-1
232 324 m 1,115,-1
 210 312 l 2,116,117
 200 306 200 306 189 298 c 0,118,119
 179 290 179 290 169 280 c 256,120,121
 159 270 159 270 150 257 c 0,122,123
 140 244 140 244 135 231 c 0,124,125
 129 216 129 216 126 200 c 0,126,127
 122 183 122 183 121 167 c 0,128,129
 119 151 119 151 120 134 c 0,130,131
 120 108 120 108 124 82 c 256,132,133
 128 56 128 56 139 38 c 0,134,135
 149 20 149 20 159 10 c 256,136,137
 169 0 169 0 182 -10 c 0,138,139
 196 -20 196 -20 213 -26 c 0,140,141
 232 -30 232 -30 252 -30 c 0,142,143
 270 -30 270 -30 285 -28 c 0,144,145
 301 -24 301 -24 314 -18 c 0,146,147
 328 -11 328 -11 342 1 c 0,148,149
 356 12 356 12 365 27 c 256,150,151
 374 42 374 42 379 57 c 256,152,153
 384 72 384 72 387 92 c 256,154,155
 390 112 390 112 390 130 c 0,156,157
 390 146 390 146 387 162 c 0,158,159
 385 178 385 178 382 187 c 256,160,161
 379 196 379 196 373 210 c 256,162,163
 367 224 367 224 358 236 c 0,164,165
 350 248 350 248 339 258 c 256,166,167
 328 268 328 268 321 274 c 0,168,169
 314 279 314 279 294 291 c 256,170,171
 274 303 274 303 266 307 c 2,172,-1
 244 317 l 1,173,-1
 232 324 l 1,115,-1
284 356 m 1,174,175
 291 359 291 359 296 362 c 0,176,177
 302 366 302 366 312 374 c 256,178,179
 322 382 322 382 331 390 c 0,180,181
 339 398 339 398 347 411 c 256,182,183
 355 424 355 424 360 436 c 0,184,185
 364 448 364 448 368 470 c 0,186,187
 372 490 372 490 372 510 c 256,188,189
 372 530 372 530 370 546 c 0,190,191
 367 565 367 565 361 581 c 0,192,193
 355 596 355 596 343 610 c 0,194,195
 332 624 332 624 318 632 c 256,196,197
 304 640 304 640 288 644 c 256,198,199
 272 648 272 648 259 648 c 0,200,201
 245 648 245 648 228 645 c 0,202,203
 212 641 212 641 196 633 c 0,204,205
 180 624 180 624 168 610 c 256,206,207
 156 596 156 596 149 580 c 0,208,209
 143 564 143 564 140 548 c 0,210,211
 138 534 138 534 138 516 c 256,212,213
 138 498 138 498 140 488 c 0,214,215
 142 475 142 475 149 462 c 0,216,217
 155 449 155 449 166 437 c 0,218,219
 176 425 176 425 186 416 c 0,220,221
 196 408 196 408 212 398 c 2,222,-1
 242 379 l 2,223,224
 256 370 256 370 264 366 c 2,225,-1
 284 356 l 1,174,175
309 343 m 1,226,227
 321 335 321 335 334 326 c 0,228,229
 346 318 346 318 358 310 c 256,230,231
 370 302 370 302 383 290 c 0,232,233
 396 279 396 279 410 262 c 0,234,235
 424 246 424 246 434 223 c 256,236,237
 444 200 444 200 448 177 c 0,238,239
 451 154 451 154 451 138 c 0,240,241
 451 116 451 116 446 95 c 0,242,243
 442 74 442 74 437 60 c 256,244,245
 432 46 432 46 424 32 c 256,246,247
 416 18 416 18 404 5 c 256,248,249
 392 -8 392 -8 378 -20 c 0,250,251
 365 -31 365 -31 354 -37 c 256,252,253
 343 -43 343 -43 330 -48 c 0,254,255
 318 -53 318 -53 304 -56 c 0,256,257
 291 -60 291 -60 276 -61 c 0,258,259
 262 -62 262 -62 252 -62 c 0,260,261
 240 -62 240 -62 226 -61 c 256,262,263
 212 -60 212 -60 200 -57 c 0,264,265
 187 -54 187 -54 174 -48 c 0,266,267
 160 -43 160 -43 146 -34 c 0,268,269
 132 -26 132 -26 122 -16 c 256,270,271
 112 -6 112 -6 102 6 c 256,272,273
 92 18 92 18 83 35 c 256,274,275
 74 52 74 52 69 68 c 0,276,277
 64 83 64 83 62 102 c 0,278,279
 60 120 60 120 60 142 c 0,280,281
 60 166 60 166 65 192 c 0,282,283
 70 217 70 217 85 242 c 0,284,285
 100 268 100 268 118 284 c 256,286,287
 136 300 136 300 154 310 c 0,288,289
 171 321 171 321 183 327 c 2,290,-1
 206 338 l 1,291,292
 187 349 187 349 176 356 c 0,293,294
 164 364 164 364 146 379 c 256,295,296
 128 394 128 394 116 410 c 0,297,298
 103 425 103 425 96 442 c 0,299,300
 88 458 88 458 84 473 c 256,301,302
 80 488 80 488 81 508 c 0,303,304
 81 526 81 526 84 545 c 0,305,306
 88 564 88 564 96 582 c 256,307,308
 104 600 104 600 116 617 c 256,309,310
 128 634 128 634 143 646 c 256,311,312
 158 658 158 658 178 666 c 0,313,314
 197 674 197 674 218 678 c 0,315,316
 238 682 238 682 256 682 c 0,317,318
 272 682 272 682 293 678 c 256,319,320
 314 674 314 674 334 665 c 0,321,322
 353 656 353 656 370 643 c 0,323,324
 386 630 386 630 402 607 c 256,325,326
 418 584 418 584 423 558 c 256,327,328
 428 532 428 532 428 512 c 0,329,330
 428 486 428 486 424 468 c 256,331,332
 420 450 420 450 412 433 c 0,333,334
 405 416 405 416 395 404 c 0,335,336
 385 391 385 391 372 380 c 256,337,338
 359 369 359 369 350 364 c 0,339,340
 342 360 342 360 326 352 c 2,341,-1
 309 343 l 1,226,227
232 324 m 1,342,343
 220 318 220 318 210 312 c 256,344,345
 200 306 200 306 189 298 c 256,346,347
 178 290 178 290 168 280 c 0,348,349
 159 270 159 270 150 257 c 0,350,351
 140 244 140 244 135 231 c 256,352,353
 130 218 130 218 126 201 c 256,354,355
 122 184 122 184 121 167 c 256,356,357
 120 150 120 150 120 134 c 0,358,359
 120 109 120 109 124 82 c 0,360,361
 128 56 128 56 139 38 c 256,362,363
 150 20 150 20 159 10 c 0,364,365
 168 -1 168 -1 182 -10 c 0,366,367
 196 -20 196 -20 213 -25 c 256,368,369
 230 -30 230 -30 252 -30 c 0,370,371
 270 -30 270 -30 285 -27 c 256,372,373
 300 -24 300 -24 314 -17 c 256,374,375
 328 -10 328 -10 342 1 c 256,376,377
 356 12 356 12 365 27 c 256,378,379
 374 42 374 42 379 57 c 256,380,381
 384 72 384 72 387 92 c 0,382,383
 390 113 390 113 390 130 c 256,384,385
 390 147 390 147 387 162 c 0,386,387
 384 178 384 178 382 187 c 0,388,389
 379 196 379 196 372 210 c 0,390,391
 366 224 366 224 358 236 c 256,392,393
 350 248 350 248 339 258 c 256,394,395
 328 268 328 268 321 273 c 256,396,397
 314 278 314 278 294 291 c 256,398,399
 274 304 274 304 266 307 c 2,400,-1
 244 317 l 1,401,-1
 232 324 l 1,342,343
284 356 m 1,402,403
 291 359 291 359 296 362 c 0,404,405
 302 366 302 366 312 374 c 0,406,407
 323 382 323 382 331 390 c 256,408,409
 339 398 339 398 348 411 c 0,410,411
 356 424 356 424 360 436 c 256,412,413
 364 448 364 448 368 470 c 0,414,415
 372 491 372 491 372 510 c 0,416,417
 372 530 372 530 370 546 c 0,418,419
 367 565 367 565 360 580 c 0,420,421
 354 596 354 596 343 610 c 256,422,423
 332 624 332 624 318 632 c 0,424,425
 305 640 305 640 288 644 c 0,426,427
 272 648 272 648 259 648 c 0,428,429
 245 648 245 648 228 645 c 0,430,431
 212 642 212 642 196 634 c 0,432,433
 180 625 180 625 168 610 c 0,434,435
 156 596 156 596 149 580 c 0,436,437
 142 563 142 563 140 548 c 256,438,439
 138 533 138 533 138 516 c 0,440,441
 138 498 138 498 140 488 c 0,442,443
 142 475 142 475 149 462 c 256,444,445
 156 449 156 449 166 436 c 0,446,447
 176 424 176 424 186 416 c 256,448,449
 196 408 196 408 212 398 c 256,450,451
 228 388 228 388 242 379 c 256,452,453
 256 370 256 370 264 366 c 2,454,-1
 284 356 l 1,402,403
EndSplineSet
EndChar
StartChar: nine
Encoding: 57 57 28
Width: 512
Flags: W
LayerCount: 2
Back
Fore
SplineSet
378 306 m 1,0,1
 364 292 364 292 353 282 c 0,2,3
 343 272 343 272 329 263 c 256,4,5
 315 254 315 254 301 247 c 0,6,7
 286 240 286 240 268 235 c 0,8,9
 250 229 250 229 222 231 c 0,10,11
 208 231 208 231 198 234 c 0,12,13
 187 236 187 236 176 240 c 0,14,15
 166 244 166 244 151 254 c 256,16,17
 136 264 136 264 126 273 c 0,18,19
 116 283 116 283 106 300 c 0,20,21
 96 316 96 316 88 335 c 0,22,23
 80 353 80 353 78 371 c 0,24,25
 75 390 75 390 74 406 c 256,26,27
 73 422 73 422 73 440 c 256,28,29
 73 458 73 458 75 478 c 0,30,31
 76 497 76 497 80 516 c 256,32,33
 84 535 84 535 91 554 c 0,34,35
 98 572 98 572 110 593 c 256,36,37
 122 614 122 614 137 630 c 0,38,39
 153 646 153 646 167 656 c 0,40,41
 181 664 181 664 198 670 c 0,42,43
 214 676 214 676 225 679 c 256,44,45
 236 682 236 682 257 682 c 0,46,47
 275 682 275 682 293 678 c 256,48,49
 311 674 311 674 329 664 c 0,50,51
 346 654 346 654 362 639 c 0,52,53
 377 625 377 625 390 607 c 0,54,55
 402 589 402 589 413 559 c 0,56,57
 423 529 423 529 429 495 c 0,58,59
 434 462 434 462 435 442 c 256,60,61
 436 422 436 422 438 383 c 0,62,63
 440 345 440 345 439 331 c 0,64,65
 438 330 438 330 436 290 c 2,66,-1
 434 250 l 2,67,68
 432 229 432 229 430 199 c 0,69,70
 426 170 426 170 422 146 c 0,71,72
 418 123 418 123 406 88 c 0,73,74
 395 54 395 54 380 28 c 0,75,76
 364 3 364 3 348 -13 c 256,77,78
 332 -29 332 -29 314 -41 c 0,79,80
 296 -52 296 -52 281 -56 c 0,81,82
 265 -60 265 -60 253 -62 c 256,83,84
 241 -64 241 -64 235 -64 c 0,85,86
 226 -64 226 -64 214 -63 c 0,87,88
 202 -61 202 -61 191 -59 c 256,89,90
 180 -57 180 -57 162 -49 c 256,91,92
 144 -41 144 -41 129 -28 c 0,93,94
 116 -15 116 -15 106 0 c 0,95,96
 97 14 97 14 93 30 c 256,97,98
 89 46 89 46 89 64 c 0,99,100
 88 82 88 82 95 96 c 0,101,102
 101 110 101 110 113 118 c 0,103,104
 126 126 126 126 138 126 c 0,105,106
 144 126 144 126 151 122 c 0,107,108
 158 119 158 119 166 108 c 0,109,110
 174 98 174 98 172 84 c 0,111,112
 170 73 170 73 166 70 c 0,113,114
 162 66 162 66 154 60 c 256,115,116
 146 54 146 54 142 48 c 0,117,118
 138 40 138 40 138 28 c 256,119,120
 138 16 138 16 146 4 c 0,121,122
 152 -8 152 -8 169 -17 c 0,123,124
 185 -25 185 -25 198 -29 c 0,125,126
 212 -32 212 -32 222 -32 c 0,127,128
 230 -32 230 -32 245 -30 c 256,129,130
 260 -28 260 -28 276 -24 c 0,131,132
 291 -20 291 -20 306 -3 c 0,133,134
 320 12 320 12 330 30 c 0,135,136
 339 48 339 48 346 70 c 0,137,138
 354 92 354 92 358 112 c 256,139,140
 362 132 362 132 366 154 c 0,141,142
 369 176 369 176 372 207 c 0,143,144
 375 239 375 239 376 272 c 256,145,146
 377 305 377 305 378 306 c 1,0,1
378 344 m 1,147,-1
 378 360 l 1,148,-1
 378 403 l 1,149,-1
 376 436 l 1,150,-1
 374 479 l 2,151,152
 372 500 372 500 369 519 c 0,153,154
 365 539 365 539 359 559 c 0,155,156
 352 578 352 578 342 596 c 0,157,158
 332 612 332 612 318 624 c 0,159,160
 304 635 304 635 289 641 c 0,161,162
 273 646 273 646 257 646 c 0,163,164
 230 646 230 646 210 634 c 256,165,166
 190 622 190 622 174 598 c 0,167,168
 158 573 158 573 151 550 c 0,169,170
 145 528 145 528 142 511 c 0,171,172
 140 495 140 495 138 468 c 256,173,174
 136 441 136 441 136 428 c 0,175,176
 136 416 136 416 138 398 c 0,177,178
 140 372 140 372 146 349 c 0,179,180
 152 327 152 327 164 309 c 0,181,182
 176 290 176 290 188 282 c 256,183,184
 200 274 200 274 212 270 c 0,185,186
 225 266 225 266 239 266 c 0,187,188
 255 266 255 266 271 271 c 0,189,190
 287 275 287 275 299 282 c 0,191,192
 311 290 311 290 330 302 c 0,193,194
 348 314 348 314 358 324 c 2,195,-1
 378 344 l 1,147,-1
378 306 m 1,196,197
 364 292 364 292 353 282 c 256,198,199
 342 272 342 272 329 263 c 256,200,201
 316 254 316 254 302 247 c 0,202,203
 287 240 287 240 268 235 c 0,204,205
 250 230 250 230 222 231 c 0,206,207
 208 231 208 231 198 234 c 0,208,209
 187 236 187 236 176 240 c 0,210,211
 166 244 166 244 151 254 c 256,212,213
 136 264 136 264 126 274 c 0,214,215
 116 283 116 283 106 300 c 0,216,217
 96 316 96 316 89 335 c 256,218,219
 82 354 82 354 79 372 c 0,220,221
 76 389 76 389 74 406 c 0,222,223
 73 422 73 422 73 440 c 256,224,225
 73 458 73 458 75 478 c 0,226,227
 77 497 77 497 80 516 c 0,228,229
 84 535 84 535 91 554 c 0,230,231
 98 572 98 572 110 593 c 256,232,233
 122 614 122 614 138 630 c 0,234,235
 153 646 153 646 168 655 c 0,236,237
 182 664 182 664 198 670 c 256,238,239
 214 676 214 676 225 679 c 256,240,241
 236 682 236 682 257 682 c 0,242,243
 275 682 275 682 293 678 c 256,244,245
 311 674 311 674 330 664 c 0,246,247
 348 654 348 654 363 640 c 0,248,249
 378 625 378 625 390 608 c 0,250,251
 402 590 402 590 413 559 c 256,252,253
 424 528 424 528 429 494 c 0,254,255
 434 461 434 461 435 442 c 0,256,257
 436 422 436 422 438 383 c 0,258,259
 439 344 439 344 439 331 c 0,260,261
 438 330 438 330 436 290 c 2,262,-1
 434 250 l 2,263,264
 432 229 432 229 429 198 c 0,265,266
 426 168 426 168 422 145 c 256,267,268
 418 122 418 122 406 88 c 0,269,270
 395 54 395 54 380 29 c 0,271,272
 364 4 364 4 348 -13 c 256,273,274
 332 -30 332 -30 314 -41 c 256,275,276
 296 -52 296 -52 280 -56 c 0,277,278
 265 -61 265 -61 253 -62 c 0,279,280
 241 -64 241 -64 235 -64 c 0,281,282
 227 -64 227 -64 214 -63 c 0,283,284
 202 -62 202 -62 191 -59 c 256,285,286
 180 -56 180 -56 162 -48 c 0,287,288
 144 -41 144 -41 129 -28 c 256,289,290
 114 -15 114 -15 105 0 c 0,291,292
 96 14 96 14 93 30 c 256,293,294
 90 46 90 46 89 64 c 0,295,296
 88 80 88 80 95 96 c 0,297,298
 101 110 101 110 112 118 c 0,299,300
 124 126 124 126 138 126 c 0,301,302
 144 126 144 126 151 122 c 0,303,304
 158 119 158 119 166 108 c 0,305,306
 174 98 174 98 172 84 c 0,307,308
 170 73 170 73 166 70 c 0,309,310
 162 66 162 66 154 60 c 0,311,312
 146 55 146 55 142 48 c 0,313,314
 138 40 138 40 138 28 c 256,315,316
 138 16 138 16 145 4 c 256,317,318
 152 -8 152 -8 168 -17 c 0,319,320
 185 -26 185 -26 198 -29 c 0,321,322
 212 -32 212 -32 222 -32 c 0,323,324
 230 -32 230 -32 245 -30 c 256,325,326
 260 -28 260 -28 276 -24 c 0,327,328
 291 -20 291 -20 306 -4 c 0,329,330
 320 13 320 13 330 30 c 0,331,332
 339 48 339 48 346 70 c 0,333,334
 354 92 354 92 358 112 c 0,335,336
 362 133 362 133 365 154 c 0,337,338
 368 176 368 176 372 207 c 0,339,340
 375 238 375 238 376 272 c 0,341,342
 377 305 377 305 378 306 c 1,196,197
378 344 m 1,343,-1
 378 360 l 1,344,-1
 378 403 l 1,345,-1
 376 436 l 1,346,-1
 374 479 l 2,347,348
 372 500 372 500 369 519 c 256,349,350
 366 538 366 538 359 559 c 256,351,352
 352 580 352 580 342 597 c 256,353,354
 332 614 332 614 318 625 c 256,355,356
 304 636 304 636 289 641 c 256,357,358
 274 646 274 646 257 646 c 0,359,360
 230 646 230 646 210 634 c 256,361,362
 190 622 190 622 174 597 c 256,363,364
 158 572 158 572 151 550 c 256,365,366
 144 528 144 528 142 511 c 256,367,368
 140 494 140 494 138 468 c 0,369,370
 136 441 136 441 136 428 c 0,371,372
 136 416 136 416 138 398 c 0,373,374
 140 372 140 372 146 349 c 256,375,376
 152 326 152 326 164 308 c 0,377,378
 176 291 176 291 188 282 c 0,379,380
 200 274 200 274 212 270 c 0,381,382
 225 266 225 266 239 266 c 0,383,384
 255 266 255 266 270 271 c 0,385,386
 286 276 286 276 299 282 c 0,387,388
 312 289 312 289 330 302 c 0,389,390
 348 314 348 314 358 324 c 2,391,-1
 378 344 l 1,343,-1
EndSplineSet
EndChar
StartChar: colon
Encoding: 58 58 29
Width: 512
Flags: W
LayerCount: 2
Back
Fore
SplineSet
256 433 m 0,0,1
 272 432 272 432 288 424 c 256,2,3
 304 416 304 416 313 400 c 256,4,5
 322 384 322 384 322 366 c 256,6,7
 322 348 322 348 313 333 c 0,8,9
 304 317 304 317 289 309 c 0,10,11
 275 300 275 300 256 300 c 0,12,13
 238 300 238 300 222 309 c 0,14,15
 206 317 206 317 198 333 c 256,16,17
 190 349 190 349 190 366 c 0,18,19
 190 384 190 384 198 400 c 0,20,21
 208 416 208 416 224 424 c 0,22,23
 240 433 240 433 256 433 c 0,0,1
256 69 m 0,24,25
 273 69 273 69 288 60 c 0,26,27
 304 52 304 52 313 36 c 256,28,29
 322 20 322 20 322 3 c 256,30,31
 322 -14 322 -14 313 -30 c 256,32,33
 304 -46 304 -46 289 -54 c 0,34,35
 275 -62 275 -62 256 -62 c 0,36,37
 238 -62 238 -62 222 -54 c 256,38,39
 206 -46 206 -46 198 -30 c 256,40,41
 190 -14 190 -14 190 3 c 256,42,43
 190 20 190 20 199 36 c 0,44,45
 207 52 207 52 223 60 c 256,46,47
 239 68 239 68 256 69 c 0,24,25
240 433 m 1,48,49
 272 433 272 433 288 424 c 0,50,51
 304 416 304 416 313 400 c 256,52,53
 322 384 322 384 322 366 c 256,54,55
 322 348 322 348 313 333 c 256,56,57
 304 318 304 318 289 309 c 256,58,59
 274 300 274 300 256 300 c 256,60,61
 238 300 238 300 222 309 c 0,62,63
 207 318 207 318 198 333 c 0,64,65
 190 348 190 348 190 366 c 256,66,67
 190 384 190 384 198 400 c 0,68,69
 207 416 207 416 240 433 c 1,48,49
239 69 m 1,70,71
 273 69 273 69 288 60 c 0,72,73
 304 52 304 52 313 36 c 256,74,75
 322 20 322 20 322 3 c 256,76,77
 322 -14 322 -14 313 -30 c 256,78,79
 304 -46 304 -46 289 -54 c 256,80,81
 274 -62 274 -62 256 -62 c 256,82,83
 238 -62 238 -62 222 -54 c 0,84,85
 207 -46 207 -46 198 -30 c 0,86,87
 190 -14 190 -14 190 3 c 256,88,89
 190 20 190 20 199 36 c 256,90,91
 208 52 208 52 239 69 c 1,70,71
EndSplineSet
EndChar
StartChar: semicolon
Encoding: 59 59 30
Width: 512
Flags: W
LayerCount: 2
Back
Fore
SplineSet
257 433 m 0,0,1
 273 433 273 433 289 424 c 0,2,3
 305 416 305 416 314 400 c 256,4,5
 323 384 323 384 323 366 c 256,6,7
 323 348 323 348 313 333 c 0,8,9
 304 317 304 317 290 309 c 0,10,11
 275 300 275 300 257 300 c 0,12,13
 238 300 238 300 223 309 c 0,14,15
 209 318 209 318 199 333 c 0,16,17
 190 349 190 349 190 366 c 0,18,19
 189 384 189 384 199 400 c 0,20,21
 208 416 208 416 224 424 c 256,22,23
 240 432 240 432 257 433 c 0,0,1
215 -193 m 1,24,-1
 200 -176 l 1,25,-1
 222 -151 l 2,26,27
 232 -139 232 -139 242 -126 c 0,28,29
 251 -112 251 -112 257 -98 c 256,30,31
 263 -84 263 -84 263 -72 c 0,32,33
 263 -64 263 -64 259 -58 c 256,34,35
 255 -52 255 -52 246 -49 c 2,36,-1
 223 -43 l 2,37,38
 205 -37 205 -37 196 -26 c 0,39,40
 188 -14 188 -14 188 4 c 0,41,42
 187 22 187 22 195 36 c 0,43,44
 203 51 203 51 217 59 c 0,45,46
 231 66 231 66 245 67 c 0,47,48
 261 68 261 68 275 62 c 0,49,50
 291 56 291 56 301 44 c 256,51,52
 311 32 311 32 317 17 c 0,53,54
 323 1 323 1 323 -22 c 0,55,56
 323 -34 323 -34 319 -52 c 0,57,58
 316 -70 316 -70 309 -86 c 0,59,60
 303 -102 303 -102 289 -120 c 0,61,62
 276 -138 276 -138 261 -154 c 0,63,64
 245 -170 245 -170 238 -175 c 2,65,-1
 215 -193 l 1,24,-1
257 433 m 0,66,67
 273 433 273 433 289 424 c 0,68,69
 305 416 305 416 314 400 c 256,70,71
 323 384 323 384 323 366 c 256,72,73
 323 348 323 348 314 333 c 256,74,75
 305 318 305 318 290 309 c 256,76,77
 275 300 275 300 257 300 c 0,78,79
 238 300 238 300 223 309 c 0,80,81
 209 318 209 318 200 334 c 0,82,83
 191 349 191 349 191 366 c 0,84,85
 189 384 189 384 199 400 c 0,86,87
 208 416 208 416 224 424 c 0,88,89
 240 433 240 433 257 433 c 0,66,67
215 -193 m 1,90,-1
 200 -176 l 1,91,92
 212 -163 212 -163 223 -152 c 0,93,94
 233 -140 233 -140 242 -126 c 256,95,96
 251 -112 251 -112 257 -98 c 256,97,98
 263 -84 263 -84 263 -72 c 0,99,100
 263 -64 263 -64 259 -58 c 0,101,102
 256 -53 256 -53 246 -49 c 2,103,-1
 223 -43 l 2,104,105
 205 -37 205 -37 197 -26 c 0,106,107
 188 -14 188 -14 188 4 c 0,108,109
 187 22 187 22 195 36 c 0,110,111
 203 51 203 51 217 58 c 0,112,113
 231 66 231 66 245 67 c 0,114,115
 261 68 261 68 275 62 c 0,116,117
 290 56 290 56 301 44 c 0,118,119
 311 32 311 32 317 17 c 256,120,121
 323 2 323 2 323 -22 c 0,122,123
 323 -34 323 -34 319 -52 c 0,124,125
 316 -70 316 -70 309 -86 c 0,126,127
 303 -102 303 -102 290 -120 c 256,128,129
 277 -138 277 -138 261 -154 c 256,130,131
 245 -170 245 -170 238 -175 c 2,132,-1
 215 -193 l 1,90,-1
EndSplineSet
EndChar
StartChar: less
Encoding: 60 60 31
Width: 512
Flags: W
LayerCount: 2
Back
Fore
SplineSet
48 306 m 1,0,-1
 463 658 l 1,1,-1
 464 610 l 1,2,-1
 110 306 l 1,3,-1
 463 4 l 1,4,-1
 463 -50 l 1,5,-1
 48 306 l 1,0,-1
48 306 m 1,6,-1
 463 658 l 1,7,-1
 464 610 l 1,8,-1
 110 306 l 1,9,-1
 463 4 l 1,10,-1
 463 -50 l 1,11,-1
 48 306 l 1,6,-1
EndSplineSet
EndChar
StartChar: greater
Encoding: 62 62 33
Width: 512
Flags: W
LayerCount: 2
Back
Fore
SplineSet
464 306 m 1,0,-1
 48 -50 l 1,1,-1
 48 4 l 1,2,-1
 401 306 l 1,3,-1
 48 610 l 1,4,-1
 48 658 l 1,5,-1
 464 306 l 1,0,-1
464 306 m 1,6,-1
 48 -50 l 1,7,-1
 48 4 l 1,8,-1
 401 306 l 1,9,-1
 48 610 l 1,10,-1
 48 658 l 1,11,-1
 464 306 l 1,6,-1
EndSplineSet
EndChar
StartChar: question
Encoding: 63 63 34
Width: 512
Flags: W
LayerCount: 2
Back
Fore
SplineSet
232 142 m 1,0,-1
 232 196 l 2,1,2
 232 217 232 217 233 236 c 256,3,4
 234 255 234 255 236 270 c 0,5,6
 238 284 238 284 244 300 c 0,7,8
 249 316 249 316 258 332 c 0,9,10
 266 348 266 348 276 360 c 256,11,12
 286 372 286 372 302 392 c 0,13,14
 319 411 319 411 328 422 c 0,15,16
 337 434 337 434 347 450 c 0,17,18
 357 465 357 465 362 481 c 0,19,20
 368 498 368 498 369 516 c 0,21,22
 369 534 369 534 367 548 c 0,23,24
 366 560 366 560 358 576 c 0,25,26
 351 592 351 592 335 610 c 0,27,28
 320 628 320 628 300 636 c 256,29,30
 280 644 280 644 252 646 c 0,31,32
 224 646 224 646 202 640 c 0,33,34
 180 633 180 633 168 622 c 0,35,36
 154 612 154 612 144 600 c 256,37,38
 134 588 134 588 128 576 c 256,39,40
 122 564 122 564 123 554 c 0,41,42
 122 542 122 542 128 536 c 0,43,44
 132 530 132 530 142 525 c 0,45,46
 151 519 151 519 154 517 c 0,47,48
 156 515 156 515 161 507 c 256,49,50
 166 499 166 499 166 487 c 256,51,52
 166 475 166 475 159 464 c 0,53,54
 153 455 153 455 141 450 c 0,55,56
 129 444 129 444 118 445 c 0,57,58
 95 445 95 445 85 458 c 0,59,60
 75 470 75 470 71 482 c 256,61,62
 67 494 67 494 67 512 c 0,63,64
 68 530 68 530 72 552 c 256,65,66
 76 574 76 574 84 588 c 0,67,68
 92 604 92 604 105 618 c 0,69,70
 117 632 117 632 130 642 c 256,71,72
 143 652 143 652 161 661 c 0,73,74
 178 670 178 670 202 676 c 256,75,76
 226 682 226 682 252 682 c 0,77,78
 280 682 280 682 306 676 c 256,79,80
 332 670 332 670 354 660 c 256,81,82
 376 650 376 650 393 634 c 0,83,84
 411 618 411 618 422 599 c 0,85,86
 434 580 434 580 440 561 c 0,87,88
 446 540 446 540 446 518 c 0,89,90
 446 495 446 495 442 476 c 0,91,92
 438 459 438 459 430 443 c 256,93,94
 422 427 422 427 406 410 c 0,95,96
 391 392 391 392 372 376 c 2,97,-1
 340 349 l 2,98,99
 318 329 318 329 302 311 c 256,100,101
 286 293 286 293 280 280 c 256,102,103
 274 267 274 267 268 241 c 256,104,105
 262 215 262 215 262 184 c 2,106,-1
 262 162 l 1,107,-1
 262 141 l 1,108,-1
 232 142 l 1,0,-1
230 66 m 1,109,110
 262 66 262 66 278 57 c 0,111,112
 294 50 294 50 302 34 c 256,113,114
 310 18 310 18 310 1 c 256,115,116
 310 -16 310 -16 302 -31 c 0,117,118
 294 -45 294 -45 278 -54 c 0,119,120
 264 -62 264 -62 246 -62 c 256,121,122
 228 -62 228 -62 214 -54 c 0,123,124
 198 -46 198 -46 190 -31 c 256,125,126
 182 -16 182 -16 182 1 c 256,127,128
 182 18 182 18 190 34 c 256,129,130
 198 50 198 50 214 57 c 2,131,-1
 230 66 l 1,109,110
232 142 m 1,132,-1
 232 196 l 2,133,134
 232 217 232 217 233 236 c 256,135,136
 234 255 234 255 236 270 c 0,137,138
 239 284 239 284 244 300 c 256,139,140
 249 316 249 316 258 332 c 0,141,142
 266 348 266 348 276 360 c 0,143,144
 286 373 286 373 302 392 c 0,145,146
 319 411 319 411 328 422 c 0,147,148
 337 434 337 434 346 449 c 0,149,150
 356 464 356 464 362 481 c 256,151,152
 368 498 368 498 369 516 c 256,153,154
 370 534 370 534 367 548 c 0,155,156
 365 560 365 560 358 576 c 0,157,158
 350 592 350 592 335 610 c 256,159,160
 320 628 320 628 300 637 c 256,161,162
 280 646 280 646 252 646 c 256,163,164
 224 646 224 646 202 639 c 0,165,166
 181 632 181 632 168 622 c 0,167,168
 154 612 154 612 144 600 c 256,169,170
 134 588 134 588 128 576 c 256,171,172
 122 564 122 564 123 554 c 0,173,174
 123 542 123 542 128 536 c 0,175,176
 134 530 134 530 143 524 c 0,177,178
 152 519 152 519 154 516 c 0,179,180
 156 514 156 514 161 506 c 0,181,182
 166 499 166 499 166 486 c 0,183,184
 166 474 166 474 159 464 c 0,185,186
 153 455 153 455 142 450 c 0,187,188
 130 444 130 444 118 445 c 0,189,190
 95 445 95 445 85 458 c 0,191,192
 75 470 75 470 71 482 c 256,193,194
 67 494 67 494 67 512 c 0,195,196
 68 530 68 530 72 552 c 256,197,198
 76 574 76 574 84 589 c 256,199,200
 92 604 92 604 105 618 c 256,201,202
 118 632 118 632 130 642 c 0,203,204
 143 652 143 652 161 661 c 256,205,206
 179 670 179 670 202 676 c 0,207,208
 226 682 226 682 252 682 c 0,209,210
 280 682 280 682 306 676 c 256,211,212
 332 670 332 670 354 660 c 0,213,214
 376 649 376 649 393 634 c 0,215,216
 410 618 410 618 422 599 c 256,217,218
 434 580 434 580 440 561 c 256,219,220
 446 542 446 542 446 519 c 256,221,222
 446 496 446 496 442 476 c 0,223,224
 438 459 438 459 430 442 c 0,225,226
 421 426 421 426 406 410 c 0,227,228
 391 392 391 392 372 376 c 2,229,-1
 340 349 l 2,230,231
 318 329 318 329 302 310 c 0,232,233
 286 292 286 292 280 280 c 0,234,235
 274 267 274 267 268 240 c 0,236,237
 262 214 262 214 262 184 c 2,238,-1
 262 162 l 1,239,-1
 262 141 l 1,240,-1
 232 142 l 1,132,-1
230 66 m 1,241,242
 262 66 262 66 278 58 c 0,243,244
 293 49 293 49 302 34 c 0,245,246
 310 18 310 18 310 1 c 256,247,248
 310 -16 310 -16 302 -31 c 0,249,250
 293 -46 293 -46 278 -54 c 0,251,252
 264 -62 264 -62 246 -62 c 256,253,254
 228 -62 228 -62 214 -54 c 0,255,256
 199 -46 199 -46 190 -31 c 0,257,258
 182 -16 182 -16 182 1 c 256,259,260
 182 18 182 18 190 34 c 256,261,262
 198 50 198 50 230 66 c 1,241,242
EndSplineSet
EndChar
StartChar: at
Encoding: 64 64 35
Width: 512
Flags: W
LayerCount: 2
Back
Fore
SplineSet
276 146 m 1,0,1
 266 134 266 134 259 126 c 0,2,3
 251 118 251 118 237 110 c 256,4,5
 223 102 223 102 207 100 c 0,6,7
 193 98 193 98 178 105 c 0,8,9
 164 111 164 111 154 130 c 256,10,11
 144 149 144 149 141 169 c 256,12,13
 138 189 138 189 138 205 c 0,14,15
 138 220 138 220 140 242 c 0,16,17
 142 266 142 266 145 289 c 0,18,19
 149 311 149 311 154 336 c 0,20,21
 160 360 160 360 168 384 c 256,22,23
 176 408 176 408 187 432 c 0,24,25
 199 456 199 456 211 473 c 0,26,27
 223 491 223 491 242 504 c 0,28,29
 262 516 262 516 280 516 c 0,30,31
 292 516 292 516 302 512 c 0,32,33
 314 506 314 506 318 500 c 2,34,-1
 328 488 l 1,35,-1
 332 507 l 1,36,-1
 381 508 l 1,37,-1
 328 185 l 2,38,39
 324 158 324 158 326 151 c 0,40,41
 330 143 330 143 338 142 c 0,42,43
 347 141 347 141 358 152 c 0,44,45
 366 160 366 160 374 174 c 256,46,47
 382 188 382 188 396 218 c 0,48,49
 410 249 410 249 416 272 c 0,50,51
 422 294 422 294 425 324 c 0,52,53
 428 353 428 353 428 386 c 0,54,55
 428 420 428 420 422 461 c 0,56,57
 416 498 416 498 404 530 c 256,58,59
 392 562 392 562 377 586 c 0,60,61
 361 610 361 610 342 626 c 256,62,63
 323 642 323 642 301 650 c 0,64,65
 280 658 280 658 256 656 c 0,66,67
 236 655 236 655 209 645 c 0,68,69
 183 635 183 635 153 593 c 0,70,71
 123 550 123 550 106 500 c 0,72,73
 90 449 90 449 85 410 c 0,74,75
 81 371 81 371 80 334 c 0,76,77
 80 296 80 296 82 264 c 0,78,79
 83 226 83 226 85 194 c 0,80,81
 88 162 88 162 94 134 c 256,82,83
 100 106 100 106 110 80 c 256,84,85
 120 54 120 54 135 32 c 256,86,87
 150 10 150 10 170 -7 c 0,88,89
 190 -23 190 -23 214 -32 c 0,90,91
 239 -40 239 -40 262 -40 c 0,92,93
 290 -40 290 -40 312 -30 c 0,94,95
 334 -19 334 -19 354 -1 c 0,96,97
 374 16 374 16 388 39 c 0,98,99
 402 63 402 63 412 81 c 256,100,101
 422 99 422 99 429 119 c 0,102,103
 438 139 438 139 444 162 c 0,104,105
 451 186 451 186 453 195 c 2,106,-1
 463 238 l 1,107,-1
 485 238 l 1,108,109
 478 201 478 201 472 178 c 0,110,111
 466 156 466 156 459 134 c 256,112,113
 452 112 452 112 442 88 c 256,114,115
 432 64 432 64 420 42 c 0,116,117
 408 18 408 18 391 -2 c 256,118,119
 374 -22 374 -22 360 -34 c 256,120,121
 346 -46 346 -46 329 -56 c 0,122,123
 313 -66 313 -66 293 -72 c 0,124,125
 274 -76 274 -76 258 -76 c 0,126,127
 238 -76 238 -76 218 -72 c 256,128,129
 198 -68 198 -68 179 -58 c 0,130,131
 159 -49 159 -49 137 -32 c 0,132,133
 116 -14 116 -14 97 10 c 0,134,135
 77 35 77 35 64 70 c 0,136,137
 50 104 50 104 44 133 c 0,138,139
 38 163 38 163 36 184 c 0,140,141
 34 206 34 206 31 240 c 0,142,143
 28 275 28 275 28 298 c 0,144,145
 28 320 28 320 30 346 c 0,146,147
 32 386 32 386 38 428 c 256,148,149
 44 470 44 470 60 514 c 0,150,151
 76 557 76 557 96 587 c 0,152,153
 116 616 116 616 140 640 c 0,154,155
 164 663 164 663 192 677 c 0,156,157
 220 690 220 690 254 690 c 0,158,159
 294 690 294 690 326 674 c 0,160,161
 359 657 359 657 378 635 c 0,162,163
 396 613 396 613 408 592 c 0,164,165
 420 570 420 570 429 544 c 0,166,167
 439 517 439 517 444 494 c 0,168,169
 450 470 450 470 453 442 c 256,170,171
 456 414 456 414 456 387 c 0,172,173
 456 369 456 369 454 346 c 0,174,175
 452 322 452 322 449 299 c 0,176,177
 445 275 445 275 439 254 c 256,178,179
 433 233 433 233 422 210 c 0,180,181
 412 186 412 186 401 168 c 0,182,183
 391 150 391 150 380 137 c 0,184,185
 368 124 368 124 356 113 c 0,186,187
 343 102 343 102 331 98 c 256,188,189
 319 94 319 94 306 98 c 0,190,191
 296 101 296 101 290 109 c 0,192,193
 283 116 283 116 281 126 c 2,194,-1
 276 146 l 1,0,1
294 270 m 2,195,-1
 310 383 l 2,196,197
 316 421 316 421 317 438 c 0,198,199
 318 456 318 456 307 469 c 0,200,201
 295 482 295 482 280 482 c 0,202,203
 266 482 266 482 250 463 c 0,204,205
 240 452 240 452 232 432 c 256,206,207
 224 412 224 412 217 384 c 0,208,209
 209 356 209 356 205 332 c 256,210,211
 201 308 201 308 196 271 c 256,212,213
 191 234 191 234 191 222 c 256,214,215
 191 210 191 210 191 196 c 0,216,217
 191 174 191 174 192 164 c 0,218,219
 194 153 194 153 201 144 c 0,220,221
 208 136 208 136 220 136 c 0,222,223
 228 136 228 136 238 143 c 256,224,225
 248 150 248 150 256 160 c 256,226,227
 264 170 264 170 269 183 c 0,228,229
 275 195 275 195 280 212 c 0,230,231
 286 229 286 229 288 241 c 0,232,233
 291 253 291 253 294 270 c 2,195,-1
276 146 m 1,234,235
 266 134 266 134 258 126 c 0,236,237
 251 118 251 118 236 110 c 0,238,239
 222 102 222 102 207 100 c 0,240,241
 193 98 193 98 178 104 c 0,242,243
 163 111 163 111 154 130 c 0,244,245
 144 149 144 149 141 170 c 0,246,247
 138 190 138 190 138 205 c 256,248,249
 138 220 138 220 140 242 c 0,250,251
 142 266 142 266 145 289 c 256,252,253
 148 312 148 312 154 336 c 256,254,255
 160 360 160 360 168 384 c 256,256,257
 176 408 176 408 187 432 c 0,258,259
 198 455 198 455 211 474 c 0,260,261
 224 492 224 492 242 504 c 0,262,263
 262 516 262 516 280 516 c 0,264,265
 292 516 292 516 303 511 c 256,266,267
 314 506 314 506 318 500 c 2,268,-1
 328 488 l 1,269,-1
 332 507 l 1,270,-1
 381 508 l 1,271,-1
 328 185 l 2,272,273
 324 158 324 158 327 151 c 256,274,275
 330 144 330 144 338 142 c 0,276,277
 347 141 347 141 358 152 c 0,278,279
 366 160 366 160 374 174 c 0,280,281
 383 188 383 188 396 218 c 0,282,283
 410 249 410 249 416 272 c 0,284,285
 422 294 422 294 425 323 c 256,286,287
 428 352 428 352 428 386 c 256,288,289
 428 420 428 420 422 461 c 0,290,291
 416 498 416 498 404 530 c 0,292,293
 392 563 392 563 377 586 c 0,294,295
 362 610 362 610 342 626 c 0,296,297
 323 642 323 642 301 650 c 0,298,299
 280 658 280 658 256 656 c 0,300,301
 236 655 236 655 210 644 c 0,302,303
 184 634 184 634 153 593 c 256,304,305
 122 552 122 552 106 501 c 256,306,307
 90 450 90 450 85 410 c 0,308,309
 80 371 80 371 80 334 c 0,310,311
 80 296 80 296 82 264 c 0,312,313
 83 226 83 226 86 194 c 0,314,315
 88 162 88 162 94 134 c 0,316,317
 101 106 101 106 110 80 c 0,318,319
 120 54 120 54 135 32 c 256,320,321
 150 10 150 10 170 -7 c 256,322,323
 190 -24 190 -24 214 -32 c 0,324,325
 239 -40 239 -40 262 -40 c 0,326,327
 290 -40 290 -40 312 -29 c 256,328,329
 334 -18 334 -18 354 -1 c 256,330,331
 374 16 374 16 388 39 c 0,332,333
 403 62 403 62 412 81 c 0,334,335
 422 100 422 100 429 120 c 0,336,337
 436 139 436 139 443 162 c 0,338,339
 450 186 450 186 453 195 c 2,340,-1
 463 238 l 1,341,-1
 485 238 l 1,342,343
 477 201 477 201 472 178 c 0,344,345
 466 155 466 155 459 134 c 0,346,347
 452 112 452 112 442 88 c 0,348,349
 432 65 432 65 420 42 c 0,350,351
 408 18 408 18 391 -2 c 256,352,353
 374 -22 374 -22 360 -34 c 256,354,355
 346 -46 346 -46 329 -56 c 256,356,357
 312 -66 312 -66 293 -71 c 256,358,359
 274 -76 274 -76 258 -76 c 0,360,361
 238 -76 238 -76 218 -72 c 0,362,363
 199 -68 199 -68 178 -58 c 0,364,365
 158 -49 158 -49 137 -32 c 0,366,367
 116 -14 116 -14 97 11 c 256,368,369
 78 36 78 36 64 70 c 256,370,371
 50 104 50 104 44 133 c 256,372,373
 38 162 38 162 36 184 c 256,374,375
 34 206 34 206 31 240 c 0,376,377
 28 275 28 275 28 298 c 0,378,379
 28 320 28 320 30 346 c 0,380,381
 32 386 32 386 38 428 c 256,382,383
 44 470 44 470 60 513 c 256,384,385
 76 556 76 556 96 587 c 256,386,387
 116 618 116 618 140 641 c 0,388,389
 163 664 163 664 192 677 c 0,390,391
 220 690 220 690 254 690 c 0,392,393
 294 690 294 690 327 674 c 0,394,395
 360 657 360 657 378 635 c 256,396,397
 396 613 396 613 408 592 c 0,398,399
 420 570 420 570 429 543 c 256,400,401
 438 516 438 516 444 493 c 256,402,403
 450 470 450 470 453 442 c 0,404,405
 456 415 456 415 456 387 c 0,406,407
 456 369 456 369 454 346 c 0,408,409
 452 322 452 322 449 298 c 0,410,411
 446 275 446 275 439 254 c 256,412,413
 432 233 432 233 422 210 c 0,414,415
 412 186 412 186 401 168 c 256,416,417
 390 150 390 150 379 137 c 256,418,419
 368 124 368 124 355 113 c 256,420,421
 342 102 342 102 330 98 c 0,422,423
 319 93 319 93 306 98 c 0,424,425
 296 101 296 101 289 109 c 0,426,427
 282 116 282 116 281 126 c 2,428,-1
 276 146 l 1,234,235
294 270 m 2,429,-1
 310 383 l 2,430,431
 316 421 316 421 317 438 c 0,432,433
 318 456 318 456 307 469 c 256,434,435
 296 482 296 482 281 482 c 256,436,437
 266 482 266 482 250 463 c 0,438,439
 240 451 240 451 232 432 c 0,440,441
 224 412 224 412 216 384 c 0,442,443
 209 355 209 355 205 332 c 0,444,445
 201 308 201 308 196 271 c 256,446,447
 191 234 191 234 190 222 c 0,448,449
 190 210 190 210 191 196 c 0,450,451
 191 174 191 174 192 164 c 0,452,453
 194 153 194 153 201 144 c 0,454,455
 208 136 208 136 220 136 c 0,456,457
 228 136 228 136 238 143 c 256,458,459
 248 150 248 150 256 160 c 0,460,461
 263 171 263 171 269 184 c 0,462,463
 275 196 275 196 280 212 c 0,464,465
 286 229 286 229 288 241 c 0,466,467
 291 253 291 253 294 270 c 2,429,-1
EndSplineSet
EndChar
StartChar: A
Encoding: 65 65 36
Width: 512
Flags: W
LayerCount: 2
Back
Fore
SplineSet
266 676 m 1,0,-1
 429 30 l 2,1,2
 434 14 434 14 438 6 c 0,3,4
 443 -2 443 -2 448 -7 c 0,5,6
 453 -11 453 -11 461 -14 c 0,7,8
 470 -16 470 -16 480 -16 c 2,9,-1
 488 -16 l 1,10,-1
 488 -45 l 1,11,-1
 326 -45 l 1,12,-1
 326 -16 l 1,13,-1
 346 -16 l 2,14,15
 366 -16 366 -16 371 -12 c 0,16,17
 375 -8 375 -8 375 -1 c 256,18,19
 375 6 375 6 369 30 c 2,20,-1
 321 225 l 1,21,-1
 158 225 l 1,22,-1
 112 30 l 2,23,24
 108 14 108 14 108 4 c 256,25,26
 108 -6 108 -6 114 -10 c 256,27,28
 120 -14 120 -14 126 -16 c 0,29,30
 134 -16 134 -16 148 -16 c 2,31,-1
 167 -16 l 1,32,-1
 167 -45 l 1,33,-1
 18 -45 l 1,34,-1
 18 -16 l 1,35,-1
 32 -16 l 2,36,37
 48 -16 48 -16 54 -14 c 256,38,39
 60 -12 60 -12 64 -6 c 0,40,41
 68 -1 68 -1 73 8 c 0,42,43
 76 16 76 16 80 29 c 2,44,-1
 234 662 l 1,45,-1
 266 676 l 1,0,-1
242 562 m 1,46,-1
 166 254 l 1,47,-1
 314 254 l 1,48,-1
 242 562 l 1,46,-1
266 676 m 1,49,-1
 429 30 l 2,50,51
 433 14 433 14 438 6 c 0,52,53
 442 -2 442 -2 448 -7 c 0,54,55
 453 -12 453 -12 461 -14 c 0,56,57
 470 -16 470 -16 480 -16 c 2,58,-1
 488 -16 l 1,59,-1
 488 -45 l 1,60,-1
 326 -45 l 1,61,-1
 326 -16 l 1,62,-1
 346 -16 l 2,63,64
 366 -16 366 -16 370 -12 c 0,65,66
 375 -8 375 -8 374 -1 c 0,67,68
 374 6 374 6 369 30 c 2,69,-1
 321 225 l 1,70,-1
 158 225 l 1,71,-1
 112 30 l 2,72,73
 108 14 108 14 108 4 c 256,74,75
 108 -6 108 -6 114 -10 c 0,76,77
 119 -14 119 -14 126 -15 c 0,78,79
 134 -16 134 -16 148 -16 c 2,80,-1
 167 -16 l 1,81,-1
 167 -45 l 1,82,-1
 18 -45 l 1,83,-1
 18 -16 l 1,84,-1
 32 -16 l 2,85,86
 48 -16 48 -16 54 -14 c 256,87,88
 60 -12 60 -12 64 -6 c 0,89,90
 68 -1 68 -1 73 8 c 0,91,92
 78 16 78 16 80 29 c 2,93,-1
 234 662 l 1,94,-1
 266 676 l 1,49,-1
242 562 m 1,95,-1
 166 254 l 1,96,-1
 314 254 l 1,97,-1
 242 562 l 1,95,-1
EndSplineSet
EndChar
StartChar: B
Encoding: 66 66 37
Width: 512
Flags: W
LayerCount: 2
Back
Fore
SplineSet
293 323 m 1,0,1
 308 321 308 321 319 320 c 0,2,3
 329 318 329 318 349 313 c 0,4,5
 368 308 368 308 386 300 c 256,6,7
 404 292 404 292 422 277 c 0,8,9
 439 262 439 262 452 242 c 0,10,11
 464 222 464 222 472 200 c 256,12,13
 480 178 480 178 481 147 c 0,14,15
 481 115 481 115 473 86 c 0,16,17
 459 38 459 38 434 16 c 256,18,19
 409 -6 409 -6 381 -18 c 256,20,21
 353 -30 353 -30 338 -33 c 0,22,23
 322 -37 322 -37 307 -39 c 0,24,25
 294 -41 294 -41 272 -43 c 256,26,27
 250 -45 250 -45 234 -45 c 2,28,-1
 28 -45 l 1,29,-1
 28 -16 l 1,30,-1
 48 -16 l 2,31,32
 70 -16 70 -16 80 -9 c 256,33,34
 90 -2 90 -2 89 28 c 2,35,-1
 89 591 l 2,36,37
 90 611 90 611 80 622 c 0,38,39
 70 632 70 632 50 632 c 2,40,-1
 30 632 l 1,41,-1
 30 660 l 1,42,-1
 246 660 l 2,43,44
 256 660 256 660 276 658 c 256,45,46
 296 656 296 656 318 651 c 0,47,48
 340 645 340 645 364 632 c 0,49,50
 389 620 389 620 409 598 c 256,51,52
 429 576 429 576 436 559 c 0,53,54
 444 541 444 541 446 526 c 0,55,56
 450 512 450 512 450 492 c 0,57,58
 450 475 450 475 446 457 c 0,59,60
 444 439 444 439 434 420 c 0,61,62
 424 400 424 400 404 382 c 256,63,64
 384 364 384 364 356 348 c 256,65,66
 328 332 328 332 310 328 c 2,67,-1
 293 323 l 1,0,1
144 309 m 1,68,-1
 144 37 l 2,69,70
 144 18 144 18 149 7 c 0,71,72
 154 -3 154 -3 170 -10 c 256,73,74
 186 -17 186 -17 209 -17 c 0,75,76
 231 -17 231 -17 237 -17 c 0,77,78
 266 -17 266 -17 290 -13 c 0,79,80
 312 -9 312 -9 332 -1 c 0,81,82
 351 7 351 7 370 22 c 0,83,84
 388 38 388 38 400 58 c 256,85,86
 412 78 412 78 417 100 c 0,87,88
 423 120 423 120 423 142 c 0,89,90
 424 164 424 164 418 190 c 0,91,92
 414 204 414 204 409 217 c 0,93,94
 405 230 405 230 395 245 c 256,95,96
 385 260 385 260 369 273 c 0,97,98
 353 287 353 287 336 293 c 0,99,100
 320 300 320 300 300 303 c 0,101,102
 280 305 280 305 263 307 c 256,103,104
 246 309 246 309 227 309 c 2,105,-1
 144 309 l 1,68,-1
144 338 m 1,106,-1
 227 338 l 2,107,108
 234 338 234 338 248 340 c 256,109,110
 262 342 262 342 278 346 c 256,111,112
 294 350 294 350 315 361 c 0,113,114
 337 373 337 373 350 385 c 0,115,116
 362 397 362 397 372 412 c 0,117,118
 381 428 381 428 387 448 c 0,119,120
 392 468 392 468 392 494 c 0,121,122
 391 520 391 520 383 542 c 0,123,124
 374 564 374 564 362 578 c 256,125,126
 350 592 350 592 329 605 c 256,127,128
 308 618 308 618 287 624 c 0,129,130
 265 630 265 630 243 631 c 256,131,132
 221 632 221 632 203 632 c 256,133,134
 185 632 185 632 173 628 c 0,135,136
 162 626 162 626 156 620 c 256,137,138
 150 614 150 614 147 606 c 256,139,140
 144 598 144 598 144 586 c 2,141,-1
 144 338 l 1,106,-1
293 323 m 1,142,143
 308 321 308 321 319 320 c 0,144,145
 330 318 330 318 349 313 c 256,146,147
 368 308 368 308 386 300 c 256,148,149
 404 292 404 292 422 277 c 0,150,151
 439 262 439 262 452 242 c 256,152,153
 465 222 465 222 472 200 c 0,154,155
 480 178 480 178 481 147 c 256,156,157
 482 116 482 116 473 86 c 0,158,159
 459 38 459 38 434 16 c 256,160,161
 409 -6 409 -6 382 -18 c 0,162,163
 354 -29 354 -29 338 -33 c 256,164,165
 322 -37 322 -37 307 -39 c 256,166,167
 292 -41 292 -41 271 -43 c 256,168,169
 250 -45 250 -45 234 -45 c 2,170,-1
 28 -45 l 1,171,-1
 28 -16 l 1,172,-1
 48 -16 l 2,173,174
 70 -16 70 -16 80 -9 c 0,175,176
 89 -2 89 -2 89 28 c 2,177,-1
 89 591 l 2,178,179
 89 611 89 611 80 622 c 0,180,181
 70 632 70 632 50 632 c 2,182,-1
 30 632 l 1,183,-1
 30 660 l 1,184,-1
 246 660 l 2,185,186
 257 660 257 660 276 658 c 0,187,188
 296 656 296 656 318 651 c 0,189,190
 341 646 341 646 365 633 c 256,191,192
 389 620 389 620 408 598 c 0,193,194
 428 576 428 576 436 558 c 0,195,196
 444 541 444 541 447 526 c 0,197,198
 450 512 450 512 450 492 c 0,199,200
 450 475 450 475 446 458 c 0,201,202
 443 440 443 440 434 420 c 0,203,204
 424 400 424 400 404 382 c 0,205,206
 384 363 384 363 356 348 c 0,207,208
 328 332 328 332 310 328 c 2,209,-1
 293 323 l 1,142,143
144 309 m 1,210,-1
 144 37 l 2,211,212
 144 18 144 18 149 7 c 256,213,214
 154 -4 154 -4 170 -10 c 0,215,216
 186 -17 186 -17 209 -18 c 0,217,218
 232 -18 232 -18 237 -17 c 0,219,220
 267 -17 267 -17 290 -12 c 0,221,222
 314 -8 314 -8 333 0 c 0,223,224
 352 7 352 7 370 22 c 0,225,226
 388 38 388 38 400 58 c 0,227,228
 411 78 411 78 416 100 c 0,229,230
 422 121 422 121 422 142 c 0,231,232
 424 164 424 164 418 190 c 0,233,234
 414 204 414 204 409 217 c 256,235,236
 404 230 404 230 395 245 c 256,237,238
 386 260 386 260 370 273 c 0,239,240
 353 286 353 286 336 293 c 256,241,242
 319 300 319 300 300 303 c 0,243,244
 280 306 280 306 263 308 c 0,245,246
 246 309 246 309 227 309 c 2,247,-1
 144 309 l 1,210,-1
144 338 m 1,248,-1
 227 338 l 2,249,250
 235 338 235 338 248 340 c 0,251,252
 262 342 262 342 278 346 c 0,253,254
 293 350 293 350 316 361 c 0,255,256
 338 372 338 372 350 384 c 0,257,258
 362 397 362 397 372 412 c 0,259,260
 381 428 381 428 387 448 c 0,261,262
 392 468 392 468 392 494 c 0,263,264
 391 520 391 520 382 542 c 0,265,266
 374 564 374 564 362 578 c 256,267,268
 350 592 350 592 329 605 c 256,269,270
 308 618 308 618 287 624 c 256,271,272
 266 630 266 630 243 631 c 256,273,274
 220 632 220 632 203 632 c 0,275,276
 185 632 185 632 173 629 c 256,277,278
 161 626 161 626 156 620 c 0,279,280
 150 614 150 614 147 606 c 0,281,282
 144 600 144 600 144 586 c 2,283,-1
 144 338 l 1,248,-1
EndSplineSet
EndChar
StartChar: C
Encoding: 67 67 38
Width: 512
Flags: W
LayerCount: 2
Back
Fore
SplineSet
458 160 m 1,0,-1
 478 152 l 1,1,2
 470 126 470 126 462 107 c 256,3,4
 454 88 454 88 444 68 c 0,5,6
 433 48 433 48 422 30 c 0,7,8
 412 14 412 14 401 2 c 256,9,10
 390 -10 390 -10 375 -22 c 256,11,12
 360 -34 360 -34 346 -42 c 256,13,14
 332 -50 332 -50 321 -54 c 0,15,16
 309 -58 309 -58 296 -60 c 0,17,18
 282 -63 282 -63 272 -63 c 0,19,20
 260 -63 260 -63 243 -60 c 256,21,22
 226 -57 226 -57 211 -52 c 0,23,24
 195 -47 195 -47 178 -37 c 0,25,26
 160 -26 160 -26 140 -8 c 256,27,28
 120 10 120 10 108 26 c 256,29,30
 96 42 96 42 84 64 c 0,31,32
 72 85 72 85 61 115 c 0,33,34
 50 144 50 144 44 178 c 0,35,36
 38 211 38 211 36 236 c 0,37,38
 35 262 35 262 35 306 c 0,39,40
 35 336 35 336 36 352 c 256,41,42
 37 368 37 368 39 385 c 0,43,44
 41 403 41 403 45 424 c 0,45,46
 49 446 49 446 57 474 c 256,47,48
 65 502 65 502 77 530 c 0,49,50
 90 558 90 558 108 583 c 256,51,52
 126 608 126 608 151 630 c 0,53,54
 177 652 177 652 200 662 c 0,55,56
 224 672 224 672 244 674 c 256,57,58
 264 676 264 676 274 676 c 0,59,60
 286 676 286 676 303 673 c 256,61,62
 320 670 320 670 329 667 c 256,63,64
 338 664 338 664 350 659 c 0,65,66
 362 655 362 655 367 653 c 256,67,68
 372 651 372 651 378 651 c 0,69,70
 386 651 386 651 393 653 c 0,71,72
 399 655 399 655 416 666 c 2,73,-1
 430 675 l 1,74,-1
 470 503 l 1,75,-1
 450 498 l 1,76,-1
 434 529 l 1,77,-1
 417 560 l 2,78,79
 408 576 408 576 394 594 c 0,80,81
 380 610 380 610 364 620 c 0,82,83
 349 630 349 630 322 639 c 0,84,85
 294 648 294 648 275 648 c 0,86,87
 252 648 252 648 226 636 c 256,88,89
 200 624 200 624 181 602 c 0,90,91
 161 580 161 580 144 547 c 0,92,93
 126 514 126 514 117 486 c 0,94,95
 106 458 106 458 102 428 c 256,96,97
 98 398 98 398 97 375 c 256,98,99
 96 352 96 352 95 312 c 0,100,101
 95 272 95 272 96 248 c 0,102,103
 98 218 98 218 102 186 c 0,104,105
 107 154 107 154 117 124 c 0,106,107
 126 96 126 96 143 70 c 256,108,109
 160 44 160 44 182 24 c 256,110,111
 204 4 204 4 220 -4 c 256,112,113
 236 -12 236 -12 251 -15 c 0,114,115
 265 -18 265 -18 276 -18 c 0,116,117
 291 -18 291 -18 314 -11 c 0,118,119
 336 -4 336 -4 354 8 c 256,120,121
 372 20 372 20 386 37 c 0,122,123
 400 53 400 53 414 73 c 0,124,125
 428 92 428 92 446 130 c 2,126,-1
 458 160 l 1,0,-1
458 160 m 1,127,-1
 478 152 l 1,128,129
 470 126 470 126 462 107 c 256,130,131
 454 88 454 88 444 68 c 0,132,133
 433 47 433 47 422 30 c 0,134,135
 412 14 412 14 401 2 c 256,136,137
 390 -10 390 -10 375 -22 c 256,138,139
 360 -34 360 -34 346 -42 c 256,140,141
 332 -50 332 -50 321 -54 c 256,142,143
 310 -58 310 -58 296 -60 c 0,144,145
 282 -63 282 -63 272 -63 c 0,146,147
 260 -63 260 -63 243 -60 c 256,148,149
 226 -57 226 -57 211 -52 c 256,150,151
 196 -47 196 -47 178 -37 c 256,152,153
 160 -27 160 -27 140 -8 c 0,154,155
 120 10 120 10 108 26 c 256,156,157
 96 42 96 42 84 63 c 256,158,159
 72 84 72 84 61 115 c 256,160,161
 50 146 50 146 44 179 c 256,162,163
 38 212 38 212 36 237 c 0,164,165
 35 262 35 262 35 306 c 0,166,167
 35 337 35 337 36 352 c 0,168,169
 37 368 37 368 38 385 c 0,170,171
 40 402 40 402 45 424 c 256,172,173
 50 446 50 446 57 474 c 0,174,175
 64 501 64 501 77 530 c 0,176,177
 90 558 90 558 108 583 c 256,178,179
 126 608 126 608 151 630 c 256,180,181
 176 652 176 652 200 661 c 0,182,183
 223 670 223 670 244 673 c 0,184,185
 264 676 264 676 274 676 c 0,186,187
 286 676 286 676 303 673 c 256,188,189
 320 670 320 670 329 667 c 256,190,191
 338 664 338 664 350 659 c 256,192,193
 362 654 362 654 367 652 c 0,194,195
 372 651 372 651 378 651 c 0,196,197
 386 651 386 651 393 654 c 0,198,199
 400 656 400 656 416 666 c 2,200,-1
 430 675 l 1,201,-1
 470 503 l 1,202,-1
 450 498 l 1,203,204
 442 514 442 514 434 529 c 256,205,206
 426 544 426 544 417 560 c 256,207,208
 408 576 408 576 394 594 c 0,209,210
 380 611 380 611 365 620 c 0,211,212
 350 630 350 630 322 639 c 256,213,214
 294 648 294 648 275 648 c 0,215,216
 252 648 252 648 226 636 c 256,217,218
 200 624 200 624 180 602 c 0,219,220
 161 580 161 580 144 547 c 0,221,222
 126 514 126 514 116 486 c 0,223,224
 107 459 107 459 102 428 c 0,225,226
 98 398 98 398 97 375 c 256,227,228
 96 352 96 352 95 312 c 256,229,230
 94 272 94 272 96 248 c 0,231,232
 98 218 98 218 103 186 c 0,233,234
 108 153 108 153 117 124 c 0,235,236
 126 96 126 96 143 70 c 256,237,238
 160 44 160 44 182 24 c 256,239,240
 204 4 204 4 220 -4 c 256,241,242
 236 -12 236 -12 251 -15 c 256,243,244
 266 -18 266 -18 276 -18 c 0,245,246
 291 -18 291 -18 314 -11 c 256,247,248
 337 -4 337 -4 354 8 c 0,249,250
 372 21 372 21 386 37 c 256,251,252
 400 53 400 53 414 72 c 0,253,254
 428 92 428 92 446 130 c 2,255,-1
 458 160 l 1,127,-1
EndSplineSet
EndChar
StartChar: D
Encoding: 68 68 39
Width: 512
Flags: W
LayerCount: 2
Back
Fore
SplineSet
32 660 m 1,0,-1
 216 660 l 2,1,2
 231 660 231 660 252 657 c 0,3,4
 274 654 274 654 293 649 c 256,5,6
 312 644 312 644 333 633 c 0,7,8
 354 623 354 623 372 607 c 256,9,10
 390 591 390 591 408 570 c 0,11,12
 424 548 424 548 436 528 c 256,13,14
 448 508 448 508 456 482 c 256,15,16
 464 456 464 456 470 422 c 256,17,18
 476 388 476 388 477 336 c 0,19,20
 477 284 477 284 475 244 c 0,21,22
 471 194 471 194 464 164 c 0,23,24
 456 134 456 134 443 106 c 0,25,26
 430 77 430 77 414 53 c 0,27,28
 398 30 398 30 380 14 c 0,29,30
 363 -2 363 -2 343 -14 c 256,31,32
 323 -26 323 -26 305 -30 c 0,33,34
 287 -36 287 -36 274 -38 c 256,35,36
 261 -40 261 -40 247 -42 c 0,37,38
 234 -44 234 -44 216 -44 c 2,39,-1
 32 -44 l 1,40,-1
 32 -16 l 1,41,-1
 49 -16 l 2,42,43
 66 -16 66 -16 76 -6 c 0,44,45
 86 2 86 2 85 24 c 2,46,-1
 85 594 l 2,47,48
 85 598 85 598 83 606 c 256,49,50
 81 614 81 614 75 620 c 0,51,52
 70 626 70 626 60 629 c 0,53,54
 49 632 49 632 35 632 c 2,55,-1
 32 632 l 1,56,-1
 32 660 l 1,0,-1
218 632 m 2,57,-1
 189 632 l 2,58,59
 173 632 173 632 165 629 c 0,60,61
 157 625 157 625 151 621 c 0,62,63
 145 618 145 618 143 610 c 0,64,65
 140 603 140 603 140 594 c 2,66,-1
 140 24 l 2,67,68
 140 4 140 4 145 -2 c 0,69,70
 151 -8 151 -8 162 -12 c 256,71,72
 173 -16 173 -16 189 -16 c 2,73,-1
 218 -16 l 2,74,75
 236 -16 236 -16 256 -12 c 0,76,77
 276 -9 276 -9 296 1 c 0,78,79
 315 11 315 11 333 28 c 0,80,81
 351 44 351 44 369 69 c 0,82,83
 387 95 387 95 395 122 c 0,84,85
 404 150 404 150 409 176 c 256,86,87
 414 202 414 202 416 236 c 256,88,89
 418 270 418 270 418 323 c 0,90,91
 418 377 418 377 415 406 c 0,92,93
 412 436 412 436 406 464 c 256,94,95
 400 492 400 492 386 520 c 0,96,97
 372 549 372 549 352 572 c 0,98,99
 332 594 332 594 313 606 c 0,100,101
 295 617 295 617 278 622 c 0,102,103
 262 628 262 628 246 630 c 0,104,105
 232 632 232 632 218 632 c 2,57,-1
32 660 m 1,106,-1
 216 660 l 2,107,108
 231 660 231 660 252 657 c 0,109,110
 274 654 274 654 293 649 c 256,111,112
 312 644 312 644 333 633 c 256,113,114
 354 622 354 622 372 607 c 0,115,116
 391 592 391 592 408 570 c 0,117,118
 424 548 424 548 436 528 c 256,119,120
 448 508 448 508 456 482 c 256,121,122
 464 456 464 456 470 422 c 0,123,124
 477 387 477 387 478 336 c 0,125,126
 478 284 478 284 475 244 c 0,127,128
 471 195 471 195 464 164 c 0,129,130
 456 134 456 134 443 105 c 256,131,132
 430 76 430 76 414 52 c 0,133,134
 398 29 398 29 380 14 c 0,135,136
 363 -2 363 -2 343 -14 c 0,137,138
 323 -25 323 -25 306 -30 c 0,139,140
 288 -36 288 -36 274 -38 c 0,141,142
 261 -41 261 -41 246 -42 c 0,143,144
 232 -44 232 -44 216 -44 c 2,145,-1
 32 -44 l 1,146,-1
 32 -16 l 1,147,-1
 49 -16 l 2,148,149
 66 -16 66 -16 76 -6 c 0,150,151
 85 2 85 2 85 24 c 2,152,-1
 85 594 l 2,153,154
 85 598 85 598 82 606 c 0,155,156
 80 614 80 614 75 620 c 256,157,158
 70 626 70 626 60 629 c 0,159,160
 49 632 49 632 35 632 c 2,161,-1
 32 632 l 1,162,-1
 32 660 l 1,106,-1
218 632 m 2,163,-1
 189 632 l 2,164,165
 173 632 173 632 165 629 c 256,166,167
 157 626 157 626 152 621 c 0,168,169
 146 616 146 616 143 609 c 256,170,171
 140 602 140 602 140 594 c 2,172,-1
 140 24 l 2,173,174
 140 4 140 4 145 -2 c 256,175,176
 150 -8 150 -8 162 -12 c 0,177,178
 173 -16 173 -16 189 -16 c 2,179,-1
 218 -16 l 2,180,181
 237 -16 237 -16 256 -12 c 0,182,183
 276 -9 276 -9 296 2 c 0,184,185
 315 12 315 12 334 28 c 0,186,187
 352 44 352 44 369 69 c 256,188,189
 386 94 386 94 395 122 c 256,190,191
 404 150 404 150 409 176 c 256,192,193
 414 202 414 202 416 236 c 256,194,195
 418 270 418 270 418 323 c 0,196,197
 418 377 418 377 415 406 c 0,198,199
 412 436 412 436 406 464 c 0,200,201
 399 492 399 492 386 520 c 0,202,203
 372 549 372 549 352 572 c 0,204,205
 332 594 332 594 313 606 c 0,206,207
 294 617 294 617 278 622 c 0,208,209
 262 628 262 628 247 630 c 256,210,211
 232 632 232 632 218 632 c 2,163,-1
EndSplineSet
EndChar
StartChar: E
Encoding: 69 69 40
Width: 512
Flags: W
LayerCount: 2
Back
Fore
SplineSet
481 136 m 1,0,-1
 452 -45 l 1,1,-1
 36 -45 l 1,2,-1
 36 -16 l 1,3,-1
 48 -16 l 2,4,5
 58 -16 58 -16 70 -8 c 0,6,7
 84 -1 84 -1 90 6 c 0,8,9
 96 14 96 14 95 29 c 2,10,-1
 95 591 l 2,11,12
 96 598 96 598 92 608 c 256,13,14
 88 618 88 618 82 625 c 256,15,16
 76 632 76 632 54 632 c 2,17,-1
 36 632 l 1,18,-1
 36 658 l 1,19,-1
 452 658 l 1,20,-1
 470 479 l 1,21,-1
 450 479 l 1,22,-1
 436 506 l 1,23,-1
 421 534 l 2,24,25
 413 548 413 548 400 566 c 256,26,27
 387 584 387 584 374 595 c 0,28,29
 361 607 361 607 346 614 c 0,30,31
 330 621 330 621 314 625 c 0,32,33
 298 630 298 630 283 630 c 2,34,-1
 202 630 l 2,35,36
 182 630 182 630 173 626 c 0,37,38
 165 622 165 622 158 614 c 256,39,40
 151 606 151 606 151 591 c 2,41,-1
 151 334 l 1,42,-1
 262 334 l 2,43,44
 273 334 273 334 281 338 c 256,45,46
 289 342 289 342 297 352 c 0,47,48
 305 363 305 363 308 375 c 256,49,50
 311 387 311 387 313 400 c 256,51,52
 315 413 315 413 315 425 c 2,53,-1
 315 443 l 1,54,-1
 344 443 l 1,55,-1
 344 188 l 1,56,-1
 315 188 l 1,57,-1
 315 202 l 2,58,59
 314 224 314 224 312 243 c 0,60,61
 310 263 310 263 306 272 c 0,62,63
 302 282 302 282 297 289 c 0,64,65
 291 296 291 296 282 301 c 0,66,67
 272 306 272 306 262 306 c 2,68,-1
 151 306 l 1,69,-1
 151 24 l 2,70,71
 151 6 151 6 164 -5 c 0,72,73
 178 -16 178 -16 202 -16 c 2,74,-1
 283 -16 l 2,75,76
 304 -16 304 -16 325 -12 c 256,77,78
 346 -8 346 -8 368 8 c 0,79,80
 390 23 390 23 406 42 c 0,81,82
 420 60 420 60 430 77 c 2,83,-1
 452 118 l 1,84,-1
 460 136 l 1,85,-1
 481 136 l 1,0,-1
481 136 m 1,86,-1
 452 -45 l 1,87,-1
 36 -45 l 1,88,-1
 36 -16 l 1,89,-1
 48 -16 l 2,90,91
 58 -16 58 -16 71 -9 c 256,92,93
 84 -2 84 -2 90 6 c 0,94,95
 95 14 95 14 95 29 c 2,96,-1
 95 591 l 2,97,98
 95 597 95 597 92 608 c 0,99,100
 88 618 88 618 82 625 c 256,101,102
 76 632 76 632 54 632 c 2,103,-1
 36 632 l 1,104,-1
 36 658 l 1,105,-1
 452 658 l 1,106,-1
 470 479 l 1,107,-1
 450 479 l 1,108,109
 443 491 443 491 436 506 c 0,110,111
 429 520 429 520 422 534 c 0,112,113
 414 548 414 548 400 566 c 0,114,115
 387 584 387 584 374 595 c 256,116,117
 361 606 361 606 346 614 c 0,118,119
 330 621 330 621 314 626 c 0,120,121
 298 630 298 630 283 630 c 2,122,-1
 202 630 l 2,123,124
 182 630 182 630 174 626 c 0,125,126
 165 622 165 622 158 614 c 256,127,128
 151 606 151 606 151 591 c 2,129,-1
 151 334 l 1,130,-1
 262 334 l 2,131,132
 273 334 273 334 282 338 c 0,133,134
 290 342 290 342 297 352 c 0,135,136
 304 363 304 363 308 374 c 0,137,138
 311 386 311 386 313 400 c 0,139,140
 315 413 315 413 315 425 c 2,141,-1
 315 443 l 1,142,-1
 344 443 l 1,143,-1
 344 188 l 1,144,-1
 315 188 l 1,145,-1
 315 202 l 2,146,147
 315 224 315 224 312 243 c 0,148,149
 310 262 310 262 306 272 c 256,150,151
 302 282 302 282 297 289 c 256,152,153
 292 296 292 296 282 301 c 256,154,155
 272 306 272 306 262 306 c 2,156,-1
 151 306 l 1,157,-1
 151 24 l 2,158,159
 151 6 151 6 164 -5 c 0,160,161
 178 -16 178 -16 202 -16 c 2,162,-1
 283 -16 l 2,163,164
 304 -16 304 -16 325 -12 c 256,165,166
 346 -8 346 -8 368 8 c 0,167,168
 391 23 391 23 406 42 c 0,169,170
 420 60 420 60 430 77 c 2,171,-1
 452 118 l 1,172,-1
 460 136 l 1,173,-1
 481 136 l 1,86,-1
EndSplineSet
EndChar
StartChar: F
Encoding: 70 70 41
Width: 512
Flags: W
LayerCount: 2
Back
Fore
SplineSet
452 484 m 1,0,-1
 437 513 l 2,1,2
 428 530 428 530 418 546 c 0,3,4
 408 563 408 563 395 578 c 0,5,6
 384 593 384 593 368 603 c 0,7,8
 353 614 353 614 338 618 c 0,9,10
 323 623 323 623 315 624 c 0,11,12
 307 626 307 626 286 629 c 0,13,14
 264 632 264 632 254 632 c 2,15,-1
 196 632 l 2,16,17
 182 632 182 632 172 626 c 0,18,19
 163 620 163 620 160 614 c 0,20,21
 156 608 156 608 156 596 c 2,22,-1
 156 332 l 1,23,-1
 245 332 l 2,24,25
 255 332 255 332 266 337 c 0,26,27
 276 342 276 342 283 353 c 0,28,29
 291 365 291 365 294 384 c 0,30,31
 298 403 298 403 298 424 c 2,32,-1
 298 444 l 1,33,-1
 328 444 l 1,34,-1
 328 188 l 1,35,-1
 298 188 l 1,36,-1
 298 207 l 2,37,38
 298 230 298 230 295 246 c 0,39,40
 292 261 292 261 289 271 c 0,41,42
 285 280 285 280 280 288 c 0,43,44
 274 296 274 296 266 300 c 256,45,46
 258 304 258 304 245 304 c 2,47,-1
 156 304 l 1,48,-1
 156 24 l 2,49,50
 156 7 156 7 164 -1 c 0,51,52
 172 -8 172 -8 187 -12 c 0,53,54
 203 -16 203 -16 218 -16 c 2,55,-1
 234 -16 l 1,56,-1
 234 -44 l 1,57,-1
 43 -44 l 1,58,-1
 43 -16 l 1,59,-1
 56 -16 l 2,60,61
 70 -16 70 -16 80 -13 c 256,62,63
 90 -10 90 -10 96 0 c 256,64,65
 102 10 102 10 102 26 c 2,66,-1
 102 594 l 2,67,68
 102 612 102 612 92 622 c 256,69,70
 82 632 82 632 59 632 c 2,71,-1
 43 632 l 1,72,-1
 43 660 l 1,73,-1
 448 660 l 1,74,-1
 468 484 l 1,75,-1
 452 484 l 1,0,-1
452 484 m 1,76,77
 445 498 445 498 437 513 c 256,78,79
 429 528 429 528 418 545 c 0,80,81
 408 562 408 562 395 578 c 0,82,83
 382 593 382 593 367 602 c 0,84,85
 352 612 352 612 338 617 c 0,86,87
 323 622 323 622 316 624 c 0,88,89
 308 626 308 626 286 629 c 256,90,91
 264 632 264 632 254 632 c 2,92,-1
 196 632 l 2,93,94
 182 632 182 632 173 626 c 256,95,96
 164 620 164 620 160 614 c 256,97,98
 156 608 156 608 156 596 c 2,99,-1
 156 332 l 1,100,-1
 245 332 l 2,101,102
 255 332 255 332 266 337 c 0,103,104
 276 342 276 342 283 354 c 0,105,106
 290 365 290 365 294 384 c 256,107,108
 298 403 298 403 298 424 c 2,109,-1
 298 444 l 1,110,-1
 328 444 l 1,111,-1
 328 188 l 1,112,-1
 298 188 l 1,113,-1
 298 207 l 2,114,115
 298 231 298 231 295 246 c 0,116,117
 292 262 292 262 289 271 c 256,118,119
 286 280 286 280 280 288 c 256,120,121
 274 296 274 296 266 300 c 0,122,123
 257 304 257 304 245 304 c 2,124,-1
 156 304 l 1,125,-1
 156 24 l 2,126,127
 156 7 156 7 164 -1 c 256,128,129
 172 -9 172 -9 187 -12 c 0,130,131
 202 -16 202 -16 218 -16 c 2,132,-1
 234 -16 l 1,133,-1
 234 -44 l 1,134,-1
 43 -44 l 1,135,-1
 43 -16 l 1,136,-1
 56 -16 l 2,137,138
 70 -16 70 -16 80 -13 c 256,139,140
 90 -10 90 -10 96 0 c 256,141,142
 102 10 102 10 102 26 c 2,143,-1
 102 594 l 2,144,145
 102 612 102 612 92 622 c 0,146,147
 81 632 81 632 59 632 c 2,148,-1
 43 632 l 1,149,-1
 43 660 l 1,150,-1
 448 660 l 1,151,-1
 468 484 l 1,152,-1
 452 484 l 1,76,77
EndSplineSet
EndChar
StartChar: G
Encoding: 71 71 42
Width: 512
Flags: W
LayerCount: 2
Back
Fore
SplineSet
318 255 m 1,0,-1
 478 255 l 1,1,-1
 478 226 l 1,2,-1
 461 226 l 2,3,4
 449 226 449 226 440 216 c 0,5,6
 432 206 432 206 432 188 c 2,7,-1
 430 -20 l 1,8,9
 418 -20 418 -20 409 -20 c 256,10,11
 400 -20 400 -20 389 -23 c 0,12,13
 378 -25 378 -25 372 -28 c 0,14,15
 366 -30 366 -30 355 -35 c 256,16,17
 344 -40 344 -40 327 -47 c 256,18,19
 310 -54 310 -54 300 -57 c 0,20,21
 290 -58 290 -58 270 -60 c 0,22,23
 242 -62 242 -62 220 -59 c 0,24,25
 198 -55 198 -55 172 -42 c 0,26,27
 146 -28 146 -28 124 -6 c 0,28,29
 101 16 101 16 82 53 c 0,30,31
 63 89 63 89 52 128 c 0,32,33
 42 166 42 166 37 206 c 256,34,35
 32 246 32 246 32 289 c 256,36,37
 32 332 32 332 34 368 c 0,38,39
 36 400 36 400 42 430 c 256,40,41
 48 460 48 460 58 492 c 0,42,43
 68 525 68 525 84 558 c 0,44,45
 100 592 100 592 119 612 c 256,46,47
 138 632 138 632 160 648 c 256,48,49
 182 664 182 664 198 668 c 256,50,51
 214 672 214 672 232 675 c 0,52,53
 249 677 249 677 268 677 c 0,54,55
 286 676 286 676 301 673 c 0,56,57
 316 669 316 669 334 662 c 0,58,59
 352 656 352 656 359 654 c 0,60,61
 365 652 365 652 371 652 c 256,62,63
 377 652 377 652 385 656 c 0,64,65
 394 660 394 660 400 664 c 0,66,67
 408 668 408 668 410 670 c 2,68,-1
 415 675 l 1,69,-1
 452 504 l 1,70,-1
 430 498 l 1,71,-1
 422 515 l 2,72,73
 418 525 418 525 407 543 c 2,74,-1
 389 574 l 2,75,76
 381 587 381 587 374 595 c 0,77,78
 367 604 367 604 360 611 c 0,79,80
 354 617 354 617 343 625 c 0,81,82
 333 633 333 633 315 640 c 0,83,84
 298 648 298 648 274 648 c 0,85,86
 255 648 255 648 240 645 c 0,87,88
 225 641 225 641 209 632 c 0,89,90
 193 624 193 624 178 610 c 0,91,92
 162 596 162 596 147 572 c 0,93,94
 131 549 131 549 122 527 c 0,95,96
 114 505 114 505 108 481 c 0,97,98
 102 458 102 458 99 428 c 256,99,100
 96 398 96 398 94 359 c 0,101,102
 92 319 92 319 94 285 c 0,103,104
 94 245 94 245 98 203 c 256,105,106
 102 161 102 161 111 131 c 0,107,108
 118 101 118 101 130 76 c 0,109,110
 141 50 141 50 153 33 c 0,111,112
 164 17 164 17 180 2 c 0,113,114
 196 -12 196 -12 218 -22 c 256,115,116
 240 -32 240 -32 278 -30 c 0,117,118
 302 -28 302 -28 320 -20 c 256,119,120
 338 -12 338 -12 349 -1 c 0,121,122
 358 12 358 12 368 30 c 0,123,124
 378 49 378 49 378 78 c 2,125,-1
 378 188 l 2,126,127
 378 205 378 205 365 216 c 0,128,129
 352 226 352 226 330 226 c 2,130,-1
 318 226 l 1,131,-1
 318 255 l 1,0,-1
318 255 m 1,132,-1
 478 255 l 1,133,-1
 478 226 l 1,134,-1
 461 226 l 2,135,136
 449 226 449 226 440 216 c 0,137,138
 432 206 432 206 432 188 c 2,139,-1
 430 -20 l 1,140,141
 418 -20 418 -20 409 -20 c 256,142,143
 400 -20 400 -20 389 -23 c 256,144,145
 378 -26 378 -26 372 -28 c 256,146,147
 366 -30 366 -30 355 -35 c 256,148,149
 344 -40 344 -40 327 -47 c 256,150,151
 310 -54 310 -54 300 -57 c 256,152,153
 290 -60 290 -60 270 -60 c 0,154,155
 242 -62 242 -62 220 -58 c 0,156,157
 198 -55 198 -55 172 -42 c 0,158,159
 146 -28 146 -28 123 -6 c 256,160,161
 100 16 100 16 82 53 c 0,162,163
 63 90 63 90 52 128 c 0,164,165
 42 166 42 166 38 206 c 0,166,167
 33 246 33 246 32 289 c 0,168,169
 32 332 32 332 34 368 c 0,170,171
 36 400 36 400 42 430 c 256,172,173
 48 460 48 460 58 493 c 256,174,175
 68 526 68 526 84 558 c 0,176,177
 99 591 99 591 118 612 c 0,178,179
 138 632 138 632 160 648 c 0,180,181
 182 663 182 663 198 668 c 0,182,183
 214 672 214 672 232 675 c 0,184,185
 249 678 249 678 268 677 c 0,186,187
 286 676 286 676 301 673 c 256,188,189
 316 670 316 670 334 662 c 0,190,191
 353 655 353 655 360 654 c 0,192,193
 366 652 366 652 371 652 c 0,194,195
 377 652 377 652 384 656 c 0,196,197
 392 660 392 660 399 664 c 256,198,199
 406 668 406 668 410 670 c 2,200,-1
 415 675 l 1,201,-1
 452 504 l 1,202,-1
 430 498 l 1,203,204
 426 506 426 506 422 516 c 0,205,206
 417 525 417 525 407 542 c 0,207,208
 397 560 397 560 390 573 c 0,209,210
 382 586 382 586 374 595 c 0,211,212
 367 604 367 604 360 611 c 0,213,214
 354 618 354 618 344 626 c 0,215,216
 333 633 333 633 315 640 c 0,217,218
 298 648 298 648 274 648 c 0,219,220
 255 648 255 648 240 644 c 0,221,222
 225 641 225 641 210 632 c 0,223,224
 194 624 194 624 178 610 c 256,225,226
 162 596 162 596 147 573 c 256,227,228
 132 550 132 550 122 527 c 0,229,230
 113 504 113 504 108 481 c 0,231,232
 102 458 102 458 99 428 c 0,233,234
 96 399 96 399 94 359 c 256,235,236
 92 319 92 319 94 285 c 0,237,238
 94 245 94 245 98 202 c 0,239,240
 102 160 102 160 111 131 c 256,241,242
 120 102 120 102 131 76 c 256,243,244
 142 50 142 50 154 33 c 0,245,246
 165 16 165 16 180 2 c 0,247,248
 196 -12 196 -12 218 -22 c 256,249,250
 240 -32 240 -32 278 -30 c 0,251,252
 302 -28 302 -28 320 -20 c 256,253,254
 338 -12 338 -12 349 -1 c 256,255,256
 360 10 360 10 369 29 c 256,257,258
 378 48 378 48 378 78 c 2,259,-1
 378 188 l 2,260,261
 378 205 378 205 365 216 c 0,262,263
 352 226 352 226 330 226 c 2,264,-1
 318 226 l 1,265,-1
 318 255 l 1,132,-1
EndSplineSet
EndChar
StartChar: H
Encoding: 72 72 43
Width: 512
Flags: W
LayerCount: 2
Back
Fore
SplineSet
488 632 m 1,0,-1
 472 632 l 2,1,2
 448 632 448 632 438 621 c 256,3,4
 428 610 428 610 428 594 c 2,5,-1
 428 30 l 2,6,7
 428 4 428 4 438 -7 c 256,8,9
 448 -18 448 -18 472 -18 c 2,10,-1
 488 -18 l 1,11,-1
 488 -46 l 1,12,-1
 314 -46 l 1,13,-1
 314 -18 l 1,14,-1
 326 -18 l 2,15,16
 335 -18 335 -18 348 -14 c 0,17,18
 361 -11 361 -11 368 0 c 0,19,20
 374 12 374 12 374 30 c 2,21,-1
 374 304 l 1,22,-1
 136 304 l 1,23,-1
 136 30 l 2,24,25
 136 14 136 14 138 5 c 0,26,27
 140 -3 140 -3 146 -8 c 0,28,29
 152 -14 152 -14 162 -16 c 256,30,31
 172 -18 172 -18 188 -18 c 2,32,-1
 198 -18 l 1,33,-1
 198 -46 l 1,34,-1
 22 -46 l 1,35,-1
 22 -18 l 1,36,-1
 30 -18 l 2,37,38
 47 -20 47 -20 59 -12 c 0,39,40
 72 -5 72 -5 77 3 c 0,41,42
 82 12 82 12 82 30 c 2,43,-1
 82 594 l 2,44,45
 82 609 82 609 70 621 c 0,46,47
 58 632 58 632 40 632 c 2,48,-1
 22 632 l 1,49,-1
 22 660 l 1,50,-1
 202 660 l 1,51,-1
 202 632 l 1,52,-1
 186 632 l 2,53,54
 158 632 158 632 147 623 c 0,55,56
 136 612 136 612 136 594 c 2,57,-1
 136 333 l 1,58,-1
 374 333 l 1,59,-1
 374 594 l 2,60,61
 374 610 374 610 364 621 c 256,62,63
 354 632 354 632 332 632 c 2,64,-1
 314 632 l 1,65,-1
 314 660 l 1,66,-1
 488 660 l 1,67,-1
 488 632 l 1,0,-1
488 632 m 1,68,-1
 472 632 l 2,69,70
 448 632 448 632 438 621 c 256,71,72
 428 610 428 610 428 594 c 2,73,-1
 428 30 l 2,74,75
 428 4 428 4 438 -7 c 256,76,77
 448 -18 448 -18 472 -18 c 2,78,-1
 488 -18 l 1,79,-1
 488 -46 l 1,80,-1
 314 -46 l 1,81,-1
 314 -18 l 1,82,-1
 326 -18 l 2,83,84
 335 -18 335 -18 348 -15 c 256,85,86
 361 -12 361 -12 368 0 c 0,87,88
 374 12 374 12 374 30 c 2,89,-1
 374 304 l 1,90,-1
 136 304 l 1,91,-1
 136 30 l 2,92,93
 136 14 136 14 138 6 c 0,94,95
 141 -2 141 -2 146 -8 c 0,96,97
 152 -14 152 -14 162 -16 c 256,98,99
 172 -18 172 -18 188 -18 c 2,100,-1
 198 -18 l 1,101,-1
 198 -46 l 1,102,-1
 22 -46 l 1,103,-1
 22 -18 l 1,104,-1
 30 -18 l 2,105,106
 47 -20 47 -20 60 -13 c 0,107,108
 72 -6 72 -6 77 2 c 0,109,110
 82 12 82 12 82 30 c 2,111,-1
 82 594 l 2,112,113
 82 609 82 609 70 620 c 0,114,115
 58 632 58 632 40 632 c 2,116,-1
 22 632 l 1,117,-1
 22 660 l 1,118,-1
 202 660 l 1,119,-1
 202 632 l 1,120,-1
 186 632 l 2,121,122
 158 632 158 632 147 623 c 256,123,124
 136 614 136 614 136 594 c 2,125,-1
 136 333 l 1,126,-1
 374 333 l 1,127,-1
 374 594 l 2,128,129
 374 610 374 610 364 621 c 256,130,131
 354 632 354 632 332 632 c 2,132,-1
 314 632 l 1,133,-1
 314 660 l 1,134,-1
 488 660 l 1,135,-1
 488 632 l 1,68,-1
EndSplineSet
EndChar
StartChar: I
Encoding: 73 73 44
Width: 512
Flags: W
LayerCount: 2
Back
Fore
SplineSet
352 632 m 1,0,-1
 327 632 l 2,1,2
 303 632 303 632 294 623 c 0,3,4
 284 615 284 615 284 595 c 2,5,-1
 284 30 l 2,6,7
 284 2 284 2 296 -8 c 256,8,9
 308 -18 308 -18 334 -18 c 2,10,-1
 352 -18 l 1,11,-1
 352 -46 l 1,12,-1
 158 -46 l 1,13,-1
 158 -18 l 1,14,-1
 178 -18 l 2,15,16
 206 -18 206 -18 218 -7 c 0,17,18
 230 6 230 6 230 32 c 2,19,-1
 230 595 l 2,20,21
 230 612 230 612 220 622 c 256,22,23
 210 632 210 632 188 632 c 2,24,-1
 158 632 l 1,25,-1
 158 660 l 1,26,-1
 352 660 l 1,27,-1
 352 632 l 1,0,-1
352 632 m 1,28,-1
 327 632 l 2,29,30
 303 632 303 632 294 623 c 0,31,32
 284 614 284 614 284 595 c 2,33,-1
 284 30 l 2,34,35
 284 2 284 2 296 -8 c 256,36,37
 308 -18 308 -18 334 -18 c 2,38,-1
 352 -18 l 1,39,-1
 352 -46 l 1,40,-1
 158 -46 l 1,41,-1
 158 -18 l 1,42,-1
 178 -18 l 2,43,44
 206 -18 206 -18 218 -7 c 256,45,46
 230 4 230 4 230 32 c 2,47,-1
 230 595 l 2,48,49
 230 612 230 612 220 622 c 256,50,51
 210 632 210 632 188 632 c 2,52,-1
 158 632 l 1,53,-1
 158 660 l 1,54,-1
 352 660 l 1,55,-1
 352 632 l 1,28,-1
EndSplineSet
EndChar
StartChar: J
Encoding: 74 74 45
Width: 512
Flags: W
LayerCount: 2
Back
Fore
SplineSet
411 632 m 1,0,-1
 404 632 l 2,1,2
 388 632 388 632 374 630 c 256,3,4
 360 628 360 628 353 623 c 0,5,6
 345 618 345 618 342 610 c 256,7,8
 339 602 339 602 339 592 c 2,9,-1
 339 226 l 2,10,11
 339 210 339 210 338 176 c 0,12,13
 336 142 336 142 334 123 c 0,14,15
 332 105 332 105 328 83 c 256,16,17
 324 61 324 61 317 42 c 0,18,19
 311 24 311 24 302 8 c 0,20,21
 292 -8 292 -8 282 -18 c 0,22,23
 272 -29 272 -29 261 -38 c 0,24,25
 249 -46 249 -46 233 -52 c 256,26,27
 217 -58 217 -58 202 -60 c 0,28,29
 186 -62 186 -62 174 -60 c 0,30,31
 162 -60 162 -60 153 -57 c 0,32,33
 143 -54 143 -54 136 -50 c 0,34,35
 128 -46 128 -46 119 -36 c 0,36,37
 110 -28 110 -28 106 -18 c 256,38,39
 102 -8 102 -8 102 4 c 256,40,41
 102 16 102 16 106 25 c 0,42,43
 111 33 111 33 120 38 c 0,44,45
 130 42 130 42 140 42 c 256,46,47
 150 42 150 42 158 36 c 256,48,49
 166 30 166 30 172 14 c 2,50,-1
 174 6 l 2,51,52
 176 0 176 0 180 -8 c 256,53,54
 184 -16 184 -16 190 -21 c 256,55,56
 196 -26 196 -26 214 -25 c 0,57,58
 229 -25 229 -25 235 -21 c 0,59,60
 241 -18 241 -18 247 -13 c 0,61,62
 253 -9 253 -9 257 -4 c 0,63,64
 261 0 261 0 268 11 c 256,65,66
 275 22 275 22 279 38 c 256,67,68
 283 54 283 54 284 75 c 0,69,70
 286 95 286 95 286 106 c 0,71,72
 286 116 286 116 286 167 c 2,73,-1
 286 592 l 2,74,75
 286 608 286 608 281 616 c 0,76,77
 274 624 274 624 266 628 c 0,78,79
 256 632 256 632 242 632 c 2,80,-1
 206 632 l 1,81,-1
 206 660 l 1,82,-1
 411 660 l 1,83,-1
 411 632 l 1,0,-1
411 632 m 1,84,-1
 404 632 l 2,85,86
 388 632 388 632 374 630 c 256,87,88
 360 628 360 628 353 623 c 256,89,90
 346 618 346 618 342 610 c 0,91,92
 339 602 339 602 339 592 c 2,93,-1
 339 226 l 2,94,95
 339 210 339 210 338 176 c 0,96,97
 336 142 336 142 334 124 c 0,98,99
 332 105 332 105 328 83 c 256,100,101
 324 61 324 61 317 42 c 0,102,103
 310 24 310 24 301 8 c 256,104,105
 292 -8 292 -8 282 -19 c 256,106,107
 272 -30 272 -30 260 -38 c 0,108,109
 249 -46 249 -46 234 -52 c 0,110,111
 218 -58 218 -58 202 -60 c 256,112,113
 186 -62 186 -62 174 -60 c 0,114,115
 162 -60 162 -60 153 -57 c 256,116,117
 144 -54 144 -54 136 -50 c 0,118,119
 128 -45 128 -45 119 -36 c 0,120,121
 110 -28 110 -28 106 -18 c 256,122,123
 102 -8 102 -8 102 4 c 256,124,125
 102 16 102 16 107 25 c 256,126,127
 112 34 112 34 120 38 c 0,128,129
 130 42 130 42 140 42 c 0,130,131
 151 41 151 41 158 36 c 0,132,133
 166 30 166 30 172 14 c 2,134,-1
 174 6 l 2,135,136
 176 -1 176 -1 180 -8 c 0,137,138
 184 -16 184 -16 190 -21 c 256,139,140
 196 -26 196 -26 214 -25 c 0,141,142
 229 -25 229 -25 236 -22 c 0,143,144
 242 -18 242 -18 247 -13 c 256,145,146
 252 -8 252 -8 256 -4 c 0,147,148
 261 0 261 0 268 10 c 0,149,150
 275 21 275 21 278 38 c 0,151,152
 282 54 282 54 284 75 c 256,153,154
 286 96 286 96 286 106 c 256,155,156
 286 116 286 116 286 167 c 2,157,-1
 286 592 l 2,158,159
 286 609 286 609 281 616 c 0,160,161
 276 624 276 624 267 628 c 256,162,163
 258 632 258 632 242 632 c 2,164,-1
 206 632 l 1,165,-1
 206 660 l 1,166,-1
 411 660 l 1,167,-1
 411 632 l 1,84,-1
EndSplineSet
EndChar
StartChar: K
Encoding: 75 75 46
Width: 512
Flags: W
LayerCount: 2
Back
Fore
SplineSet
133 287 m 1,0,-1
 345 580 l 1,1,-1
 358 600 l 2,2,3
 368 614 368 614 364 622 c 0,4,5
 362 626 362 626 358 629 c 0,6,7
 353 632 353 632 341 632 c 2,8,-1
 310 632 l 1,9,-1
 310 660 l 1,10,-1
 475 660 l 1,11,-1
 475 632 l 1,12,-1
 466 632 l 2,13,14
 452 631 452 631 436 624 c 0,15,16
 420 618 420 618 410 610 c 256,17,18
 400 602 400 602 385 580 c 2,19,-1
 248 397 l 1,20,-1
 410 40 l 2,21,22
 418 20 418 20 426 10 c 256,23,24
 434 0 434 0 448 -9 c 0,25,26
 461 -18 461 -18 472 -18 c 2,27,-1
 482 -18 l 1,28,-1
 482 -46 l 1,29,-1
 313 -46 l 1,30,-1
 313 -18 l 1,31,-1
 332 -18 l 2,32,33
 348 -18 348 -18 354 -15 c 0,34,35
 360 -11 360 -11 360 -5 c 256,36,37
 360 1 360 1 352 20 c 2,38,-1
 212 348 l 1,39,-1
 133 242 l 1,40,-1
 133 28 l 2,41,42
 133 6 133 6 144 -6 c 0,43,44
 155 -17 155 -17 174 -17 c 2,45,-1
 186 -17 l 1,46,-1
 186 -46 l 1,47,-1
 24 -46 l 1,48,-1
 24 -17 l 1,49,-1
 40 -18 l 2,50,51
 58 -20 58 -20 69 -7 c 0,52,53
 79 6 79 6 79 28 c 2,54,-1
 79 597 l 2,55,56
 78 606 78 606 76 612 c 256,57,58
 74 618 74 618 69 622 c 0,59,60
 64 627 64 627 57 630 c 0,61,62
 50 632 50 632 40 632 c 2,63,-1
 25 632 l 1,64,-1
 25 660 l 1,65,-1
 187 660 l 1,66,-1
 187 632 l 1,67,-1
 172 632 l 2,68,69
 169 632 169 632 159 630 c 256,70,71
 149 628 149 628 144 624 c 0,72,73
 140 620 140 620 136 612 c 0,74,75
 133 604 133 604 133 597 c 2,76,-1
 133 287 l 1,0,-1
133 287 m 1,77,-1
 345 580 l 2,78,79
 349 585 349 585 358 600 c 0,80,81
 368 614 368 614 364 622 c 0,82,83
 362 626 362 626 357 629 c 256,84,85
 352 632 352 632 341 632 c 2,86,-1
 310 632 l 1,87,-1
 310 660 l 1,88,-1
 475 660 l 1,89,-1
 475 632 l 1,90,-1
 466 632 l 2,91,92
 452 631 452 631 436 624 c 0,93,94
 420 618 420 618 410 610 c 256,95,96
 400 602 400 602 385 580 c 2,97,-1
 248 397 l 1,98,-1
 410 40 l 2,99,100
 418 20 418 20 426 10 c 256,101,102
 434 0 434 0 448 -8 c 0,103,104
 461 -18 461 -18 472 -18 c 2,105,-1
 482 -18 l 1,106,-1
 482 -46 l 1,107,-1
 313 -46 l 1,108,-1
 313 -18 l 1,109,-1
 332 -18 l 2,110,111
 348 -18 348 -18 354 -14 c 0,112,113
 359 -11 359 -11 360 -4 c 0,114,115
 360 2 360 2 352 20 c 2,116,-1
 212 348 l 1,117,-1
 133 242 l 1,118,-1
 133 28 l 2,119,120
 133 6 133 6 144 -6 c 0,121,122
 155 -17 155 -17 174 -17 c 2,123,-1
 186 -17 l 1,124,-1
 186 -46 l 1,125,-1
 24 -46 l 1,126,-1
 24 -17 l 1,127,-1
 40 -18 l 2,128,129
 58 -20 58 -20 68 -7 c 0,130,131
 79 6 79 6 79 28 c 2,132,-1
 79 597 l 2,133,134
 79 605 79 605 76 612 c 0,135,136
 74 618 74 618 69 623 c 256,137,138
 64 628 64 628 57 630 c 256,139,140
 50 632 50 632 40 632 c 2,141,-1
 25 632 l 1,142,-1
 25 660 l 1,143,-1
 187 660 l 1,144,-1
 187 632 l 1,145,-1
 172 632 l 2,146,147
 169 632 169 632 158 630 c 0,148,149
 148 628 148 628 144 624 c 0,150,151
 140 621 140 621 136 612 c 0,152,153
 133 604 133 604 133 597 c 2,154,-1
 133 287 l 1,77,-1
EndSplineSet
EndChar
StartChar: L
Encoding: 76 76 47
Width: 512
Flags: W
LayerCount: 2
Back
Fore
SplineSet
479 144 m 1,0,-1
 452 -46 l 1,1,-1
 30 -46 l 1,2,-1
 31 -18 l 1,3,-1
 44 -18 l 2,4,5
 60 -18 60 -18 72 -11 c 256,6,7
 84 -4 84 -4 91 6 c 0,8,9
 98 18 98 18 98 32 c 2,10,-1
 98 594 l 2,11,12
 98 602 98 602 95 610 c 0,13,14
 92 617 92 617 87 622 c 0,15,16
 82 628 82 628 74 630 c 256,17,18
 66 632 66 632 56 632 c 2,19,-1
 30 632 l 1,20,-1
 30 660 l 1,21,-1
 225 660 l 1,22,-1
 225 632 l 1,23,-1
 204 632 l 2,24,25
 197 632 197 632 184 630 c 0,26,27
 172 628 172 628 166 624 c 256,28,29
 160 620 160 620 156 611 c 256,30,31
 152 602 152 602 152 594 c 2,32,-1
 152 32 l 2,33,34
 152 20 152 20 156 11 c 0,35,36
 160 4 160 4 165 -2 c 0,37,38
 172 -8 172 -8 178 -10 c 256,39,40
 184 -12 184 -12 202 -16 c 0,41,42
 221 -19 221 -19 225 -18 c 2,43,-1
 266 -18 l 2,44,45
 302 -18 302 -18 325 -12 c 0,46,47
 348 -7 348 -7 364 0 c 0,48,49
 380 8 380 8 394 21 c 0,50,51
 406 35 406 35 418 53 c 0,52,53
 430 72 430 72 436 88 c 2,54,-1
 450 124 l 1,55,-1
 456 144 l 1,56,-1
 479 144 l 1,0,-1
479 144 m 1,57,-1
 452 -46 l 1,58,-1
 30 -46 l 1,59,-1
 31 -18 l 1,60,-1
 44 -18 l 2,61,62
 60 -18 60 -18 72 -12 c 0,63,64
 85 -6 85 -6 91 5 c 0,65,66
 98 16 98 16 98 32 c 2,67,-1
 98 594 l 2,68,69
 98 602 98 602 95 610 c 0,70,71
 92 617 92 617 87 622 c 256,72,73
 82 627 82 627 74 630 c 0,74,75
 65 632 65 632 56 632 c 2,76,-1
 30 632 l 1,77,-1
 30 660 l 1,78,-1
 225 660 l 1,79,-1
 225 632 l 1,80,-1
 204 632 l 2,81,82
 197 632 197 632 184 630 c 0,83,84
 172 628 172 628 166 624 c 256,85,86
 160 620 160 620 156 611 c 256,87,88
 152 602 152 602 152 594 c 2,89,-1
 152 32 l 2,90,91
 152 20 152 20 156 12 c 0,92,93
 159 4 159 4 166 -2 c 0,94,95
 172 -8 172 -8 178 -10 c 256,96,97
 184 -12 184 -12 203 -15 c 256,98,99
 222 -18 222 -18 225 -18 c 2,100,-1
 266 -18 l 2,101,102
 302 -18 302 -18 325 -13 c 256,103,104
 348 -8 348 -8 364 0 c 0,105,106
 381 8 381 8 394 21 c 0,107,108
 406 34 406 34 418 53 c 256,109,110
 430 72 430 72 436 88 c 256,111,112
 442 104 442 104 450 124 c 2,113,-1
 456 144 l 1,114,-1
 479 144 l 1,57,-1
EndSplineSet
EndChar
StartChar: M
Encoding: 77 77 48
Width: 512
Flags: W
LayerCount: 2
Back
Fore
SplineSet
394 528 m 1,0,-1
 256 -46 l 1,1,-1
 232 -46 l 1,2,-1
 99 547 l 1,3,-1
 99 20 l 2,4,5
 98 0 98 0 108 -9 c 256,6,7
 118 -18 118 -18 134 -18 c 2,8,-1
 158 -18 l 1,9,-1
 158 -46 l 1,10,-1
 17 -46 l 1,11,-1
 17 -18 l 1,12,-1
 36 -18 l 2,13,14
 54 -18 54 -18 62 -10 c 256,15,16
 70 -2 70 -2 70 20 c 2,17,-1
 70 590 l 2,18,19
 70 612 70 612 60 622 c 256,20,21
 50 632 50 632 36 632 c 2,22,-1
 16 632 l 1,23,-1
 16 660 l 1,24,-1
 122 660 l 1,25,-1
 255 77 l 1,26,-1
 392 660 l 1,27,-1
 496 660 l 1,28,-1
 496 632 l 1,29,-1
 474 632 l 2,30,31
 466 632 466 632 462 630 c 256,32,33
 458 628 458 628 455 624 c 256,34,35
 452 620 452 620 450 612 c 256,36,37
 448 604 448 604 448 594 c 2,38,-1
 448 26 l 2,39,40
 448 10 448 10 450 1 c 0,41,42
 453 -9 453 -9 460 -13 c 0,43,44
 466 -18 466 -18 478 -18 c 2,45,-1
 496 -18 l 1,46,-1
 496 -46 l 1,47,-1
 335 -46 l 1,48,-1
 335 -18 l 1,49,-1
 348 -18 l 2,50,51
 358 -18 358 -18 366 -16 c 256,52,53
 374 -14 374 -14 380 -10 c 256,54,55
 386 -6 386 -6 390 2 c 256,56,57
 394 10 394 10 394 26 c 2,58,-1
 394 528 l 1,0,-1
394 528 m 1,59,-1
 256 -46 l 1,60,-1
 232 -46 l 1,61,-1
 99 547 l 1,62,-1
 99 20 l 2,63,64
 99 0 99 0 108 -9 c 0,65,66
 118 -18 118 -18 134 -18 c 2,67,-1
 158 -18 l 1,68,-1
 158 -46 l 1,69,-1
 17 -46 l 1,70,-1
 17 -18 l 1,71,-1
 36 -18 l 2,72,73
 54 -18 54 -18 62 -10 c 256,74,75
 70 -2 70 -2 70 20 c 2,76,-1
 70 590 l 2,77,78
 70 612 70 612 60 622 c 256,79,80
 50 632 50 632 36 632 c 2,81,-1
 16 632 l 1,82,-1
 16 660 l 1,83,-1
 122 660 l 1,84,-1
 255 77 l 1,85,-1
 392 660 l 1,86,-1
 496 660 l 1,87,-1
 496 632 l 1,88,-1
 474 632 l 2,89,90
 466 632 466 632 462 630 c 256,91,92
 458 628 458 628 455 624 c 256,93,94
 452 620 452 620 450 612 c 256,95,96
 448 604 448 604 448 594 c 2,97,-1
 448 26 l 2,98,99
 448 10 448 10 450 1 c 0,100,101
 453 -8 453 -8 460 -13 c 0,102,103
 466 -18 466 -18 478 -18 c 2,104,-1
 496 -18 l 1,105,-1
 496 -46 l 1,106,-1
 335 -46 l 1,107,-1
 335 -18 l 1,108,-1
 348 -18 l 2,109,110
 358 -18 358 -18 366 -16 c 256,111,112
 374 -14 374 -14 380 -10 c 256,113,114
 386 -6 386 -6 390 2 c 256,115,116
 394 10 394 10 394 26 c 2,117,-1
 394 528 l 1,59,-1
EndSplineSet
EndChar
StartChar: N
Encoding: 78 78 49
Width: 512
Flags: W
LayerCount: 2
Back
Fore
SplineSet
334 660 m 1,0,-1
 484 660 l 1,1,-1
 484 632 l 1,2,-1
 473 632 l 2,3,4
 454 632 454 632 444 621 c 0,5,6
 434 612 434 612 434 596 c 2,7,-1
 434 -46 l 1,8,-1
 401 -46 l 1,9,-1
 113 548 l 1,10,-1
 114 16 l 2,11,12
 114 -2 114 -2 124 -10 c 256,13,14
 134 -18 134 -18 160 -18 c 2,15,-1
 178 -18 l 1,16,-1
 178 -46 l 1,17,-1
 24 -46 l 1,18,-1
 24 -18 l 1,19,-1
 42 -18 l 2,20,21
 66 -18 66 -18 75 -10 c 256,22,23
 84 -2 84 -2 84 16 c 2,24,-1
 84 592 l 2,25,26
 84 610 84 610 74 620 c 0,27,28
 64 632 64 632 50 632 c 2,29,-1
 28 632 l 1,30,-1
 28 660 l 1,31,-1
 120 660 l 1,32,-1
 404 79 l 1,33,-1
 404 596 l 2,34,35
 404 614 404 614 396 622 c 0,36,37
 388 632 388 632 364 632 c 2,38,-1
 335 632 l 1,39,-1
 334 660 l 1,0,-1
334 660 m 1,40,-1
 484 660 l 1,41,-1
 484 632 l 1,42,-1
 473 632 l 2,43,44
 454 632 454 632 444 622 c 256,45,46
 434 612 434 612 434 596 c 2,47,-1
 434 -46 l 1,48,-1
 401 -46 l 1,49,-1
 113 548 l 1,50,-1
 114 16 l 2,51,52
 114 -2 114 -2 124 -10 c 256,53,54
 134 -18 134 -18 160 -18 c 2,55,-1
 178 -18 l 1,56,-1
 178 -46 l 1,57,-1
 24 -46 l 1,58,-1
 24 -18 l 1,59,-1
 42 -18 l 2,60,61
 66 -18 66 -18 75 -10 c 256,62,63
 84 -2 84 -2 84 16 c 2,64,-1
 84 592 l 2,65,66
 84 610 84 610 74 621 c 256,67,68
 64 632 64 632 50 632 c 2,69,-1
 28 632 l 1,70,-1
 28 660 l 1,71,-1
 120 660 l 1,72,-1
 404 79 l 1,73,-1
 404 596 l 2,74,75
 404 614 404 614 396 623 c 256,76,77
 388 632 388 632 364 632 c 2,78,-1
 335 632 l 1,79,-1
 334 660 l 1,40,-1
EndSplineSet
EndChar
StartChar: O
Encoding: 79 79 50
Width: 512
Flags: W
LayerCount: 2
Back
Fore
SplineSet
252 -63 m 0,0,1
 250 -63 250 -63 234 -62 c 256,2,3
 218 -61 218 -61 197 -53 c 0,4,5
 175 -45 175 -45 155 -30 c 0,6,7
 135 -14 135 -14 117 11 c 256,8,9
 99 36 99 36 87 60 c 0,10,11
 76 84 76 84 66 108 c 0,12,13
 56 133 56 133 50 161 c 256,14,15
 44 189 44 189 40 238 c 0,16,17
 36 286 36 286 36 327 c 0,18,19
 36 366 36 366 40 404 c 256,20,21
 44 442 44 442 52 470 c 0,22,23
 60 499 60 499 71 527 c 0,24,25
 83 555 83 555 98 579 c 0,26,27
 114 603 114 603 130 621 c 256,28,29
 146 639 146 639 164 651 c 0,30,31
 182 664 182 664 196 668 c 0,32,33
 211 672 211 672 226 674 c 0,34,35
 240 676 240 676 254 677 c 0,36,37
 260 677 260 677 266 676 c 0,38,39
 273 676 273 676 283 674 c 0,40,41
 294 673 294 673 310 668 c 0,42,43
 326 662 326 662 343 652 c 0,44,45
 359 642 359 642 376 626 c 256,46,47
 393 610 393 610 408 589 c 0,48,49
 422 568 422 568 435 540 c 256,50,51
 448 512 448 512 456 483 c 0,52,53
 464 453 464 453 470 407 c 256,54,55
 476 361 476 361 475 304 c 0,56,57
 475 282 475 282 473 257 c 0,58,59
 471 233 471 233 465 191 c 256,60,61
 459 149 459 149 445 108 c 0,62,63
 430 67 430 67 411 38 c 0,64,65
 393 10 393 10 374 -9 c 256,66,67
 355 -28 355 -28 338 -38 c 256,68,69
 321 -48 321 -48 304 -54 c 0,70,71
 286 -60 286 -60 273 -62 c 0,72,73
 261 -63 261 -63 252 -63 c 0,0,1
94 325 m 0,74,75
 94 288 94 288 96 249 c 0,76,77
 98 211 98 211 102 184 c 0,78,79
 106 156 106 156 114 129 c 0,80,81
 122 103 122 103 130 79 c 0,82,83
 140 55 140 55 154 29 c 0,84,85
 169 3 169 3 184 -9 c 256,86,87
 199 -21 199 -21 215 -28 c 0,88,89
 231 -34 231 -34 240 -35 c 0,90,91
 250 -35 250 -35 254 -35 c 0,92,93
 268 -35 268 -35 282 -30 c 0,94,95
 296 -26 296 -26 312 -16 c 0,96,97
 327 -6 327 -6 341 12 c 256,98,99
 355 30 355 30 367 49 c 0,100,101
 379 69 379 69 391 99 c 0,102,103
 402 129 402 129 408 170 c 0,104,105
 413 212 413 212 415 248 c 256,106,107
 417 284 417 284 417 318 c 0,108,109
 417 360 417 360 413 398 c 0,110,111
 408 436 408 436 402 466 c 0,112,113
 395 496 395 496 387 520 c 0,114,115
 378 544 378 544 367 564 c 256,116,117
 356 584 356 584 342 602 c 0,118,119
 328 618 328 618 312 630 c 0,120,121
 296 641 296 641 280 644 c 0,122,123
 264 648 264 648 258 648 c 0,124,125
 254 648 254 648 244 647 c 256,126,127
 234 646 234 646 222 643 c 256,128,129
 210 640 210 640 194 630 c 256,130,131
 178 620 178 620 163 601 c 0,132,133
 148 583 148 583 134 558 c 0,134,135
 120 532 120 532 111 492 c 0,136,137
 101 452 101 452 98 414 c 0,138,139
 94 377 94 377 94 325 c 0,74,75
252 -63 m 0,140,141
 250 -63 250 -63 234 -62 c 256,142,143
 218 -61 218 -61 196 -54 c 0,144,145
 175 -46 175 -46 154 -30 c 0,146,147
 134 -14 134 -14 116 11 c 0,148,149
 99 36 99 36 87 60 c 256,150,151
 75 84 75 84 66 108 c 0,152,153
 56 133 56 133 50 162 c 0,154,155
 43 190 43 190 40 238 c 0,156,157
 36 286 36 286 36 327 c 0,158,159
 36 365 36 365 40 404 c 0,160,161
 44 442 44 442 52 470 c 0,162,163
 60 499 60 499 71 526 c 0,164,165
 82 554 82 554 98 579 c 256,166,167
 114 604 114 604 130 622 c 0,168,169
 146 639 146 639 164 651 c 256,170,171
 182 663 182 663 197 668 c 0,172,173
 212 672 212 672 226 674 c 0,174,175
 240 677 240 677 254 677 c 0,176,177
 259 677 259 677 266 676 c 0,178,179
 272 676 272 676 282 674 c 0,180,181
 293 673 293 673 310 668 c 0,182,183
 326 662 326 662 343 652 c 256,184,185
 360 642 360 642 376 626 c 0,186,187
 393 610 393 610 408 589 c 0,188,189
 422 568 422 568 435 540 c 256,190,191
 448 512 448 512 456 483 c 256,192,193
 464 454 464 454 470 408 c 0,194,195
 476 361 476 361 475 304 c 0,196,197
 475 282 475 282 473 257 c 256,198,199
 471 232 471 232 466 191 c 0,200,201
 460 150 460 150 445 108 c 0,202,203
 430 67 430 67 411 38 c 0,204,205
 392 10 392 10 374 -9 c 0,206,207
 355 -28 355 -28 338 -38 c 256,208,209
 321 -48 321 -48 304 -54 c 0,210,211
 286 -60 286 -60 274 -62 c 0,212,213
 261 -63 261 -63 252 -63 c 0,140,141
94 325 m 0,214,215
 94 288 94 288 96 249 c 256,216,217
 98 210 98 210 102 183 c 256,218,219
 106 156 106 156 113 129 c 256,220,221
 120 102 120 102 129 78 c 0,222,223
 138 55 138 55 153 30 c 0,224,225
 168 4 168 4 184 -9 c 0,226,227
 199 -22 199 -22 214 -28 c 0,228,229
 230 -34 230 -34 240 -35 c 256,230,231
 250 -36 250 -36 254 -35 c 0,232,233
 268 -35 268 -35 282 -30 c 0,234,235
 296 -26 296 -26 311 -16 c 256,236,237
 326 -6 326 -6 341 12 c 256,238,239
 356 30 356 30 367 50 c 0,240,241
 378 69 378 69 391 99 c 256,242,243
 404 129 404 129 409 170 c 0,244,245
 414 212 414 212 416 248 c 0,246,247
 417 284 417 284 417 318 c 0,248,249
 417 360 417 360 414 398 c 0,250,251
 410 436 410 436 403 466 c 256,252,253
 396 496 396 496 387 520 c 256,254,255
 378 544 378 544 367 564 c 0,256,257
 356 585 356 585 342 602 c 0,258,259
 329 618 329 618 312 630 c 0,260,261
 296 641 296 641 280 644 c 0,262,263
 263 648 263 648 258 648 c 0,264,265
 254 648 254 648 244 647 c 256,266,267
 234 646 234 646 222 643 c 256,268,269
 210 640 210 640 194 630 c 0,270,271
 178 619 178 619 163 602 c 0,272,273
 148 584 148 584 134 558 c 0,274,275
 121 532 121 532 111 492 c 256,276,277
 101 452 101 452 98 414 c 0,278,279
 94 377 94 377 94 325 c 0,214,215
EndSplineSet
EndChar
StartChar: P
Encoding: 80 80 51
Width: 512
Flags: W
LayerCount: 2
Back
Fore
SplineSet
30 660 m 1,0,-1
 227 660 l 2,1,2
 252 660 252 660 288 656 c 256,3,4
 324 652 324 652 355 644 c 256,5,6
 386 636 386 636 418 614 c 0,7,8
 450 591 450 591 466 560 c 0,9,10
 483 530 483 530 487 477 c 0,11,12
 492 425 492 425 470 382 c 0,13,14
 452 345 452 345 422 327 c 256,15,16
 392 309 392 309 360 300 c 256,17,18
 328 291 328 291 314 289 c 0,19,20
 299 287 299 287 264 284 c 0,21,22
 228 282 228 282 208 282 c 2,23,-1
 148 282 l 1,24,-1
 148 33 l 2,25,26
 148 20 148 20 154 8 c 256,27,28
 160 -4 160 -4 173 -11 c 256,29,30
 186 -18 186 -18 197 -18 c 2,31,-1
 213 -18 l 1,32,-1
 213 -46 l 1,33,-1
 24 -46 l 1,34,-1
 24 -18 l 1,35,-1
 36 -18 l 2,36,37
 52 -18 52 -18 64 -12 c 0,38,39
 76 -7 76 -7 84 7 c 0,40,41
 93 22 93 22 93 44 c 2,42,-1
 93 571 l 2,43,44
 93 598 93 598 86 609 c 256,45,46
 79 620 79 620 68 626 c 0,47,48
 58 632 58 632 44 632 c 2,49,-1
 30 632 l 1,50,-1
 30 660 l 1,0,-1
148 310 m 1,51,-1
 208 310 l 2,52,53
 232 310 232 310 255 312 c 0,54,55
 279 314 279 314 305 320 c 256,56,57
 331 326 331 326 358 340 c 0,58,59
 384 354 384 354 401 378 c 0,60,61
 417 402 417 402 421 430 c 256,62,63
 425 458 425 458 424 482 c 0,64,65
 421 532 421 532 402 562 c 0,66,67
 382 592 382 592 354 607 c 0,68,69
 325 621 325 621 299 626 c 0,70,71
 274 632 274 632 256 632 c 2,72,-1
 220 632 l 2,73,74
 190 632 190 632 176 624 c 0,75,76
 164 617 164 617 156 606 c 0,77,78
 148 594 148 594 148 571 c 2,79,-1
 148 310 l 1,51,-1
30 660 m 1,80,-1
 227 660 l 2,81,82
 253 660 253 660 288 656 c 0,83,84
 324 652 324 652 355 644 c 256,85,86
 386 636 386 636 418 614 c 0,87,88
 450 591 450 591 466 560 c 0,89,90
 483 530 483 530 487 477 c 0,91,92
 492 424 492 424 470 382 c 0,93,94
 451 345 451 345 422 328 c 0,95,96
 392 310 392 310 360 300 c 0,97,98
 328 291 328 291 313 288 c 0,99,100
 298 286 298 286 263 284 c 256,101,102
 228 282 228 282 208 282 c 2,103,-1
 148 282 l 1,104,-1
 148 33 l 2,105,106
 148 19 148 19 154 8 c 0,107,108
 160 -4 160 -4 173 -11 c 256,109,110
 186 -18 186 -18 197 -18 c 2,111,-1
 213 -18 l 1,112,-1
 213 -46 l 1,113,-1
 24 -46 l 1,114,-1
 24 -18 l 1,115,-1
 36 -18 l 2,116,117
 52 -18 52 -18 64 -12 c 0,118,119
 76 -7 76 -7 84 8 c 0,120,121
 93 22 93 22 93 44 c 2,122,-1
 93 571 l 2,123,124
 93 598 93 598 86 609 c 256,125,126
 79 620 79 620 68 626 c 0,127,128
 58 632 58 632 44 632 c 2,129,-1
 30 632 l 1,130,-1
 30 660 l 1,80,-1
148 310 m 1,131,-1
 208 310 l 2,132,133
 232 310 232 310 255 312 c 256,134,135
 278 314 278 314 304 320 c 0,136,137
 331 326 331 326 358 340 c 0,138,139
 384 354 384 354 401 378 c 256,140,141
 418 402 418 402 422 430 c 0,142,143
 425 458 425 458 424 482 c 0,144,145
 421 532 421 532 402 562 c 0,146,147
 382 592 382 592 354 606 c 0,148,149
 325 621 325 621 299 626 c 0,150,151
 274 632 274 632 256 632 c 2,152,-1
 220 632 l 2,153,154
 190 632 190 632 177 625 c 256,155,156
 164 618 164 618 156 606 c 256,157,158
 148 594 148 594 148 571 c 2,159,-1
 148 310 l 1,131,-1
EndSplineSet
EndChar
StartChar: Q
Encoding: 81 81 52
Width: 512
Flags: W
LayerCount: 2
Back
Fore
SplineSet
350 -29 m 1,0,1
 352 -40 352 -40 354 -42 c 2,2,-1
 361 -64 l 2,3,4
 368 -84 368 -84 372 -92 c 256,5,6
 376 -100 376 -100 383 -107 c 256,7,8
 390 -114 390 -114 404 -114 c 0,9,10
 416 -114 416 -114 430 -106 c 256,11,12
 444 -98 444 -98 450 -88 c 2,13,-1
 467 -66 l 1,14,-1
 482 -73 l 1,15,16
 476 -86 476 -86 470 -96 c 256,17,18
 464 -106 464 -106 452 -122 c 0,19,20
 440 -136 440 -136 424 -146 c 256,21,22
 408 -156 408 -156 386 -156 c 0,23,24
 365 -156 365 -156 352 -147 c 0,25,26
 338 -139 338 -139 330 -121 c 0,27,28
 322 -104 322 -104 312 -69 c 2,29,-1
 308 -51 l 1,30,-1
 295 -55 l 2,31,32
 290 -57 290 -57 276 -60 c 256,33,34
 262 -63 262 -63 250 -63 c 0,35,36
 230 -64 230 -64 205 -56 c 0,37,38
 179 -48 179 -48 154 -30 c 0,39,40
 128 -11 128 -11 109 17 c 0,41,42
 89 45 89 45 79 68 c 0,43,44
 69 92 69 92 61 114 c 256,45,46
 53 136 53 136 46 173 c 0,47,48
 39 211 39 211 37 239 c 0,49,50
 36 268 36 268 36 300 c 0,51,52
 36 358 36 358 42 396 c 256,53,54
 48 434 48 434 56 472 c 0,55,56
 65 508 65 508 79 540 c 0,57,58
 92 572 92 572 114 600 c 0,59,60
 135 628 135 628 158 645 c 0,61,62
 180 661 180 661 204 669 c 256,63,64
 228 677 228 677 258 677 c 0,65,66
 294 676 294 676 319 666 c 256,67,68
 344 656 344 656 362 641 c 256,69,70
 380 626 380 626 403 595 c 0,71,72
 425 564 425 564 438 530 c 0,73,74
 452 496 452 496 458 460 c 0,75,76
 465 422 465 422 468 386 c 0,77,78
 472 350 472 350 473 304 c 256,79,80
 474 258 474 258 470 222 c 0,81,82
 466 182 466 182 456 148 c 0,83,84
 446 112 446 112 438 92 c 0,85,86
 429 72 429 72 421 57 c 0,87,88
 413 41 413 41 395 16 c 0,89,90
 377 -8 377 -8 358 -23 c 2,91,-1
 350 -29 l 1,0,1
144 49 m 1,92,93
 145 57 145 57 146 63 c 0,94,95
 148 69 148 69 151 82 c 256,96,97
 154 95 154 95 162 111 c 256,98,99
 170 127 170 127 188 140 c 0,100,101
 206 154 206 154 232 154 c 0,102,103
 254 154 254 154 272 143 c 0,104,105
 290 133 290 133 301 114 c 0,106,107
 313 96 313 96 320 76 c 0,108,109
 328 56 328 56 334 33 c 2,110,-1
 337 22 l 1,111,-1
 340 10 l 1,112,113
 348 19 348 19 355 27 c 256,114,115
 362 35 362 35 371 54 c 0,116,117
 381 72 381 72 386 88 c 0,118,119
 390 104 390 104 396 124 c 256,120,121
 402 144 402 144 406 172 c 256,122,123
 410 200 410 200 413 240 c 0,124,125
 415 280 415 280 415 310 c 0,126,127
 415 348 415 348 409 406 c 0,128,129
 404 464 404 464 392 510 c 0,130,131
 380 555 380 555 358 587 c 0,132,133
 336 620 336 620 312 634 c 256,134,135
 288 648 288 648 258 648 c 0,136,137
 227 648 227 648 204 635 c 0,138,139
 182 621 182 621 164 600 c 0,140,141
 146 578 146 578 132 548 c 0,142,143
 118 517 118 517 110 482 c 0,144,145
 102 448 102 448 98 412 c 256,146,147
 94 376 94 376 93 350 c 0,148,149
 91 324 91 324 92 312 c 0,150,151
 92 302 92 302 94 263 c 0,152,153
 96 225 96 225 98 204 c 0,154,155
 100 182 100 182 106 156 c 256,156,157
 112 130 112 130 118 111 c 256,158,159
 124 92 124 92 128 84 c 2,160,-1
 140 58 l 1,161,-1
 144 49 l 1,92,93
162 19 m 1,162,163
 168 11 168 11 173 6 c 0,164,165
 177 2 177 2 188 -8 c 0,166,167
 200 -18 200 -18 216 -23 c 256,168,169
 232 -28 232 -28 250 -28 c 0,170,171
 274 -28 274 -28 292 -21 c 2,172,-1
 299 -18 l 1,173,174
 297 -8 297 -8 291 15 c 0,175,176
 285 39 285 39 278 61 c 256,177,178
 271 83 271 83 261 99 c 0,179,180
 251 114 251 114 242 118 c 0,181,182
 234 122 234 122 223 124 c 0,183,184
 213 125 213 125 202 119 c 0,185,186
 191 112 191 112 185 102 c 0,187,188
 180 92 180 92 174 76 c 256,189,190
 168 60 168 60 166 46 c 2,191,-1
 164 29 l 1,192,-1
 162 19 l 1,162,163
350 -29 m 1,193,194
 352 -39 352 -39 353 -42 c 0,195,196
 354 -44 354 -44 360 -64 c 0,197,198
 367 -84 367 -84 372 -92 c 0,199,200
 376 -100 376 -100 383 -107 c 256,201,202
 390 -114 390 -114 404 -114 c 0,203,204
 416 -114 416 -114 430 -106 c 256,205,206
 444 -98 444 -98 450 -88 c 2,207,-1
 467 -66 l 1,208,-1
 482 -73 l 1,209,210
 476 -86 476 -86 470 -96 c 0,211,212
 464 -107 464 -107 452 -122 c 0,213,214
 440 -136 440 -136 424 -146 c 0,215,216
 407 -156 407 -156 386 -156 c 256,217,218
 365 -156 365 -156 352 -147 c 0,219,220
 338 -138 338 -138 330 -121 c 256,221,222
 322 -104 322 -104 312 -69 c 2,223,-1
 308 -51 l 1,224,225
 301 -53 301 -53 296 -55 c 0,226,227
 290 -57 290 -57 276 -60 c 256,228,229
 262 -63 262 -63 250 -63 c 0,230,231
 230 -64 230 -64 205 -56 c 256,232,233
 180 -48 180 -48 154 -29 c 256,234,235
 128 -10 128 -10 108 18 c 0,236,237
 89 45 89 45 80 68 c 0,238,239
 70 91 70 91 62 114 c 0,240,241
 53 136 53 136 46 173 c 256,242,243
 39 210 39 210 38 238 c 0,244,245
 36 268 36 268 36 300 c 0,246,247
 36 358 36 358 42 396 c 0,248,249
 48 435 48 435 56 472 c 0,250,251
 65 508 65 508 80 540 c 0,252,253
 94 572 94 572 115 600 c 256,254,255
 136 628 136 628 158 645 c 256,256,257
 180 662 180 662 204 670 c 0,258,259
 228 677 228 677 258 677 c 0,260,261
 294 677 294 677 319 666 c 0,262,263
 344 656 344 656 362 641 c 0,264,265
 381 626 381 626 402 595 c 0,266,267
 424 564 424 564 438 530 c 0,268,269
 452 497 452 497 459 460 c 0,270,271
 466 422 466 422 469 386 c 256,272,273
 472 350 472 350 472 304 c 0,274,275
 474 258 474 258 470 222 c 0,276,277
 466 182 466 182 456 147 c 256,278,279
 446 112 446 112 438 92 c 0,280,281
 429 72 429 72 420 56 c 0,282,283
 412 41 412 41 395 16 c 0,284,285
 378 -8 378 -8 358 -23 c 2,286,-1
 350 -29 l 1,193,194
144 49 m 1,287,288
 145 57 145 57 146 64 c 0,289,290
 148 70 148 70 151 82 c 0,291,292
 154 95 154 95 162 111 c 256,293,294
 170 127 170 127 188 140 c 0,295,296
 206 154 206 154 232 154 c 0,297,298
 254 154 254 154 272 143 c 256,299,300
 290 132 290 132 302 114 c 0,301,302
 313 95 313 95 320 76 c 0,303,304
 328 56 328 56 334 33 c 2,305,-1
 337 22 l 1,306,-1
 340 10 l 1,307,308
 348 19 348 19 355 28 c 0,309,310
 362 36 362 36 371 54 c 256,311,312
 380 72 380 72 386 88 c 0,313,314
 391 104 391 104 396 124 c 0,315,316
 402 144 402 144 406 172 c 256,317,318
 410 200 410 200 412 240 c 0,319,320
 415 280 415 280 415 310 c 0,321,322
 415 348 415 348 410 407 c 0,323,324
 404 466 404 466 392 511 c 0,325,326
 379 556 379 556 358 588 c 0,327,328
 336 619 336 619 312 634 c 0,329,330
 288 648 288 648 258 648 c 0,331,332
 227 648 227 648 204 635 c 0,333,334
 182 622 182 622 164 600 c 256,335,336
 146 578 146 578 132 548 c 0,337,338
 118 517 118 517 110 482 c 0,339,340
 102 448 102 448 98 412 c 256,341,342
 94 376 94 376 93 350 c 0,343,344
 92 325 92 325 92 312 c 0,345,346
 92 302 92 302 94 263 c 256,347,348
 96 224 96 224 98 204 c 0,349,350
 100 183 100 183 106 156 c 0,351,352
 112 130 112 130 118 111 c 256,353,354
 124 92 124 92 128 84 c 2,355,-1
 140 58 l 1,356,-1
 144 49 l 1,287,288
162 19 m 1,357,358
 168 11 168 11 172 6 c 0,359,360
 177 2 177 2 188 -8 c 256,361,362
 199 -18 199 -18 216 -24 c 0,363,364
 232 -28 232 -28 250 -28 c 0,365,366
 274 -28 274 -28 292 -21 c 2,367,-1
 299 -18 l 1,368,369
 297 -8 297 -8 291 16 c 0,370,371
 285 39 285 39 278 62 c 0,372,373
 271 84 271 84 261 99 c 256,374,375
 251 114 251 114 242 118 c 0,376,377
 234 122 234 122 224 123 c 0,378,379
 213 124 213 124 202 118 c 0,380,381
 191 113 191 113 184 102 c 0,382,383
 178 92 178 92 173 76 c 256,384,385
 168 60 168 60 166 46 c 2,386,-1
 164 29 l 1,387,-1
 162 19 l 1,357,358
EndSplineSet
EndChar
StartChar: R
Encoding: 82 82 53
Width: 512
Flags: W
LayerCount: 2
Back
Fore
SplineSet
284 308 m 1,0,-1
 412 36 l 2,1,2
 419 20 419 20 428 8 c 256,3,4
 437 -4 437 -4 449 -10 c 0,5,6
 462 -18 462 -18 482 -18 c 2,7,-1
 490 -18 l 1,8,-1
 490 -46 l 1,9,-1
 384 -46 l 1,10,-1
 228 304 l 1,11,-1
 127 304 l 1,12,-1
 127 28 l 2,13,14
 127 2 127 2 136 -8 c 0,15,16
 144 -18 144 -18 165 -18 c 2,17,-1
 178 -18 l 1,18,-1
 178 -46 l 1,19,-1
 20 -46 l 1,20,-1
 20 -18 l 1,21,-1
 38 -18 l 2,22,23
 58 -18 58 -18 66 -9 c 0,24,25
 74 -2 74 -2 74 26 c 2,26,-1
 74 594 l 2,27,28
 74 616 74 616 64 624 c 256,29,30
 54 632 54 632 36 632 c 2,31,-1
 20 632 l 1,32,-1
 20 660 l 1,33,-1
 219 660 l 2,34,35
 232 660 232 660 254 658 c 256,36,37
 276 656 276 656 292 653 c 0,38,39
 307 650 307 650 328 642 c 256,40,41
 349 634 349 634 365 622 c 0,42,43
 380 611 380 611 396 592 c 0,44,45
 412 572 412 572 420 554 c 256,46,47
 428 536 428 536 430 516 c 256,48,49
 432 496 432 496 432 481 c 0,50,51
 432 472 432 472 430 454 c 256,52,53
 428 436 428 436 423 417 c 0,54,55
 417 397 417 397 404 378 c 0,56,57
 390 358 390 358 374 344 c 0,58,59
 357 330 357 330 334 321 c 0,60,61
 312 311 312 311 300 310 c 2,62,-1
 284 308 l 1,0,-1
127 332 m 1,63,-1
 210 332 l 2,64,65
 219 332 219 332 234 333 c 0,66,67
 250 334 250 334 263 336 c 0,68,69
 277 338 277 338 289 341 c 0,70,71
 302 345 302 345 315 353 c 0,72,73
 329 360 329 360 339 372 c 0,74,75
 350 384 350 384 358 400 c 256,76,77
 366 416 366 416 371 438 c 0,78,79
 375 460 375 460 375 484 c 0,80,81
 376 508 376 508 370 530 c 0,82,83
 364 551 364 551 352 569 c 256,84,85
 340 587 340 587 327 598 c 0,86,87
 315 609 315 609 298 616 c 0,88,89
 282 622 282 622 271 625 c 0,90,91
 259 628 259 628 240 630 c 0,92,93
 220 632 220 632 210 632 c 2,94,-1
 166 632 l 2,95,96
 148 632 148 632 137 622 c 0,97,98
 127 612 127 612 127 594 c 2,99,-1
 127 332 l 1,63,-1
284 308 m 1,100,-1
 412 36 l 2,101,102
 419 20 419 20 428 8 c 256,103,104
 437 -4 437 -4 449 -11 c 0,105,106
 462 -18 462 -18 482 -18 c 2,107,-1
 490 -18 l 1,108,-1
 490 -46 l 1,109,-1
 384 -46 l 1,110,-1
 228 304 l 1,111,-1
 127 304 l 1,112,-1
 127 28 l 2,113,114
 127 2 127 2 136 -8 c 0,115,116
 144 -18 144 -18 165 -18 c 2,117,-1
 178 -18 l 1,118,-1
 178 -46 l 1,119,-1
 20 -46 l 1,120,-1
 20 -18 l 1,121,-1
 38 -18 l 2,122,123
 58 -18 58 -18 66 -9 c 256,124,125
 74 0 74 0 74 26 c 2,126,-1
 74 594 l 2,127,128
 74 616 74 616 64 624 c 256,129,130
 54 632 54 632 36 632 c 2,131,-1
 20 632 l 1,132,-1
 20 660 l 1,133,-1
 219 660 l 2,134,135
 232 660 232 660 254 658 c 0,136,137
 277 656 277 656 292 653 c 256,138,139
 307 650 307 650 328 642 c 256,140,141
 349 634 349 634 364 623 c 0,142,143
 380 612 380 612 396 592 c 0,144,145
 412 573 412 573 420 554 c 0,146,147
 427 536 427 536 430 516 c 0,148,149
 432 497 432 497 432 481 c 0,150,151
 432 472 432 472 430 454 c 256,152,153
 428 436 428 436 422 417 c 0,154,155
 417 398 417 398 404 378 c 0,156,157
 390 358 390 358 374 344 c 0,158,159
 357 330 357 330 334 321 c 0,160,161
 312 312 312 312 300 310 c 2,162,-1
 284 308 l 1,100,-1
127 332 m 1,163,-1
 210 332 l 2,164,165
 219 332 219 332 234 333 c 0,166,167
 250 334 250 334 263 336 c 0,168,169
 276 337 276 337 289 340 c 0,170,171
 302 344 302 344 315 352 c 0,172,173
 328 361 328 361 339 372 c 0,174,175
 350 384 350 384 358 400 c 256,176,177
 366 416 366 416 370 437 c 0,178,179
 375 458 375 458 376 483 c 0,180,181
 376 508 376 508 370 530 c 0,182,183
 364 551 364 551 352 569 c 256,184,185
 340 587 340 587 327 598 c 256,186,187
 314 609 314 609 298 616 c 0,188,189
 282 622 282 622 271 624 c 0,190,191
 260 627 260 627 240 630 c 0,192,193
 220 632 220 632 210 632 c 2,194,-1
 166 632 l 2,195,196
 148 632 148 632 138 622 c 0,197,198
 127 612 127 612 127 594 c 2,199,-1
 127 332 l 1,163,-1
EndSplineSet
EndChar
StartChar: S
Encoding: 83 83 54
Width: 512
Flags: W
LayerCount: 2
Back
Fore
SplineSet
56 154 m 1,0,1
 62 140 62 140 68 129 c 0,2,3
 73 118 73 118 83 100 c 256,4,5
 93 82 93 82 106 64 c 0,6,7
 118 46 118 46 138 26 c 256,8,9
 158 6 158 6 180 -7 c 0,10,11
 202 -22 202 -22 215 -26 c 0,12,13
 229 -31 229 -31 243 -33 c 0,14,15
 258 -36 258 -36 270 -36 c 0,16,17
 292 -36 292 -36 313 -30 c 256,18,19
 334 -24 334 -24 348 -16 c 256,20,21
 362 -8 362 -8 374 5 c 0,22,23
 386 17 386 17 396 33 c 0,24,25
 407 48 407 48 412 64 c 0,26,27
 418 79 418 79 420 97 c 0,28,29
 422 116 422 116 421 138 c 0,30,31
 419 156 419 156 412 183 c 0,32,33
 404 211 404 211 380 229 c 0,34,35
 356 248 356 248 326 262 c 256,36,37
 296 276 296 276 270 286 c 2,38,-1
 184 315 l 2,39,40
 157 324 157 324 131 338 c 0,41,42
 106 352 106 352 84 377 c 256,43,44
 62 402 62 402 56 434 c 0,45,46
 49 466 49 466 49 488 c 0,47,48
 49 507 49 507 53 526 c 0,49,50
 57 546 57 546 68 572 c 0,51,52
 80 598 80 598 104 624 c 0,53,54
 129 649 129 649 154 659 c 0,55,56
 178 669 178 669 192 672 c 0,57,58
 206 674 206 674 218 676 c 0,59,60
 230 677 230 677 238 677 c 0,61,62
 254 678 254 678 271 674 c 256,63,64
 288 670 288 670 302 665 c 0,65,66
 316 661 316 661 326 656 c 2,67,-1
 345 647 l 2,68,69
 351 644 351 644 359 640 c 256,70,71
 367 636 367 636 372 635 c 0,72,73
 376 634 376 634 380 634 c 0,74,75
 387 634 387 634 396 638 c 2,76,-1
 405 644 l 1,77,-1
 419 654 l 1,78,-1
 466 472 l 1,79,-1
 445 463 l 1,80,-1
 434 483 l 2,81,82
 430 489 430 489 420 509 c 2,83,-1
 398 545 l 2,84,85
 388 561 388 561 374 580 c 0,86,87
 359 599 359 599 348 609 c 0,88,89
 336 618 336 618 321 628 c 0,90,91
 306 637 306 637 296 641 c 0,92,93
 286 646 286 646 271 648 c 0,94,95
 257 650 257 650 241 650 c 0,96,97
 215 648 215 648 191 640 c 0,98,99
 168 632 168 632 148 614 c 256,100,101
 128 596 128 596 118 574 c 0,102,103
 109 553 109 553 105 533 c 0,104,105
 101 514 101 514 103 488 c 0,106,107
 104 458 104 458 112 439 c 256,108,109
 120 420 120 420 136 405 c 256,110,111
 152 390 152 390 171 380 c 256,112,113
 190 370 190 370 224 360 c 2,114,-1
 301 334 l 2,115,116
 339 321 339 321 362 309 c 0,117,118
 384 297 384 297 403 284 c 0,119,120
 421 270 421 270 442 243 c 0,121,122
 464 216 464 216 472 184 c 256,123,124
 480 152 480 152 479 124 c 0,125,126
 478 80 478 80 460 46 c 0,127,128
 442 11 442 11 419 -10 c 0,129,130
 396 -30 396 -30 374 -40 c 256,131,132
 352 -50 352 -50 334 -54 c 0,133,134
 316 -59 316 -59 305 -60 c 0,135,136
 294 -62 294 -62 280 -62 c 0,137,138
 258 -62 258 -62 241 -59 c 256,139,140
 224 -56 224 -56 208 -51 c 0,141,142
 192 -47 192 -47 186 -44 c 2,143,-1
 168 -38 l 2,144,145
 156 -34 156 -34 146 -31 c 0,146,147
 136 -29 136 -29 126 -28 c 0,148,149
 120 -28 120 -28 116 -29 c 256,150,151
 112 -30 112 -30 98 -38 c 2,152,-1
 86 -46 l 1,153,-1
 36 148 l 1,154,-1
 56 154 l 1,0,1
56 154 m 1,155,156
 62 140 62 140 68 130 c 0,157,158
 73 119 73 119 84 100 c 0,159,160
 94 82 94 82 106 64 c 256,161,162
 118 46 118 46 138 26 c 0,163,164
 157 6 157 6 180 -7 c 0,165,166
 202 -20 202 -20 215 -25 c 256,167,168
 228 -30 228 -30 243 -33 c 256,169,170
 258 -36 258 -36 270 -36 c 0,171,172
 292 -36 292 -36 313 -30 c 256,173,174
 334 -24 334 -24 348 -16 c 256,175,176
 362 -8 362 -8 374 4 c 0,177,178
 386 17 386 17 396 34 c 0,179,180
 407 50 407 50 412 65 c 256,181,182
 417 80 417 80 420 98 c 0,183,184
 422 116 422 116 421 138 c 0,185,186
 419 156 419 156 412 183 c 0,187,188
 404 210 404 210 380 229 c 256,189,190
 356 248 356 248 326 262 c 0,191,192
 298 276 298 276 270 286 c 2,193,-1
 184 315 l 2,194,195
 157 324 157 324 132 338 c 0,196,197
 106 352 106 352 84 378 c 0,198,199
 62 403 62 403 55 434 c 0,200,201
 48 466 48 466 49 488 c 0,202,203
 49 507 49 507 53 526 c 0,204,205
 57 546 57 546 68 572 c 0,206,207
 80 598 80 598 105 623 c 256,208,209
 130 648 130 648 154 658 c 0,210,211
 178 669 178 669 192 672 c 0,212,213
 206 674 206 674 218 675 c 256,214,215
 230 676 230 676 238 677 c 0,216,217
 254 677 254 677 271 674 c 0,218,219
 288 670 288 670 302 665 c 0,220,221
 315 660 315 660 326 656 c 2,222,-1
 345 647 l 2,223,224
 351 644 351 644 360 640 c 0,225,226
 368 636 368 636 372 635 c 256,227,228
 376 634 376 634 380 634 c 0,229,230
 387 634 387 634 396 638 c 2,231,-1
 405 644 l 1,232,-1
 419 654 l 1,233,-1
 466 472 l 1,234,-1
 445 463 l 1,235,236
 438 477 438 477 434 484 c 0,237,238
 431 490 431 490 420 510 c 0,239,240
 408 529 408 529 398 546 c 0,241,242
 388 562 388 562 374 580 c 0,243,244
 359 599 359 599 348 610 c 0,245,246
 336 620 336 620 321 629 c 256,247,248
 306 638 306 638 296 642 c 0,249,250
 285 645 285 645 272 648 c 0,251,252
 258 650 258 650 241 650 c 0,253,254
 215 649 215 649 192 640 c 0,255,256
 168 632 168 632 148 614 c 256,257,258
 128 596 128 596 118 575 c 0,259,260
 109 554 109 554 106 534 c 0,261,262
 102 514 102 514 103 488 c 0,263,264
 104 458 104 458 112 439 c 256,265,266
 120 420 120 420 136 405 c 256,267,268
 152 390 152 390 171 380 c 256,269,270
 190 370 190 370 224 360 c 2,271,-1
 301 334 l 2,272,273
 339 321 339 321 362 309 c 0,274,275
 384 297 384 297 402 284 c 0,276,277
 421 270 421 270 442 243 c 0,278,279
 464 216 464 216 472 184 c 256,280,281
 480 152 480 152 479 124 c 0,282,283
 477 80 477 80 460 46 c 0,284,285
 442 11 442 11 419 -10 c 0,286,287
 396 -30 396 -30 374 -40 c 256,288,289
 352 -50 352 -50 334 -54 c 0,290,291
 316 -59 316 -59 305 -60 c 0,292,293
 294 -62 294 -62 280 -62 c 0,294,295
 258 -62 258 -62 241 -59 c 256,296,297
 224 -56 224 -56 208 -51 c 0,298,299
 193 -46 193 -46 186 -44 c 0,300,301
 180 -42 180 -42 168 -38 c 0,302,303
 155 -33 155 -33 146 -30 c 0,304,305
 136 -28 136 -28 126 -28 c 0,306,307
 120 -28 120 -28 116 -29 c 0,308,309
 114 -30 114 -30 98 -38 c 2,310,-1
 86 -46 l 1,311,-1
 36 148 l 1,312,-1
 56 154 l 1,155,156
EndSplineSet
EndChar
StartChar: T
Encoding: 84 84 55
Width: 512
Flags: W
LayerCount: 2
Back
Fore
SplineSet
469 484 m 1,0,1
 462 498 462 498 458 506 c 2,2,-1
 436 548 l 2,3,4
 426 564 426 564 416 580 c 0,5,6
 406 595 406 595 396 606 c 0,7,8
 387 616 387 616 374 624 c 0,9,10
 362 632 362 632 342 632 c 2,11,-1
 324 632 l 2,12,13
 302 632 302 632 291 620 c 0,14,15
 280 609 280 609 280 590 c 2,16,-1
 280 30 l 2,17,18
 280 8 280 8 290 -4 c 0,19,20
 301 -18 301 -18 323 -18 c 2,21,-1
 351 -18 l 1,22,-1
 351 -46 l 1,23,-1
 157 -46 l 1,24,-1
 158 -18 l 1,25,-1
 179 -18 l 2,26,27
 206 -18 206 -18 215 -6 c 256,28,29
 224 6 224 6 224 32 c 2,30,-1
 224 590 l 2,31,32
 224 611 224 611 214 621 c 0,33,34
 202 632 202 632 186 632 c 2,35,-1
 173 632 l 2,36,37
 151 632 151 632 131 620 c 0,38,39
 110 609 110 609 100 595 c 0,40,41
 89 581 89 581 81 567 c 0,42,43
 72 554 72 554 68 544 c 2,44,-1
 58 518 l 1,45,-1
 46 492 l 1,46,-1
 42 484 l 1,47,-1
 22 484 l 1,48,-1
 48 660 l 1,49,-1
 460 660 l 1,50,-1
 491 484 l 1,51,-1
 469 484 l 1,0,1
469 484 m 1,52,53
 462 498 462 498 458 506 c 2,54,-1
 436 548 l 2,55,56
 426 565 426 565 416 580 c 0,57,58
 406 596 406 596 396 606 c 0,59,60
 387 616 387 616 374 624 c 0,61,62
 362 632 362 632 342 632 c 2,63,-1
 324 632 l 2,64,65
 302 632 302 632 291 620 c 0,66,67
 280 609 280 609 280 590 c 2,68,-1
 280 30 l 2,69,70
 280 8 280 8 290 -5 c 0,71,72
 301 -18 301 -18 323 -18 c 2,73,-1
 351 -18 l 1,74,-1
 351 -46 l 1,75,-1
 157 -46 l 1,76,-1
 158 -18 l 1,77,-1
 179 -18 l 2,78,79
 206 -18 206 -18 215 -7 c 256,80,81
 224 4 224 4 224 32 c 2,82,-1
 224 590 l 2,83,84
 224 611 224 611 213 622 c 0,85,86
 202 632 202 632 186 632 c 2,87,-1
 173 632 l 2,88,89
 151 632 151 632 132 621 c 0,90,91
 112 610 112 610 101 595 c 256,92,93
 90 580 90 580 82 567 c 0,94,95
 72 554 72 554 68 544 c 2,96,-1
 58 518 l 1,97,-1
 46 492 l 1,98,-1
 42 484 l 1,99,-1
 22 484 l 1,100,-1
 48 660 l 1,101,-1
 460 660 l 1,102,-1
 491 484 l 1,103,-1
 469 484 l 1,52,53
EndSplineSet
EndChar
StartChar: U
Encoding: 85 85 56
Width: 512
Flags: W
LayerCount: 2
Back
Fore
SplineSet
328 660 m 1,0,-1
 484 660 l 1,1,-1
 484 632 l 1,2,-1
 464 632 l 2,3,4
 452 632 452 632 442 626 c 0,5,6
 433 620 433 620 429 613 c 0,7,8
 424 605 424 605 424 590 c 2,9,-1
 424 128 l 2,10,11
 424 112 424 112 422 90 c 256,12,13
 420 68 420 68 416 52 c 256,14,15
 412 36 412 36 400 15 c 0,16,17
 388 -7 388 -7 362 -30 c 256,18,19
 336 -53 336 -53 290 -61 c 0,20,21
 241 -70 241 -70 206 -57 c 0,22,23
 170 -44 170 -44 155 -34 c 0,24,25
 139 -24 139 -24 127 -10 c 0,26,27
 116 4 116 4 108 18 c 256,28,29
 100 32 100 32 96 52 c 256,30,31
 92 72 92 72 91 81 c 0,32,33
 90 91 90 91 90 118 c 2,34,-1
 90 594 l 2,35,36
 90 602 90 602 87 610 c 256,37,38
 84 618 84 618 79 622 c 0,39,40
 76 626 76 626 66 629 c 0,41,42
 57 632 57 632 48 632 c 2,43,-1
 25 632 l 1,44,-1
 25 660 l 1,45,-1
 210 660 l 1,46,-1
 210 632 l 1,47,-1
 206 632 l 2,48,49
 184 632 184 632 174 630 c 0,50,51
 165 628 165 628 158 624 c 256,52,53
 151 620 151 620 147 613 c 0,54,55
 144 606 144 606 144 594 c 2,56,-1
 144 127 l 2,57,58
 144 107 144 107 145 93 c 0,59,60
 146 78 146 78 150 64 c 256,61,62
 154 50 154 50 160 36 c 256,63,64
 166 22 166 22 180 9 c 0,65,66
 192 -5 192 -5 208 -14 c 0,67,68
 223 -24 223 -24 237 -26 c 256,69,70
 251 -28 251 -28 267 -27 c 0,71,72
 290 -27 290 -27 310 -21 c 0,73,74
 329 -16 329 -16 347 -1 c 0,75,76
 365 12 365 12 374 28 c 0,77,78
 383 43 383 43 387 59 c 0,79,80
 390 74 390 74 392 93 c 0,81,82
 394 114 394 114 394 124 c 2,83,-1
 394 590 l 2,84,85
 394 608 394 608 388 616 c 256,86,87
 382 624 382 624 372 628 c 256,88,89
 362 632 362 632 350 632 c 2,90,-1
 328 632 l 1,91,-1
 328 660 l 1,0,-1
328 660 m 1,92,-1
 484 660 l 1,93,-1
 484 632 l 1,94,-1
 464 632 l 2,95,96
 452 632 452 632 443 626 c 0,97,98
 434 621 434 621 429 612 c 0,99,100
 424 604 424 604 424 590 c 2,101,-1
 424 128 l 2,102,103
 424 112 424 112 422 90 c 256,104,105
 420 68 420 68 416 52 c 256,106,107
 412 36 412 36 400 14 c 0,108,109
 388 -7 388 -7 362 -30 c 256,110,111
 336 -53 336 -53 290 -61 c 0,112,113
 241 -70 241 -70 206 -57 c 0,114,115
 170 -44 170 -44 155 -34 c 256,116,117
 140 -24 140 -24 128 -10 c 0,118,119
 115 4 115 4 108 18 c 0,120,121
 100 33 100 33 96 52 c 0,122,123
 92 72 92 72 91 81 c 256,124,125
 90 90 90 90 90 118 c 2,126,-1
 90 594 l 2,127,128
 90 602 90 602 87 610 c 256,129,130
 84 618 84 618 79 622 c 256,131,132
 74 626 74 626 65 629 c 256,133,134
 56 632 56 632 48 632 c 2,135,-1
 25 632 l 1,136,-1
 25 660 l 1,137,-1
 210 660 l 1,138,-1
 210 632 l 1,139,-1
 206 632 l 2,140,141
 183 632 183 632 174 630 c 0,142,143
 164 628 164 628 158 624 c 0,144,145
 151 620 151 620 148 613 c 0,146,147
 144 606 144 606 144 594 c 2,148,-1
 144 127 l 2,149,150
 144 107 144 107 145 93 c 256,151,152
 146 79 146 79 150 64 c 0,153,154
 154 50 154 50 160 36 c 0,155,156
 167 22 167 22 180 9 c 0,157,158
 192 -4 192 -4 208 -14 c 0,159,160
 223 -24 223 -24 237 -26 c 256,161,162
 251 -28 251 -28 267 -27 c 0,163,164
 291 -27 291 -27 310 -22 c 0,165,166
 330 -16 330 -16 348 -1 c 0,167,168
 365 14 365 14 374 29 c 256,169,170
 383 44 383 44 386 59 c 0,171,172
 390 74 390 74 392 93 c 256,173,174
 394 112 394 112 394 124 c 2,175,-1
 394 590 l 2,176,177
 394 608 394 608 388 616 c 256,178,179
 382 624 382 624 372 628 c 256,180,181
 362 632 362 632 350 632 c 2,182,-1
 328 632 l 1,183,-1
 328 660 l 1,92,-1
EndSplineSet
EndChar
StartChar: V
Encoding: 86 86 57
Width: 512
Flags: W
LayerCount: 2
Back
Fore
SplineSet
487 632 m 1,0,-1
 478 632 l 2,1,2
 456 632 456 632 446 622 c 0,3,4
 436 614 436 614 428 592 c 0,5,6
 419 570 419 570 411 537 c 2,7,-1
 270 -64 l 1,8,-1
 246 -64 l 1,9,-1
 95 567 l 2,10,11
 89 589 89 589 82 603 c 0,12,13
 75 616 75 616 66 624 c 0,14,15
 56 632 56 632 38 632 c 2,16,-1
 27 632 l 1,17,-1
 27 660 l 1,18,-1
 210 660 l 1,19,-1
 208 632 l 1,20,-1
 180 632 l 2,21,22
 161 632 161 632 152 627 c 0,23,24
 142 623 142 623 144 600 c 2,25,-1
 151 570 l 1,26,-1
 271 60 l 1,27,-1
 380 533 l 1,28,-1
 389 574 l 2,29,30
 395 598 395 598 394 610 c 0,31,32
 393 620 393 620 388 626 c 0,33,34
 384 632 384 632 372 632 c 2,35,-1
 340 632 l 1,36,-1
 338 660 l 1,37,-1
 486 660 l 1,38,-1
 487 632 l 1,0,-1
487 632 m 1,39,-1
 478 632 l 2,40,41
 456 632 456 632 446 623 c 256,42,43
 436 614 436 614 427 592 c 256,44,45
 418 570 418 570 411 537 c 2,46,-1
 270 -64 l 1,47,-1
 246 -64 l 1,48,-1
 95 567 l 2,49,50
 89 589 89 589 82 602 c 0,51,52
 75 616 75 616 66 624 c 0,53,54
 56 632 56 632 38 632 c 2,55,-1
 27 632 l 1,56,-1
 27 660 l 1,57,-1
 210 660 l 1,58,-1
 208 632 l 1,59,-1
 180 632 l 2,60,61
 161 632 161 632 152 628 c 0,62,63
 142 623 142 623 144 600 c 2,64,-1
 151 570 l 1,65,-1
 271 60 l 1,66,-1
 380 533 l 2,67,68
 384 549 384 549 389 574 c 0,69,70
 394 598 394 598 394 610 c 0,71,72
 393 620 393 620 388 626 c 0,73,74
 384 632 384 632 372 632 c 2,75,-1
 340 632 l 1,76,-1
 338 660 l 1,77,-1
 486 660 l 1,78,-1
 487 632 l 1,39,-1
EndSplineSet
EndChar
StartChar: W
Encoding: 87 87 58
Width: 512
Flags: W
LayerCount: 2
Back
Fore
SplineSet
247 499 m 1,0,-1
 236 590 l 2,1,2
 234 601 234 601 233 607 c 0,3,4
 232 614 232 614 229 620 c 0,5,6
 225 626 225 626 221 629 c 0,7,8
 216 632 216 632 204 632 c 2,9,-1
 188 632 l 1,10,-1
 188 660 l 1,11,-1
 330 660 l 1,12,-1
 330 632 l 1,13,-1
 308 632 l 2,14,15
 295 632 295 632 291 627 c 0,16,17
 286 624 286 624 288 616 c 2,18,-1
 356 120 l 1,19,-1
 422 581 l 1,20,-1
 424 603 l 2,21,22
 425 611 425 611 425 614 c 0,23,24
 425 623 425 623 421 627 c 0,25,26
 418 632 418 632 400 632 c 2,27,-1
 385 632 l 1,28,-1
 385 660 l 1,29,-1
 498 660 l 1,30,-1
 498 632 l 1,31,-1
 488 632 l 2,32,33
 474 632 474 632 468 628 c 256,34,35
 462 624 462 624 458 618 c 0,36,37
 456 612 456 612 454 600 c 2,38,-1
 450 582 l 1,39,-1
 356 -63 l 1,40,-1
 332 -63 l 1,41,-1
 262 407 l 1,42,-1
 184 -63 l 1,43,-1
 160 -63 l 1,44,-1
 60 591 l 2,45,46
 58 605 58 605 56 611 c 0,47,48
 54 618 54 618 50 622 c 256,49,50
 46 626 46 626 39 629 c 256,51,52
 32 632 32 632 23 632 c 2,53,-1
 14 632 l 1,54,-1
 14 660 l 1,55,-1
 150 660 l 1,56,-1
 150 632 l 1,57,-1
 131 632 l 2,58,59
 124 632 124 632 120 630 c 256,60,61
 116 628 116 628 114 624 c 256,62,63
 112 620 112 620 112 613 c 0,64,65
 112 607 112 607 113 596 c 2,66,-1
 184 110 l 1,67,-1
 247 499 l 1,0,-1
247 499 m 1,68,-1
 236 590 l 2,69,70
 234 601 234 601 233 608 c 0,71,72
 232 614 232 614 229 620 c 256,73,74
 226 626 226 626 221 629 c 256,75,76
 216 632 216 632 204 632 c 2,77,-1
 188 632 l 1,78,-1
 188 660 l 1,79,-1
 330 660 l 1,80,-1
 330 632 l 1,81,-1
 308 632 l 2,82,83
 295 632 295 632 290 627 c 0,84,85
 286 622 286 622 288 616 c 2,86,-1
 356 120 l 1,87,-1
 422 581 l 1,88,-1
 424 603 l 2,89,90
 425 611 425 611 425 614 c 0,91,92
 425 623 425 623 421 628 c 0,93,94
 418 632 418 632 400 632 c 2,95,-1
 385 632 l 1,96,-1
 385 660 l 1,97,-1
 498 660 l 1,98,-1
 498 632 l 1,99,-1
 488 632 l 2,100,101
 474 632 474 632 468 628 c 0,102,103
 461 624 461 624 458 618 c 0,104,105
 456 612 456 612 454 600 c 2,106,-1
 450 582 l 1,107,-1
 356 -63 l 1,108,-1
 332 -63 l 1,109,-1
 262 407 l 1,110,-1
 184 -63 l 1,111,-1
 160 -63 l 1,112,-1
 60 591 l 2,113,114
 58 605 58 605 56 611 c 256,115,116
 54 617 54 617 50 622 c 0,117,118
 46 626 46 626 39 629 c 256,119,120
 32 632 32 632 23 632 c 2,121,-1
 14 632 l 1,122,-1
 14 660 l 1,123,-1
 150 660 l 1,124,-1
 150 632 l 1,125,-1
 131 632 l 2,126,127
 124 632 124 632 120 630 c 256,128,129
 116 628 116 628 114 624 c 256,130,131
 112 620 112 620 112 613 c 0,132,133
 111 606 111 606 113 596 c 2,134,-1
 184 110 l 1,135,-1
 247 499 l 1,68,-1
EndSplineSet
EndChar
StartChar: X
Encoding: 88 88 59
Width: 512
Flags: W
LayerCount: 2
Back
Fore
SplineSet
231 306 m 1,0,-1
 124 566 l 2,1,2
 118 582 118 582 111 594 c 0,3,4
 105 608 105 608 98 615 c 0,5,6
 92 622 92 622 80 627 c 256,7,8
 68 632 68 632 56 632 c 2,9,-1
 38 632 l 1,10,-1
 38 660 l 1,11,-1
 214 660 l 1,12,-1
 214 632 l 1,13,-1
 191 632 l 2,14,15
 177 632 177 632 170 627 c 0,16,17
 164 622 164 622 164 610 c 0,18,19
 164 604 164 604 169 592 c 256,20,21
 174 580 174 580 178 571 c 2,22,-1
 263 374 l 1,23,-1
 352 567 l 2,24,25
 368 601 368 601 365 611 c 0,26,27
 363 621 363 621 357 626 c 0,28,29
 351 632 351 632 335 632 c 2,30,-1
 304 632 l 1,31,-1
 304 660 l 1,32,-1
 466 660 l 1,33,-1
 466 632 l 1,34,-1
 456 632 l 2,35,36
 442 632 442 632 431 627 c 0,37,38
 420 623 420 623 410 611 c 256,39,40
 400 599 400 599 390 575 c 2,41,-1
 279 338 l 1,42,-1
 401 56 l 2,43,44
 410 34 410 34 414 26 c 256,45,46
 418 18 418 18 424 9 c 0,47,48
 430 1 430 1 434 -4 c 0,49,50
 439 -8 439 -8 448 -12 c 0,51,52
 458 -16 458 -16 473 -16 c 2,53,-1
 486 -16 l 1,54,-1
 486 -45 l 1,55,-1
 297 -45 l 1,56,-1
 297 -16 l 1,57,-1
 320 -16 l 2,58,59
 338 -16 338 -16 344 -14 c 0,60,61
 352 -12 352 -12 355 -8 c 256,62,63
 358 -4 358 -4 358 4 c 0,64,65
 358 9 358 9 352 25 c 256,66,67
 346 41 346 41 344 44 c 2,68,-1
 252 271 l 1,69,-1
 148 58 l 1,70,-1
 134 26 l 2,71,72
 128 12 128 12 128 7 c 0,73,74
 128 -2 128 -2 132 -6 c 256,75,76
 136 -10 136 -10 145 -13 c 0,77,78
 153 -16 153 -16 172 -16 c 2,79,-1
 199 -16 l 1,80,-1
 199 -45 l 1,81,-1
 23 -45 l 1,82,-1
 23 -16 l 1,83,-1
 36 -16 l 2,84,85
 51 -16 51 -16 64 -10 c 0,86,87
 76 -4 76 -4 86 8 c 0,88,89
 96 18 96 18 106 40 c 2,90,-1
 231 306 l 1,0,-1
231 306 m 1,91,-1
 124 566 l 2,92,93
 118 582 118 582 111 595 c 256,94,95
 104 608 104 608 98 615 c 256,96,97
 92 622 92 622 81 627 c 256,98,99
 70 632 70 632 56 632 c 2,100,-1
 38 632 l 1,101,-1
 38 660 l 1,102,-1
 214 660 l 1,103,-1
 214 632 l 1,104,-1
 191 632 l 2,105,106
 177 632 177 632 170 627 c 0,107,108
 164 622 164 622 164 610 c 0,109,110
 164 604 164 604 169 592 c 256,111,112
 174 580 174 580 178 571 c 2,113,-1
 263 374 l 1,114,-1
 352 567 l 2,115,116
 368 601 368 601 366 611 c 0,117,118
 363 621 363 621 356 626 c 0,119,120
 350 632 350 632 335 632 c 2,121,-1
 304 632 l 1,122,-1
 304 660 l 1,123,-1
 466 660 l 1,124,-1
 466 632 l 1,125,-1
 456 632 l 2,126,127
 442 632 442 632 431 627 c 256,128,129
 420 622 420 622 410 611 c 0,130,131
 401 600 401 600 390 575 c 2,132,-1
 279 338 l 1,133,-1
 401 56 l 2,134,135
 410 34 410 34 414 26 c 256,136,137
 418 18 418 18 424 9 c 256,138,139
 430 0 430 0 434 -4 c 0,140,141
 439 -8 439 -8 448 -12 c 0,142,143
 458 -16 458 -16 473 -16 c 2,144,-1
 486 -16 l 1,145,-1
 486 -45 l 1,146,-1
 297 -45 l 1,147,-1
 297 -16 l 1,148,-1
 320 -16 l 2,149,150
 338 -16 338 -16 345 -14 c 256,151,152
 352 -12 352 -12 355 -8 c 256,153,154
 358 -4 358 -4 358 4 c 0,155,156
 358 9 358 9 352 25 c 256,157,158
 346 41 346 41 344 44 c 2,159,-1
 252 271 l 1,160,-1
 148 58 l 1,161,-1
 134 26 l 2,162,163
 128 12 128 12 128 7 c 0,164,165
 128 -1 128 -1 132 -6 c 0,166,167
 136 -10 136 -10 145 -13 c 256,168,169
 154 -16 154 -16 172 -16 c 2,170,-1
 199 -16 l 1,171,-1
 199 -45 l 1,172,-1
 23 -45 l 1,173,-1
 23 -16 l 1,174,-1
 36 -16 l 2,175,176
 51 -16 51 -16 64 -10 c 256,177,178
 77 -4 77 -4 86 8 c 0,179,180
 96 18 96 18 106 40 c 2,181,-1
 231 306 l 1,91,-1
EndSplineSet
EndChar
StartChar: Y
Encoding: 89 89 60
Width: 512
Flags: W
LayerCount: 2
Back
Fore
SplineSet
488 632 m 1,0,-1
 477 632 l 2,1,2
 460 632 460 632 450 625 c 256,3,4
 440 618 440 618 433 607 c 0,5,6
 424 595 424 595 414 569 c 2,7,-1
 286 266 l 1,8,-1
 286 32 l 2,9,10
 286 6 286 6 296 -6 c 256,11,12
 306 -18 306 -18 327 -18 c 2,13,-1
 344 -18 l 1,14,-1
 344 -46 l 1,15,-1
 174 -46 l 1,16,-1
 174 -18 l 1,17,-1
 187 -18 l 2,18,19
 213 -18 213 -18 222 -7 c 0,20,21
 232 4 232 4 232 32 c 2,22,-1
 232 250 l 1,23,-1
 100 560 l 2,24,25
 88 586 88 586 79 601 c 256,26,27
 70 616 70 616 59 624 c 256,28,29
 48 632 48 632 34 632 c 2,30,-1
 24 632 l 1,31,-1
 24 660 l 1,32,-1
 194 660 l 1,33,-1
 194 632 l 1,34,-1
 166 632 l 2,35,36
 152 632 152 632 147 626 c 0,37,38
 141 620 141 620 142 610 c 0,39,40
 142 600 142 600 150 584 c 2,41,-1
 270 300 l 1,42,-1
 380 569 l 2,43,44
 388 588 388 588 390 596 c 256,45,46
 392 604 392 604 392 612 c 0,47,48
 390 624 390 624 383 627 c 0,49,50
 378 632 378 632 360 632 c 2,51,-1
 333 632 l 1,52,-1
 333 660 l 1,53,-1
 488 660 l 1,54,-1
 488 632 l 1,0,-1
488 632 m 1,55,-1
 477 632 l 2,56,57
 461 632 461 632 450 625 c 0,58,59
 440 618 440 618 433 607 c 256,60,61
 426 596 426 596 414 569 c 2,62,-1
 286 266 l 1,63,-1
 286 32 l 2,64,65
 286 7 286 7 296 -6 c 0,66,67
 306 -18 306 -18 327 -18 c 2,68,-1
 344 -18 l 1,69,-1
 344 -46 l 1,70,-1
 174 -46 l 1,71,-1
 174 -18 l 1,72,-1
 187 -18 l 2,73,74
 213 -18 213 -18 222 -8 c 0,75,76
 232 4 232 4 232 32 c 2,77,-1
 232 250 l 1,78,-1
 100 560 l 2,79,80
 88 586 88 586 79 601 c 256,81,82
 70 616 70 616 59 624 c 256,83,84
 48 632 48 632 34 632 c 2,85,-1
 24 632 l 1,86,-1
 24 660 l 1,87,-1
 194 660 l 1,88,-1
 194 632 l 1,89,-1
 166 632 l 2,90,91
 152 632 152 632 147 626 c 256,92,93
 142 620 142 620 142 610 c 0,94,95
 142 601 142 601 150 584 c 2,96,-1
 270 300 l 1,97,-1
 380 569 l 2,98,99
 388 589 388 589 390 596 c 0,100,101
 392 604 392 604 392 612 c 0,102,103
 390 624 390 624 384 628 c 256,104,105
 378 632 378 632 360 632 c 2,106,-1
 333 632 l 1,107,-1
 333 660 l 1,108,-1
 488 660 l 1,109,-1
 488 632 l 1,55,-1
EndSplineSet
EndChar
StartChar: Z
Encoding: 90 90 61
Width: 512
Flags: W
LayerCount: 2
Back
Fore
SplineSet
473 152 m 1,0,-1
 429 -46 l 1,1,-1
 40 -46 l 1,2,-1
 40 -22 l 1,3,-1
 400 632 l 1,4,-1
 272 632 l 2,5,6
 265 632 265 632 243 629 c 0,7,8
 221 627 221 627 214 625 c 0,9,10
 206 623 206 623 193 617 c 256,11,12
 180 611 180 611 171 606 c 0,13,14
 163 600 163 600 152 589 c 0,15,16
 142 578 142 578 132 564 c 256,17,18
 122 550 122 550 109 526 c 0,19,20
 95 502 95 502 93 496 c 2,21,-1
 84 474 l 1,22,-1
 64 474 l 1,23,-1
 98 660 l 1,24,-1
 465 660 l 1,25,-1
 465 638 l 1,26,-1
 102 -17 l 1,27,-1
 261 -17 l 2,28,29
 283 -17 283 -17 304 -12 c 0,30,31
 326 -7 326 -7 344 3 c 256,32,33
 362 13 362 13 378 28 c 0,34,35
 394 44 394 44 408 66 c 256,36,37
 422 88 422 88 436 114 c 2,38,-1
 454 152 l 1,39,-1
 473 152 l 1,0,-1
473 152 m 1,40,-1
 429 -46 l 1,41,-1
 40 -46 l 1,42,-1
 40 -22 l 1,43,-1
 400 632 l 1,44,-1
 272 632 l 2,45,46
 265 632 265 632 243 629 c 256,47,48
 221 626 221 626 214 624 c 0,49,50
 206 623 206 623 193 618 c 0,51,52
 180 612 180 612 171 606 c 256,53,54
 162 600 162 600 152 589 c 256,55,56
 142 578 142 578 132 564 c 256,57,58
 122 550 122 550 109 526 c 256,59,60
 96 502 96 502 93 496 c 2,61,-1
 84 474 l 1,62,-1
 64 474 l 1,63,-1
 98 660 l 1,64,-1
 465 660 l 1,65,-1
 465 638 l 1,66,-1
 102 -17 l 1,67,-1
 261 -17 l 2,68,69
 283 -17 283 -17 304 -12 c 0,70,71
 326 -7 326 -7 344 3 c 0,72,73
 363 13 363 13 378 28 c 0,74,75
 394 43 394 43 408 66 c 0,76,77
 424 88 424 88 436 114 c 2,78,-1
 454 152 l 1,79,-1
 473 152 l 1,40,-1
EndSplineSet
EndChar
StartChar: bracketleft
Encoding: 91 91 62
Width: 512
Flags: W
LayerCount: 2
Back
Fore
SplineSet
481 -174 m 1,0,-1
 232 -174 l 1,1,-1
 232 786 l 1,2,-1
 481 786 l 1,3,-1
 481 748 l 1,4,-1
 271 748 l 1,5,-1
 271 -136 l 1,6,-1
 481 -136 l 1,7,-1
 481 -174 l 1,0,-1
481 -174 m 1,8,-1
 232 -174 l 1,9,-1
 232 786 l 1,10,-1
 481 786 l 1,11,-1
 481 748 l 1,12,-1
 271 748 l 1,13,-1
 271 -136 l 1,14,-1
 481 -136 l 1,15,-1
 481 -174 l 1,8,-1
EndSplineSet
EndChar
StartChar: backslash
Encoding: 92 92 63
Width: 512
Flags: W
LayerCount: 2
Back
Fore
SplineSet
474 -134 m 1,0,-1
 438 -152 l 1,1,-1
 37 751 l 1,2,-1
 69 770 l 1,3,-1
 474 -134 l 1,0,-1
474 -134 m 1,4,-1
 438 -152 l 1,5,-1
 37 751 l 1,6,-1
 69 770 l 1,7,-1
 474 -134 l 1,4,-1
EndSplineSet
EndChar
StartChar: bracketright
Encoding: 93 93 64
Width: 512
Flags: W
LayerCount: 2
Back
Fore
SplineSet
280 -174 m 1,0,-1
 30 -174 l 1,1,-1
 30 -136 l 1,2,-1
 240 -136 l 1,3,-1
 240 748 l 1,4,-1
 30 748 l 1,5,-1
 30 786 l 1,6,-1
 280 786 l 1,7,-1
 280 -174 l 1,0,-1
280 -174 m 1,8,-1
 30 -174 l 1,9,-1
 30 -136 l 1,10,-1
 240 -136 l 1,11,-1
 240 748 l 1,12,-1
 30 748 l 1,13,-1
 30 786 l 1,14,-1
 280 786 l 1,15,-1
 280 -174 l 1,8,-1
EndSplineSet
EndChar
StartChar: asciicircum
Encoding: 94 94 65
Width: 512
Flags: W
LayerCount: 2
Back
Fore
SplineSet
429 682 m 1,0,-1
 389 683 l 1,1,-1
 256 771 l 1,2,-1
 120 683 l 1,3,-1
 82 683 l 1,4,-1
 204 810 l 1,5,-1
 307 810 l 1,6,-1
 429 682 l 1,0,-1
429 682 m 1,7,-1
 389 683 l 1,8,-1
 256 771 l 1,9,-1
 120 683 l 1,10,-1
 82 683 l 1,11,-1
 204 810 l 1,12,-1
 307 810 l 1,13,-1
 429 682 l 1,7,-1
EndSplineSet
EndChar
StartChar: underscore
Encoding: 95 95 66
Width: 512
Flags: W
LayerCount: 2
Back
Fore
SplineSet
512 -206 m 1,0,-1
 0 -206 l 1,1,-1
 0 -170 l 1,2,-1
 512 -170 l 1,3,-1
 512 -206 l 1,0,-1
512 -206 m 1,4,-1
 0 -206 l 1,5,-1
 0 -170 l 1,6,-1
 512 -170 l 1,7,-1
 512 -206 l 1,4,-1
EndSplineSet
EndChar
StartChar: grave
Encoding: 96 96 67
Width: 512
Flags: W
LayerCount: 2
Back
Fore
SplineSet
173 810 m 2,0,-1
 411 716 l 2,1,2
 421 712 421 712 419 702 c 256,3,4
 417 692 417 692 405 694 c 2,5,-1
 151 724 l 2,6,7
 125 727 125 727 110 743 c 0,8,9
 96 759 96 759 101 783 c 256,10,11
 106 807 106 807 126 813 c 0,12,13
 147 820 147 820 173 810 c 2,0,-1
173 810 m 2,14,-1
 411 716 l 2,15,16
 421 712 421 712 419 702 c 256,17,18
 417 692 417 692 405 694 c 2,19,-1
 151 724 l 2,20,21
 125 727 125 727 110 743 c 256,22,23
 95 759 95 759 101 782 c 0,24,25
 106 806 106 806 127 813 c 0,26,27
 147 820 147 820 173 810 c 2,14,-1
EndSplineSet
EndChar
